<svg viewBox="0 0 100 100" xmlns="http://www.w3.org/2000/svg"><path d="M70.5,63.5Q66,77,47.5,82Q29,87,23,68.5Q17,50,21,28.5Q25,7,49.5,7.5Q74,8,74.5,29Q75,50,70.5,63.5Z" stroke="none" stroke-width="0" fill="#e6f3f1"/><path d="M74,69Q72,88,50.5,87.5Q29,87,19.5,68.5Q10,50,21.5,35.5Q33,21,48.5,23.5Q64,26,70,38Q76,50,74,69Z" stroke="none" stroke-width="0" fill="#d5e9eb"/><path d="M73.5,63Q65,76,47,81Q29,86,19.5,68Q10,50,20.5,33.5Q31,17,51.5,14Q72,11,77,30.5Q82,50,73.5,63Z" stroke="none" stroke-width="0" fill="#c4dfe5"/><path d="M84,70Q73,90,51.5,87.5Q30,85,17,67.5Q4,50,19,36Q34,22,50.5,21Q67,20,81,35Q95,50,84,70Z" stroke="none" stroke-width="0" fill="#b3d5df"/><path d="M76,64.5Q67,79,51,77.5Q35,76,21.5,63Q8,50,21,36.5Q34,23,52.5,18.5Q71,14,78,32Q85,50,76,64.5Z" stroke="none" stroke-width="0" fill="#a2cbd9"/><path d="M70,63.5Q65,77,47,82Q29,87,22,68.5Q15,50,22,31.5Q29,13,47.5,17.5Q66,22,70.5,36Q75,50,70,63.5Z" stroke="none" stroke-width="0" fill="#91c1d3"/><path d="M76,71.5Q75,93,54.5,85.5Q34,78,23,64Q12,50,19,29.5Q26,9,49.5,9.5Q73,10,75,30Q77,50,76,71.5Z" stroke="none" stroke-width="0" fill="#80b7cd"/><path d="M85.5,70Q73,90,55,81.5Q37,73,25.5,61.5Q14,50,23,34.5Q32,19,48,22Q64,25,81,37.5Q98,50,85.5,70Z" stroke="none" stroke-width="0" fill="#6fadc7"/></svg>