<svg width="270" height="185" viewBox="0 0 270 185" fill="none" xmlns="http://www.w3.org/2000/svg">
<g filter="url(#filter0_d_141_133)">
<rect x="11" y="10" width="250" height="167" fill="#1A2E4A"/>
</g>
<g clip-path="url(#clip0_141_133)">
<path d="M52.8 63.8386H46.92V68.4986H52.2V70.0586H46.92V74.7186H52.8V76.2786H45V62.2786H52.8V63.8386ZM57.3138 65.6786L57.4138 66.9786C57.8271 66.5119 58.3204 66.1386 58.8938 65.8586C59.4671 65.5652 60.0738 65.4052 60.7138 65.3786L60.8138 66.8186L60.5738 67.0386C59.9471 67.0519 59.3804 67.1652 58.8738 67.3786C58.3804 67.5786 57.9604 67.8586 57.6138 68.2186V76.2786H55.6938V65.6786H57.3138ZM64.5184 76.2786H62.5984V65.6786H64.5184V76.2786ZM62.3384 62.3386C62.3384 61.9119 62.4518 61.5986 62.6784 61.3986C62.9184 61.1852 63.2118 61.0786 63.5584 61.0786C63.9184 61.0786 64.2118 61.1852 64.4384 61.3986C64.6784 61.5986 64.7984 61.9119 64.7984 62.3386C64.7984 62.7652 64.6784 63.0852 64.4384 63.2986C64.2118 63.4986 63.9184 63.5986 63.5584 63.5986C63.2118 63.5986 62.9184 63.4986 62.6784 63.2986C62.4518 63.0852 62.3384 62.7652 62.3384 62.3386ZM74.3964 68.5986C74.0897 67.4919 73.4097 66.9386 72.3564 66.9386C71.5297 66.9386 70.8497 67.2719 70.3164 67.9386C69.7831 68.5919 69.5164 69.6052 69.5164 70.9786C69.5164 72.3519 69.7897 73.3719 70.3364 74.0386C70.8831 74.6919 71.5764 75.0186 72.4164 75.0186C73.0164 75.0186 73.5564 74.8919 74.0364 74.6386C74.5164 74.3719 74.9097 74.0919 75.2164 73.7986L76.0764 74.8386C75.6631 75.3052 75.1297 75.7119 74.4764 76.0586C73.8231 76.4052 73.1097 76.5786 72.3364 76.5786C71.6297 76.5786 70.9831 76.4652 70.3964 76.2386C69.8097 75.9986 69.3031 75.6452 68.8764 75.1786C68.4497 74.6986 68.1164 74.1119 67.8764 73.4186C67.6364 72.7119 67.5164 71.8986 67.5164 70.9786C67.5164 70.0586 67.6364 69.2519 67.8764 68.5586C68.1297 67.8519 68.4697 67.2652 68.8964 66.7986C69.3231 66.3186 69.8297 65.9652 70.4164 65.7386C71.0031 65.4986 71.6364 65.3786 72.3164 65.3786C73.2231 65.3786 73.9964 65.5852 74.6364 65.9986C75.2897 66.3986 75.7631 67.0786 76.0564 68.0386L74.3964 68.5986ZM81.4028 66.8386C80.8961 66.8386 80.4695 66.9519 80.1228 67.1786C79.7761 67.4052 79.6028 67.7519 79.6028 68.2186C79.6028 68.5919 79.7361 68.9052 80.0028 69.1586C80.2695 69.3986 80.6028 69.6186 81.0028 69.8186C81.4028 70.0186 81.8295 70.2186 82.2828 70.4186C82.7495 70.6186 83.1828 70.8586 83.5828 71.1386C83.9828 71.4052 84.3161 71.7386 84.5828 72.1386C84.8495 72.5252 84.9828 73.0186 84.9828 73.6186C84.9828 74.5119 84.6561 75.2319 84.0028 75.7786C83.3495 76.3119 82.4428 76.5786 81.2828 76.5786C80.1361 76.5786 79.2561 76.3119 78.6428 75.7786C78.0428 75.2319 77.6295 74.4786 77.4028 73.5186L79.0628 72.9586C79.1295 73.3986 79.2361 73.7586 79.3828 74.0386C79.5428 74.3186 79.7295 74.5386 79.9428 74.6986C80.1561 74.8586 80.3895 74.9719 80.6428 75.0386C80.8961 75.0919 81.1561 75.1186 81.4228 75.1186C81.8761 75.1186 82.2761 75.0119 82.6228 74.7986C82.9695 74.5719 83.1428 74.2252 83.1428 73.7586C83.1428 73.4119 83.0095 73.1252 82.7428 72.8986C82.4761 72.6719 82.1428 72.4586 81.7428 72.2586C81.3428 72.0586 80.9095 71.8586 80.4428 71.6586C79.9895 71.4452 79.5628 71.1919 79.1628 70.8986C78.7628 70.6052 78.4295 70.2519 78.1628 69.8386C77.8961 69.4119 77.7628 68.8852 77.7628 68.2586C77.7628 67.9519 77.8228 67.6319 77.9428 67.2986C78.0628 66.9519 78.2628 66.6386 78.5428 66.3586C78.8361 66.0786 79.2161 65.8452 79.6828 65.6586C80.1628 65.4719 80.7495 65.3786 81.4428 65.3786C82.3628 65.3786 83.1228 65.5852 83.7228 65.9986C84.3361 66.3986 84.7761 67.0786 85.0428 68.0386L83.3828 68.5986C83.2361 68.0519 82.9961 67.6252 82.6628 67.3186C82.3295 66.9986 81.9095 66.8386 81.4028 66.8386ZM90.7294 66.8386C90.2227 66.8386 89.796 66.9519 89.4494 67.1786C89.1027 67.4052 88.9294 67.7519 88.9294 68.2186C88.9294 68.5919 89.0627 68.9052 89.3294 69.1586C89.596 69.3986 89.9294 69.6186 90.3294 69.8186C90.7294 70.0186 91.156 70.2186 91.6094 70.4186C92.076 70.6186 92.5094 70.8586 92.9094 71.1386C93.3094 71.4052 93.6427 71.7386 93.9094 72.1386C94.176 72.5252 94.3094 73.0186 94.3094 73.6186C94.3094 74.5119 93.9827 75.2319 93.3294 75.7786C92.676 76.3119 91.7694 76.5786 90.6094 76.5786C89.4627 76.5786 88.5827 76.3119 87.9694 75.7786C87.3694 75.2319 86.956 74.4786 86.7294 73.5186L88.3894 72.9586C88.456 73.3986 88.5627 73.7586 88.7094 74.0386C88.8694 74.3186 89.056 74.5386 89.2694 74.6986C89.4827 74.8586 89.716 74.9719 89.9694 75.0386C90.2227 75.0919 90.4827 75.1186 90.7494 75.1186C91.2027 75.1186 91.6027 75.0119 91.9494 74.7986C92.296 74.5719 92.4694 74.2252 92.4694 73.7586C92.4694 73.4119 92.336 73.1252 92.0694 72.8986C91.8027 72.6719 91.4694 72.4586 91.0694 72.2586C90.6694 72.0586 90.236 71.8586 89.7694 71.6586C89.316 71.4452 88.8894 71.1919 88.4894 70.8986C88.0894 70.6052 87.756 70.2519 87.4894 69.8386C87.2227 69.4119 87.0894 68.8852 87.0894 68.2586C87.0894 67.9519 87.1494 67.6319 87.2694 67.2986C87.3894 66.9519 87.5894 66.6386 87.8694 66.3586C88.1627 66.0786 88.5427 65.8452 89.0094 65.6586C89.4894 65.4719 90.076 65.3786 90.7694 65.3786C91.6894 65.3786 92.4494 65.5852 93.0494 65.9986C93.6627 66.3986 94.1027 67.0786 94.3694 68.0386L92.7094 68.5986C92.5627 68.0519 92.3227 67.6252 91.9894 67.3186C91.656 66.9986 91.236 66.8386 90.7294 66.8386ZM96.3359 70.9786C96.3359 70.0586 96.4559 69.2519 96.6959 68.5586C96.9493 67.8519 97.2893 67.2652 97.7159 66.7986C98.1426 66.3186 98.6493 65.9652 99.2359 65.7386C99.8359 65.4986 100.476 65.3786 101.156 65.3786C101.836 65.3786 102.469 65.4986 103.056 65.7386C103.656 65.9652 104.169 66.3186 104.596 66.7986C105.036 67.2652 105.376 67.8519 105.616 68.5586C105.869 69.2519 105.996 70.0586 105.996 70.9786C105.996 71.8986 105.869 72.7119 105.616 73.4186C105.376 74.1119 105.036 74.6986 104.596 75.1786C104.169 75.6452 103.656 75.9986 103.056 76.2386C102.469 76.4652 101.836 76.5786 101.156 76.5786C100.476 76.5786 99.8359 76.4652 99.2359 76.2386C98.6493 75.9986 98.1426 75.6452 97.7159 75.1786C97.2893 74.6986 96.9493 74.1119 96.6959 73.4186C96.4559 72.7119 96.3359 71.8986 96.3359 70.9786ZM98.3359 70.9786C98.3359 72.3519 98.5959 73.3719 99.1159 74.0386C99.6493 74.6919 100.329 75.0186 101.156 75.0186C101.996 75.0186 102.676 74.6919 103.196 74.0386C103.729 73.3719 103.996 72.3519 103.996 70.9786C103.996 69.6052 103.729 68.5919 103.196 67.9386C102.676 67.2719 101.996 66.9386 101.156 66.9386C100.329 66.9386 99.6493 67.2719 99.1159 67.9386C98.5959 68.5919 98.3359 69.6052 98.3359 70.9786ZM110.617 65.6786L110.717 66.9586C111.13 66.5452 111.617 66.1786 112.177 65.8586C112.737 65.5386 113.364 65.3786 114.057 65.3786C114.684 65.3786 115.217 65.4519 115.657 65.5986C116.097 65.7452 116.45 65.9786 116.717 66.2986C116.997 66.6052 117.197 67.0119 117.317 67.5186C117.45 68.0252 117.517 68.6386 117.517 69.3586V76.2786H115.597V69.1586C115.597 67.6786 114.924 66.9386 113.577 66.9386C113.11 66.9386 112.65 67.0452 112.197 67.2586C111.744 67.4719 111.317 67.7652 110.917 68.1386V76.2786H108.997V65.6786H110.617Z" fill="white"/>
<path d="M46.3 119.01C46.3 119.403 46.2633 119.737 46.19 120.01C46.1233 120.277 46.0167 120.497 45.87 120.67C45.7233 120.837 45.54 120.957 45.32 121.03C45.1067 121.11 44.8533 121.15 44.56 121.15C44.1667 121.15 43.8267 121.05 43.54 120.85C43.26 120.643 43.0467 120.3 42.9 119.82L43.73 119.54C43.85 120.093 44.1267 120.37 44.56 120.37C44.7933 120.37 44.98 120.293 45.12 120.14C45.2667 119.987 45.34 119.727 45.34 119.36V114H46.3V119.01ZM52.158 120.15C52.158 120.257 52.1814 120.33 52.228 120.37C52.2814 120.403 52.3447 120.42 52.418 120.42C52.4714 120.42 52.528 120.413 52.588 120.4C52.648 120.38 52.7047 120.357 52.758 120.33L52.918 120.95C52.8114 121.003 52.6947 121.05 52.568 121.09C52.4414 121.13 52.3014 121.15 52.148 121.15C51.9147 121.15 51.718 121.097 51.558 120.99C51.398 120.883 51.298 120.683 51.258 120.39C51.0514 120.59 50.798 120.767 50.498 120.92C50.2047 121.073 49.858 121.15 49.458 121.15C48.9314 121.15 48.548 120.993 48.308 120.68C48.068 120.36 47.948 119.897 47.948 119.29V115.7H48.908V119.3C48.908 119.66 48.9714 119.93 49.098 120.11C49.2247 120.283 49.438 120.37 49.738 120.37C50.0314 120.37 50.298 120.317 50.538 120.21C50.778 120.103 50.998 119.96 51.198 119.78V115.7H52.158V120.15ZM54.8299 115.7L54.8799 116.34C55.0866 116.133 55.3299 115.95 55.6099 115.79C55.8899 115.63 56.2033 115.55 56.5499 115.55C56.8633 115.55 57.1299 115.587 57.3499 115.66C57.5699 115.733 57.7466 115.85 57.8799 116.01C58.0199 116.163 58.1199 116.367 58.1799 116.62C58.2466 116.873 58.2799 117.18 58.2799 117.54V121H57.3199V117.44C57.3199 116.7 56.9833 116.33 56.3099 116.33C56.0766 116.33 55.8466 116.383 55.6199 116.49C55.3933 116.597 55.1799 116.743 54.9799 116.93V121H54.0199V115.7H54.8299ZM62.162 120.37C62.502 120.37 62.7954 120.307 63.042 120.18C63.2954 120.047 63.4987 119.907 63.652 119.76L64.082 120.28C63.8754 120.513 63.6054 120.717 63.272 120.89C62.9387 121.063 62.5587 121.15 62.132 121.15C61.7787 121.15 61.452 121.093 61.152 120.98C60.852 120.86 60.592 120.683 60.372 120.45C60.1587 120.21 59.9887 119.917 59.862 119.57C59.742 119.217 59.682 118.81 59.682 118.35C59.682 117.89 59.742 117.487 59.862 117.14C59.982 116.787 60.1487 116.493 60.362 116.26C60.5754 116.02 60.8254 115.843 61.112 115.73C61.4054 115.61 61.722 115.55 62.062 115.55C62.3754 115.55 62.662 115.6 62.922 115.7C63.1887 115.793 63.4154 115.94 63.602 116.14C63.7887 116.34 63.932 116.59 64.032 116.89C64.1387 117.183 64.192 117.53 64.192 117.93V118.63H60.692C60.732 119.223 60.8854 119.663 61.152 119.95C61.4254 120.23 61.762 120.37 62.162 120.37ZM62.072 116.33C61.712 116.33 61.4054 116.463 61.152 116.73C60.9054 116.99 60.7554 117.39 60.702 117.93H63.242C63.242 117.417 63.1387 117.023 62.932 116.75C62.732 116.47 62.4454 116.33 62.072 116.33ZM67.7355 117.64H70.8555V118.34H67.7355V117.64ZM79.3696 121H78.4296L77.8796 119.09H75.3296L74.7896 121H73.8496L75.8496 114H77.3696L79.3696 121ZM75.5596 118.31H77.6596L76.6096 114.63L75.5596 118.31ZM84.4299 120.15C84.4299 120.257 84.4533 120.33 84.4999 120.37C84.5533 120.403 84.6166 120.42 84.6899 120.42C84.7433 120.42 84.7999 120.413 84.8599 120.4C84.9199 120.38 84.9766 120.357 85.0299 120.33L85.1899 120.95C85.0833 121.003 84.9666 121.05 84.8399 121.09C84.7133 121.13 84.5733 121.15 84.4199 121.15C84.1866 121.15 83.9899 121.097 83.8299 120.99C83.6699 120.883 83.5699 120.683 83.5299 120.39C83.3233 120.59 83.0699 120.767 82.7699 120.92C82.4766 121.073 82.1299 121.15 81.7299 121.15C81.2033 121.15 80.8199 120.993 80.5799 120.68C80.3399 120.36 80.2199 119.897 80.2199 119.29V115.7H81.1799V119.3C81.1799 119.66 81.2433 119.93 81.3699 120.11C81.4966 120.283 81.7099 120.37 82.0099 120.37C82.3033 120.37 82.5699 120.317 82.8099 120.21C83.0499 120.103 83.2699 119.96 83.4699 119.78V115.7H84.4299V120.15ZM88.9118 120.3C89.1385 120.3 89.3551 120.327 89.5618 120.38C89.7685 120.427 89.9518 120.507 90.1118 120.62C90.2718 120.733 90.3985 120.88 90.4918 121.06C90.5851 121.24 90.6318 121.46 90.6318 121.72C90.6318 122.233 90.4285 122.633 90.0218 122.92C89.6151 123.207 89.0118 123.35 88.2118 123.35C86.5985 123.35 85.7918 122.84 85.7918 121.82C85.7918 121.593 85.8585 121.383 85.9918 121.19C86.1251 120.997 86.3018 120.84 86.5218 120.72C86.2818 120.5 86.1618 120.197 86.1618 119.81C86.1618 119.61 86.2018 119.42 86.2818 119.24C86.3618 119.06 86.4885 118.903 86.6618 118.77C86.3485 118.437 86.1918 118.003 86.1918 117.47C86.1918 117.17 86.2418 116.9 86.3418 116.66C86.4485 116.42 86.5918 116.22 86.7718 116.06C86.9518 115.893 87.1651 115.767 87.4118 115.68C87.6585 115.593 87.9285 115.55 88.2218 115.55C88.5485 115.55 88.8518 115.607 89.1318 115.72C89.2851 115.713 89.4185 115.647 89.5318 115.52C89.6451 115.393 89.7018 115.16 89.7018 114.82H89.9018L90.4818 115.02C90.4818 115.367 90.4185 115.63 90.2918 115.81C90.1718 115.983 90.0051 116.107 89.7918 116.18C89.9385 116.34 90.0518 116.53 90.1318 116.75C90.2185 116.963 90.2618 117.203 90.2618 117.47C90.2618 117.77 90.2085 118.04 90.1018 118.28C90.0018 118.513 89.8585 118.713 89.6718 118.88C89.4918 119.04 89.2751 119.163 89.0218 119.25C88.7751 119.337 88.5085 119.38 88.2218 119.38C87.8085 119.38 87.4485 119.3 87.1418 119.14C87.0618 119.213 86.9985 119.303 86.9518 119.41C86.9118 119.51 86.8918 119.613 86.8918 119.72C86.8918 119.887 86.9485 120.027 87.0618 120.14C87.1751 120.247 87.3518 120.3 87.5918 120.3H88.9118ZM87.1118 117.47C87.1118 117.683 87.1451 117.87 87.2118 118.03C87.2785 118.183 87.3618 118.31 87.4618 118.41C87.5685 118.51 87.6885 118.583 87.8218 118.63C87.9551 118.677 88.0885 118.7 88.2218 118.7C88.3551 118.7 88.4885 118.677 88.6218 118.63C88.7551 118.583 88.8751 118.51 88.9818 118.41C89.0885 118.31 89.1751 118.183 89.2418 118.03C89.3085 117.87 89.3418 117.683 89.3418 117.47C89.3418 117.25 89.3085 117.063 89.2418 116.91C89.1751 116.75 89.0885 116.62 88.9818 116.52C88.8751 116.42 88.7551 116.347 88.6218 116.3C88.4885 116.253 88.3551 116.23 88.2218 116.23C88.0885 116.23 87.9551 116.253 87.8218 116.3C87.6885 116.347 87.5685 116.42 87.4618 116.52C87.3618 116.62 87.2785 116.75 87.2118 116.91C87.1451 117.063 87.1118 117.25 87.1118 117.47ZM87.6718 121.08C87.4451 121.08 87.2351 121.053 87.0418 121C86.9485 121.1 86.8618 121.213 86.7818 121.34C86.7085 121.473 86.6718 121.617 86.6718 121.77C86.6718 122.33 87.1851 122.61 88.2118 122.61C88.7318 122.61 89.1185 122.54 89.3718 122.4C89.6251 122.267 89.7518 122.043 89.7518 121.73C89.7518 121.59 89.7218 121.477 89.6618 121.39C89.6085 121.31 89.5385 121.247 89.4518 121.2C89.3718 121.153 89.2785 121.12 89.1718 121.1C89.0718 121.087 88.9718 121.08 88.8718 121.08H87.6718ZM95.7877 120.15C95.7877 120.257 95.8111 120.33 95.8577 120.37C95.9111 120.403 95.9744 120.42 96.0477 120.42C96.1011 120.42 96.1577 120.413 96.2177 120.4C96.2777 120.38 96.3344 120.357 96.3877 120.33L96.5477 120.95C96.4411 121.003 96.3244 121.05 96.1977 121.09C96.0711 121.13 95.9311 121.15 95.7777 121.15C95.5444 121.15 95.3477 121.097 95.1877 120.99C95.0277 120.883 94.9277 120.683 94.8877 120.39C94.6811 120.59 94.4277 120.767 94.1277 120.92C93.8344 121.073 93.4877 121.15 93.0877 121.15C92.5611 121.15 92.1777 120.993 91.9377 120.68C91.6977 120.36 91.5777 119.897 91.5777 119.29V115.7H92.5377V119.3C92.5377 119.66 92.6011 119.93 92.7277 120.11C92.8544 120.283 93.0677 120.37 93.3677 120.37C93.6611 120.37 93.9277 120.317 94.1677 120.21C94.4077 120.103 94.6277 119.96 94.8277 119.78V115.7H95.7877V120.15ZM99.2096 116.28C98.9563 116.28 98.7429 116.337 98.5696 116.45C98.3963 116.563 98.3096 116.737 98.3096 116.97C98.3096 117.157 98.3763 117.313 98.5096 117.44C98.6429 117.56 98.8096 117.67 99.0096 117.77C99.2096 117.87 99.4229 117.97 99.6496 118.07C99.8829 118.17 100.1 118.29 100.3 118.43C100.5 118.563 100.666 118.73 100.8 118.93C100.933 119.123 101 119.37 101 119.67C101 120.117 100.836 120.477 100.51 120.75C100.183 121.017 99.7296 121.15 99.1496 121.15C98.5763 121.15 98.1363 121.017 97.8296 120.75C97.5296 120.477 97.3229 120.1 97.2096 119.62L98.0396 119.34C98.0729 119.56 98.1263 119.74 98.1996 119.88C98.2796 120.02 98.3729 120.13 98.4796 120.21C98.5863 120.29 98.7029 120.347 98.8296 120.38C98.9563 120.407 99.0863 120.42 99.2196 120.42C99.4463 120.42 99.6463 120.367 99.8196 120.26C99.9929 120.147 100.08 119.973 100.08 119.74C100.08 119.567 100.013 119.423 99.8796 119.31C99.7463 119.197 99.5796 119.09 99.3796 118.99C99.1796 118.89 98.9629 118.79 98.7296 118.69C98.5029 118.583 98.2896 118.457 98.0896 118.31C97.8896 118.163 97.7229 117.987 97.5896 117.78C97.4563 117.567 97.3896 117.303 97.3896 116.99C97.3896 116.837 97.4196 116.677 97.4796 116.51C97.5396 116.337 97.6396 116.18 97.7796 116.04C97.9263 115.9 98.1163 115.783 98.3496 115.69C98.5896 115.597 98.8829 115.55 99.2296 115.55C99.6896 115.55 100.07 115.653 100.37 115.86C100.676 116.06 100.896 116.4 101.03 116.88L100.2 117.16C100.126 116.887 100.006 116.673 99.8396 116.52C99.6729 116.36 99.4629 116.28 99.2096 116.28ZM101.863 115.7H102.623V114.6L103.383 114.4H103.583V115.7H104.983V116.4H103.583V119.86C103.583 120.18 103.74 120.34 104.053 120.34C104.26 120.34 104.516 120.247 104.823 120.06L105.083 120.66C104.883 120.813 104.656 120.933 104.403 121.02C104.156 121.107 103.923 121.15 103.703 121.15C103.35 121.15 103.08 121.033 102.893 120.8C102.713 120.56 102.623 120.213 102.623 119.76V116.4H101.863V115.7ZM108.333 121V120.6C108.333 120.28 108.413 119.983 108.573 119.71C108.733 119.43 108.929 119.17 109.163 118.93C109.403 118.683 109.663 118.447 109.943 118.22C110.223 117.987 110.479 117.757 110.713 117.53C110.953 117.303 111.153 117.073 111.313 116.84C111.473 116.6 111.553 116.343 111.553 116.07C111.553 115.923 111.523 115.787 111.463 115.66C111.409 115.533 111.333 115.423 111.233 115.33C111.133 115.23 111.013 115.153 110.873 115.1C110.739 115.047 110.593 115.02 110.433 115.02C110.073 115.02 109.793 115.12 109.593 115.32C109.399 115.513 109.259 115.847 109.173 116.32L108.303 116.11C108.409 115.543 108.633 115.093 108.973 114.76C109.313 114.42 109.766 114.25 110.333 114.25C110.739 114.25 111.079 114.303 111.353 114.41C111.633 114.51 111.856 114.643 112.023 114.81C112.189 114.977 112.309 115.163 112.383 115.37C112.456 115.577 112.496 115.783 112.503 115.99C112.503 116.31 112.436 116.607 112.303 116.88C112.176 117.153 112.013 117.41 111.813 117.65C111.613 117.89 111.389 118.117 111.143 118.33C110.896 118.543 110.656 118.753 110.423 118.96C110.189 119.16 109.976 119.363 109.783 119.57C109.596 119.777 109.456 119.993 109.363 120.22H112.563V121H108.333ZM113.686 117.69C113.686 117.123 113.749 116.627 113.876 116.2C114.003 115.767 114.176 115.407 114.396 115.12C114.623 114.833 114.889 114.617 115.196 114.47C115.503 114.323 115.836 114.25 116.196 114.25C116.556 114.25 116.889 114.323 117.196 114.47C117.503 114.617 117.766 114.833 117.986 115.12C118.213 115.407 118.389 115.767 118.516 116.2C118.649 116.627 118.716 117.123 118.716 117.69C118.716 118.263 118.649 118.767 118.516 119.2C118.389 119.627 118.213 119.987 117.986 120.28C117.766 120.567 117.503 120.783 117.196 120.93C116.889 121.077 116.556 121.15 116.196 121.15C115.836 121.15 115.503 121.077 115.196 120.93C114.889 120.783 114.623 120.567 114.396 120.28C114.176 119.987 114.003 119.627 113.876 119.2C113.749 118.767 113.686 118.263 113.686 117.69ZM114.656 117.69C114.656 118.143 114.693 118.54 114.766 118.88C114.846 119.213 114.953 119.49 115.086 119.71C115.226 119.93 115.389 120.097 115.576 120.21C115.763 120.317 115.969 120.37 116.196 120.37C116.649 120.37 117.019 120.153 117.306 119.72C117.599 119.28 117.746 118.603 117.746 117.69C117.746 116.79 117.599 116.123 117.306 115.69C117.019 115.25 116.649 115.03 116.196 115.03C115.743 115.03 115.373 115.25 115.086 115.69C114.799 116.123 114.656 116.79 114.656 117.69ZM119.866 121V120.6C119.866 120.28 119.946 119.983 120.106 119.71C120.266 119.43 120.463 119.17 120.696 118.93C120.936 118.683 121.196 118.447 121.476 118.22C121.756 117.987 122.013 117.757 122.246 117.53C122.486 117.303 122.686 117.073 122.846 116.84C123.006 116.6 123.086 116.343 123.086 116.07C123.086 115.923 123.056 115.787 122.996 115.66C122.943 115.533 122.866 115.423 122.766 115.33C122.666 115.23 122.546 115.153 122.406 115.1C122.273 115.047 122.126 115.02 121.966 115.02C121.606 115.02 121.326 115.12 121.126 115.32C120.933 115.513 120.793 115.847 120.706 116.32L119.836 116.11C119.943 115.543 120.166 115.093 120.506 114.76C120.846 114.42 121.3 114.25 121.866 114.25C122.273 114.25 122.613 114.303 122.886 114.41C123.166 114.51 123.39 114.643 123.556 114.81C123.723 114.977 123.843 115.163 123.916 115.37C123.99 115.577 124.03 115.783 124.036 115.99C124.036 116.31 123.97 116.607 123.836 116.88C123.71 117.153 123.546 117.41 123.346 117.65C123.146 117.89 122.923 118.117 122.676 118.33C122.43 118.543 122.19 118.753 121.956 118.96C121.723 119.16 121.51 119.363 121.316 119.57C121.13 119.777 120.99 119.993 120.896 120.22H124.096V121H119.866ZM127.73 114.4V120.22H128.83V121H125.67V120.22H126.77V115.89C126.483 116.17 126.096 116.383 125.61 116.53L125.32 115.73C125.493 115.677 125.666 115.603 125.84 115.51C126.02 115.417 126.186 115.31 126.34 115.19C126.493 115.07 126.623 114.943 126.73 114.81C126.843 114.677 126.923 114.54 126.97 114.4H127.73Z" fill="#78B0F9"/>
<path d="M46.624 96.6C47.056 96.6 47.432 96.664 47.752 96.792C48.072 96.92 48.336 97.092 48.544 97.308C48.76 97.516 48.92 97.76 49.024 98.04C49.136 98.32 49.192 98.616 49.192 98.928C49.192 99.736 48.848 100.304 48.16 100.632C48.624 100.792 48.972 101.044 49.204 101.388C49.436 101.732 49.552 102.156 49.552 102.66C49.552 103.364 49.34 103.932 48.916 104.364C48.492 104.788 47.848 105 46.984 105H44.2V96.6H46.624ZM45.352 101.148V104.064H46.984C47.264 104.064 47.496 104.02 47.68 103.932C47.872 103.844 48.024 103.732 48.136 103.596C48.248 103.452 48.324 103.292 48.364 103.116C48.412 102.94 48.436 102.764 48.436 102.588C48.436 102.412 48.412 102.236 48.364 102.06C48.324 101.884 48.248 101.732 48.136 101.604C48.024 101.468 47.872 101.36 47.68 101.28C47.496 101.192 47.264 101.148 46.984 101.148H45.352ZM45.352 97.536V100.212H46.624C46.904 100.212 47.136 100.172 47.32 100.092C47.512 100.004 47.664 99.896 47.776 99.768C47.888 99.64 47.964 99.496 48.004 99.336C48.052 99.176 48.076 99.016 48.076 98.856C48.076 98.696 48.052 98.54 48.004 98.388C47.964 98.228 47.888 98.084 47.776 97.956C47.664 97.828 47.512 97.728 47.32 97.656C47.136 97.576 46.904 97.536 46.624 97.536H45.352ZM56.099 103.98C56.099 104.108 56.127 104.196 56.183 104.244C56.247 104.284 56.323 104.304 56.411 104.304C56.475 104.304 56.543 104.296 56.615 104.28C56.687 104.256 56.755 104.228 56.819 104.196L57.011 104.94C56.883 105.004 56.743 105.06 56.591 105.108C56.439 105.156 56.271 105.18 56.087 105.18C55.807 105.18 55.571 105.116 55.379 104.988C55.187 104.86 55.067 104.62 55.019 104.268C54.771 104.508 54.467 104.72 54.107 104.904C53.755 105.088 53.339 105.18 52.859 105.18C52.227 105.18 51.767 104.992 51.479 104.616C51.191 104.232 51.047 103.676 51.047 102.948V98.64H52.199V102.96C52.199 103.392 52.275 103.716 52.427 103.932C52.579 104.14 52.835 104.244 53.195 104.244C53.547 104.244 53.867 104.18 54.155 104.052C54.443 103.924 54.707 103.752 54.947 103.536V98.64H56.099V103.98ZM60.2053 99.336C59.9013 99.336 59.6453 99.404 59.4373 99.54C59.2293 99.676 59.1253 99.884 59.1253 100.164C59.1253 100.388 59.2053 100.576 59.3653 100.728C59.5253 100.872 59.7253 101.004 59.9653 101.124C60.2053 101.244 60.4613 101.364 60.7333 101.484C61.0133 101.604 61.2733 101.748 61.5133 101.916C61.7533 102.076 61.9533 102.276 62.1133 102.516C62.2733 102.748 62.3533 103.044 62.3533 103.404C62.3533 103.94 62.1573 104.372 61.7653 104.7C61.3733 105.02 60.8293 105.18 60.1333 105.18C59.4453 105.18 58.9173 105.02 58.5493 104.7C58.1893 104.372 57.9413 103.92 57.8053 103.344L58.8013 103.008C58.8413 103.272 58.9053 103.488 58.9933 103.656C59.0893 103.824 59.2013 103.956 59.3293 104.052C59.4573 104.148 59.5973 104.216 59.7493 104.256C59.9013 104.288 60.0573 104.304 60.2173 104.304C60.4893 104.304 60.7293 104.24 60.9373 104.112C61.1453 103.976 61.2493 103.768 61.2493 103.488C61.2493 103.28 61.1693 103.108 61.0093 102.972C60.8493 102.836 60.6493 102.708 60.4093 102.588C60.1693 102.468 59.9093 102.348 59.6293 102.228C59.3573 102.1 59.1013 101.948 58.8613 101.772C58.6213 101.596 58.4213 101.384 58.2613 101.136C58.1013 100.88 58.0213 100.564 58.0213 100.188C58.0213 100.004 58.0573 99.812 58.1293 99.612C58.2013 99.404 58.3213 99.216 58.4893 99.048C58.6653 98.88 58.8933 98.74 59.1733 98.628C59.4613 98.516 59.8133 98.46 60.2293 98.46C60.7813 98.46 61.2373 98.584 61.5973 98.832C61.9653 99.072 62.2293 99.48 62.3893 100.056L61.3933 100.392C61.3053 100.064 61.1613 99.808 60.9613 99.624C60.7613 99.432 60.5093 99.336 60.2053 99.336ZM65.0812 105H63.9292V98.64H65.0812V105ZM63.7732 96.636C63.7732 96.38 63.8412 96.192 63.9772 96.072C64.1212 95.944 64.2972 95.88 64.5052 95.88C64.7212 95.88 64.8972 95.944 65.0332 96.072C65.1772 96.192 65.2492 96.38 65.2492 96.636C65.2492 96.892 65.1772 97.084 65.0332 97.212C64.8972 97.332 64.7212 97.392 64.5052 97.392C64.2972 97.392 64.1212 97.332 63.9772 97.212C63.8412 97.084 63.7732 96.892 63.7732 96.636ZM68.212 98.64L68.272 99.408C68.52 99.16 68.812 98.94 69.148 98.748C69.484 98.556 69.86 98.46 70.276 98.46C70.652 98.46 70.972 98.504 71.236 98.592C71.5 98.68 71.712 98.82 71.872 99.012C72.04 99.196 72.16 99.44 72.232 99.744C72.312 100.048 72.352 100.416 72.352 100.848V105H71.2V100.728C71.2 99.84 70.796 99.396 69.988 99.396C69.708 99.396 69.432 99.46 69.16 99.588C68.888 99.716 68.632 99.892 68.392 100.116V105H67.24V98.64H68.212ZM77.0105 104.244C77.4185 104.244 77.7705 104.168 78.0665 104.016C78.3705 103.856 78.6145 103.688 78.7985 103.512L79.3145 104.136C79.0665 104.416 78.7425 104.66 78.3425 104.868C77.9425 105.076 77.4865 105.18 76.9745 105.18C76.5505 105.18 76.1585 105.112 75.7985 104.976C75.4385 104.832 75.1265 104.62 74.8625 104.34C74.6065 104.052 74.4025 103.7 74.2505 103.284C74.1065 102.86 74.0345 102.372 74.0345 101.82C74.0345 101.268 74.1065 100.784 74.2505 100.368C74.3945 99.944 74.5945 99.592 74.8505 99.312C75.1065 99.024 75.4065 98.812 75.7505 98.676C76.1025 98.532 76.4825 98.46 76.8905 98.46C77.2665 98.46 77.6105 98.52 77.9225 98.64C78.2425 98.752 78.5145 98.928 78.7385 99.168C78.9625 99.408 79.1345 99.708 79.2545 100.068C79.3825 100.42 79.4465 100.836 79.4465 101.316V102.156H75.2465C75.2945 102.868 75.4785 103.396 75.7985 103.74C76.1265 104.076 76.5305 104.244 77.0105 104.244ZM76.9025 99.396C76.4705 99.396 76.1025 99.556 75.7985 99.876C75.5025 100.188 75.3225 100.668 75.2585 101.316H78.3065C78.3065 100.7 78.1825 100.228 77.9345 99.9C77.6945 99.564 77.3505 99.396 76.9025 99.396ZM83.1164 99.336C82.8124 99.336 82.5564 99.404 82.3484 99.54C82.1404 99.676 82.0364 99.884 82.0364 100.164C82.0364 100.388 82.1164 100.576 82.2764 100.728C82.4364 100.872 82.6364 101.004 82.8764 101.124C83.1164 101.244 83.3724 101.364 83.6444 101.484C83.9244 101.604 84.1844 101.748 84.4244 101.916C84.6644 102.076 84.8644 102.276 85.0244 102.516C85.1844 102.748 85.2644 103.044 85.2644 103.404C85.2644 103.94 85.0684 104.372 84.6764 104.7C84.2844 105.02 83.7404 105.18 83.0444 105.18C82.3564 105.18 81.8284 105.02 81.4604 104.7C81.1004 104.372 80.8524 103.92 80.7164 103.344L81.7124 103.008C81.7524 103.272 81.8164 103.488 81.9044 103.656C82.0004 103.824 82.1124 103.956 82.2404 104.052C82.3684 104.148 82.5084 104.216 82.6604 104.256C82.8124 104.288 82.9684 104.304 83.1284 104.304C83.4004 104.304 83.6404 104.24 83.8484 104.112C84.0564 103.976 84.1604 103.768 84.1604 103.488C84.1604 103.28 84.0804 103.108 83.9204 102.972C83.7604 102.836 83.5604 102.708 83.3204 102.588C83.0804 102.468 82.8204 102.348 82.5404 102.228C82.2684 102.1 82.0124 101.948 81.7724 101.772C81.5324 101.596 81.3324 101.384 81.1724 101.136C81.0124 100.88 80.9324 100.564 80.9324 100.188C80.9324 100.004 80.9684 99.812 81.0404 99.612C81.1124 99.404 81.2324 99.216 81.4004 99.048C81.5764 98.88 81.8044 98.74 82.0844 98.628C82.3724 98.516 82.7244 98.46 83.1404 98.46C83.6924 98.46 84.1484 98.584 84.5084 98.832C84.8764 99.072 85.1404 99.48 85.3004 100.056L84.3044 100.392C84.2164 100.064 84.0724 99.808 83.8724 99.624C83.6724 99.432 83.4204 99.336 83.1164 99.336ZM88.7123 99.336C88.4083 99.336 88.1523 99.404 87.9443 99.54C87.7363 99.676 87.6323 99.884 87.6323 100.164C87.6323 100.388 87.7123 100.576 87.8723 100.728C88.0323 100.872 88.2323 101.004 88.4723 101.124C88.7123 101.244 88.9683 101.364 89.2403 101.484C89.5203 101.604 89.7803 101.748 90.0203 101.916C90.2603 102.076 90.4603 102.276 90.6203 102.516C90.7803 102.748 90.8603 103.044 90.8603 103.404C90.8603 103.94 90.6643 104.372 90.2723 104.7C89.8803 105.02 89.3363 105.18 88.6403 105.18C87.9523 105.18 87.4243 105.02 87.0563 104.7C86.6963 104.372 86.4483 103.92 86.3123 103.344L87.3083 103.008C87.3483 103.272 87.4123 103.488 87.5003 103.656C87.5963 103.824 87.7083 103.956 87.8363 104.052C87.9643 104.148 88.1043 104.216 88.2563 104.256C88.4083 104.288 88.5643 104.304 88.7243 104.304C88.9963 104.304 89.2363 104.24 89.4443 104.112C89.6523 103.976 89.7563 103.768 89.7563 103.488C89.7563 103.28 89.6763 103.108 89.5163 102.972C89.3563 102.836 89.1563 102.708 88.9163 102.588C88.6763 102.468 88.4163 102.348 88.1363 102.228C87.8643 102.1 87.6083 101.948 87.3683 101.772C87.1283 101.596 86.9283 101.384 86.7683 101.136C86.6083 100.88 86.5283 100.564 86.5283 100.188C86.5283 100.004 86.5643 99.812 86.6363 99.612C86.7083 99.404 86.8283 99.216 86.9963 99.048C87.1723 98.88 87.4003 98.74 87.6803 98.628C87.9683 98.516 88.3203 98.46 88.7363 98.46C89.2883 98.46 89.7443 98.584 90.1043 98.832C90.4723 99.072 90.7363 99.48 90.8963 100.056L89.9003 100.392C89.8123 100.064 89.6683 99.808 89.4683 99.624C89.2683 99.432 89.0163 99.336 88.7123 99.336ZM95.0706 100.788C95.0706 100.068 95.1586 99.436 95.3346 98.892C95.5106 98.348 95.7546 97.892 96.0666 97.524C96.3786 97.156 96.7466 96.88 97.1706 96.696C97.6026 96.512 98.0666 96.42 98.5626 96.42C99.0586 96.42 99.5186 96.512 99.9426 96.696C100.375 96.88 100.747 97.156 101.059 97.524C101.379 97.892 101.627 98.348 101.803 98.892C101.987 99.436 102.079 100.068 102.079 100.788C102.079 101.516 101.987 102.156 101.803 102.708C101.627 103.252 101.379 103.708 101.059 104.076C100.747 104.444 100.375 104.72 99.9426 104.904C99.5186 105.088 99.0586 105.18 98.5626 105.18C98.0666 105.18 97.6026 105.088 97.1706 104.904C96.7466 104.72 96.3786 104.444 96.0666 104.076C95.7546 103.708 95.5106 103.252 95.3346 102.708C95.1586 102.156 95.0706 101.516 95.0706 100.788ZM96.2706 100.788C96.2706 101.38 96.3266 101.892 96.4386 102.324C96.5506 102.756 96.7066 103.116 96.9066 103.404C97.1146 103.684 97.3586 103.896 97.6386 104.04C97.9186 104.176 98.2266 104.244 98.5626 104.244C98.9066 104.244 99.2186 104.176 99.4986 104.04C99.7866 103.896 100.031 103.684 100.231 103.404C100.439 103.116 100.599 102.756 100.711 102.324C100.823 101.892 100.879 101.38 100.879 100.788C100.879 100.204 100.823 99.7 100.711 99.276C100.599 98.844 100.439 98.488 100.231 98.208C100.031 97.92 99.7866 97.708 99.4986 97.572C99.2186 97.428 98.9066 97.356 98.5626 97.356C98.2266 97.356 97.9186 97.428 97.6386 97.572C97.3586 97.708 97.1146 97.92 96.9066 98.208C96.7066 98.488 96.5506 98.844 96.4386 99.276C96.3266 99.7 96.2706 100.204 96.2706 100.788ZM103.874 98.64H104.846L104.906 99.384C105.138 99.144 105.414 98.932 105.734 98.748C106.062 98.556 106.45 98.46 106.898 98.46C107.266 98.46 107.598 98.532 107.894 98.676C108.198 98.812 108.454 99.024 108.662 99.312C108.878 99.592 109.042 99.944 109.154 100.368C109.274 100.784 109.334 101.268 109.334 101.82C109.334 102.372 109.262 102.86 109.118 103.284C108.974 103.7 108.778 104.052 108.53 104.34C108.282 104.62 107.99 104.832 107.654 104.976C107.318 105.112 106.958 105.18 106.574 105.18C106.278 105.18 105.998 105.136 105.734 105.048C105.478 104.96 105.242 104.84 105.026 104.688V107.82H103.874V98.64ZM106.646 99.396C106.326 99.396 106.03 99.46 105.758 99.588C105.494 99.716 105.25 99.888 105.026 100.104V103.74C105.21 103.884 105.43 104.004 105.686 104.1C105.942 104.196 106.222 104.244 106.526 104.244C106.998 104.244 107.382 104.048 107.678 103.656C107.982 103.256 108.134 102.644 108.134 101.82C108.134 100.996 107.994 100.388 107.714 99.996C107.442 99.596 107.086 99.396 106.646 99.396ZM113.75 104.244C114.158 104.244 114.51 104.168 114.806 104.016C115.11 103.856 115.354 103.688 115.538 103.512L116.054 104.136C115.806 104.416 115.482 104.66 115.082 104.868C114.682 105.076 114.226 105.18 113.714 105.18C113.29 105.18 112.898 105.112 112.538 104.976C112.178 104.832 111.866 104.62 111.602 104.34C111.346 104.052 111.142 103.7 110.99 103.284C110.846 102.86 110.774 102.372 110.774 101.82C110.774 101.268 110.846 100.784 110.99 100.368C111.134 99.944 111.334 99.592 111.59 99.312C111.846 99.024 112.146 98.812 112.49 98.676C112.842 98.532 113.222 98.46 113.63 98.46C114.006 98.46 114.35 98.52 114.662 98.64C114.982 98.752 115.254 98.928 115.478 99.168C115.702 99.408 115.874 99.708 115.994 100.068C116.122 100.42 116.186 100.836 116.186 101.316V102.156H111.986C112.034 102.868 112.218 103.396 112.538 103.74C112.866 104.076 113.27 104.244 113.75 104.244ZM113.642 99.396C113.21 99.396 112.842 99.556 112.538 99.876C112.242 100.188 112.062 100.668 111.998 101.316H115.046C115.046 100.7 114.922 100.228 114.674 99.9C114.434 99.564 114.09 99.396 113.642 99.396ZM118.956 98.64L119.016 99.42C119.264 99.14 119.56 98.916 119.904 98.748C120.248 98.572 120.612 98.476 120.996 98.46L121.056 99.324L120.912 99.456C120.536 99.464 120.196 99.532 119.892 99.66C119.596 99.78 119.344 99.948 119.136 100.164V105H117.984V98.64H118.956ZM124.143 99.396C123.471 99.396 123.035 99.728 122.835 100.392L121.839 100.056C122.159 98.992 122.927 98.46 124.143 98.46C124.983 98.46 125.587 98.672 125.955 99.096C126.331 99.512 126.519 100.196 126.519 101.148V103.98C126.519 104.108 126.547 104.196 126.603 104.244C126.667 104.284 126.743 104.304 126.831 104.304C126.895 104.304 126.963 104.296 127.035 104.28C127.107 104.256 127.175 104.228 127.239 104.196L127.431 104.94C127.303 105.004 127.163 105.06 127.011 105.108C126.859 105.156 126.691 105.18 126.507 105.18C126.219 105.18 125.975 105.112 125.775 104.976C125.583 104.832 125.467 104.56 125.427 104.16C125.307 104.288 125.171 104.416 125.019 104.544C124.867 104.664 124.699 104.772 124.515 104.868C124.339 104.964 124.147 105.04 123.939 105.096C123.739 105.152 123.527 105.18 123.303 105.18C123.063 105.18 122.835 105.132 122.619 105.036C122.411 104.948 122.231 104.824 122.079 104.664C121.927 104.504 121.807 104.316 121.719 104.1C121.631 103.876 121.587 103.636 121.587 103.38C121.587 102.724 121.807 102.212 122.247 101.844C122.695 101.476 123.311 101.292 124.095 101.292C124.311 101.292 124.527 101.308 124.743 101.34C124.959 101.372 125.167 101.42 125.367 101.484V100.728C125.367 100.312 125.259 99.988 125.043 99.756C124.827 99.516 124.527 99.396 124.143 99.396ZM123.651 104.244C123.955 104.244 124.251 104.172 124.539 104.028C124.835 103.876 125.111 103.672 125.367 103.416V102.252C125.199 102.196 125.019 102.152 124.827 102.12C124.635 102.088 124.447 102.072 124.263 102.072C124.063 102.072 123.871 102.092 123.687 102.132C123.503 102.172 123.339 102.24 123.195 102.336C123.059 102.432 122.947 102.56 122.859 102.72C122.779 102.872 122.739 103.06 122.739 103.284C122.739 103.548 122.823 103.776 122.991 103.968C123.159 104.152 123.379 104.244 123.651 104.244ZM128.155 98.64H129.067V97.32L129.979 97.08H130.219V98.64H131.899V99.48H130.219V103.632C130.219 104.016 130.407 104.208 130.783 104.208C131.031 104.208 131.339 104.096 131.707 103.872L132.019 104.592C131.779 104.776 131.507 104.92 131.203 105.024C130.907 105.128 130.627 105.18 130.363 105.18C129.939 105.18 129.615 105.04 129.391 104.76C129.175 104.472 129.067 104.056 129.067 103.512V99.48H128.155V98.64ZM134.377 105H133.225V98.64H134.377V105ZM133.069 96.636C133.069 96.38 133.137 96.192 133.273 96.072C133.417 95.944 133.593 95.88 133.801 95.88C134.017 95.88 134.193 95.944 134.329 96.072C134.473 96.192 134.545 96.38 134.545 96.636C134.545 96.892 134.473 97.084 134.329 97.212C134.193 97.332 134.017 97.392 133.801 97.392C133.593 97.392 133.417 97.332 133.273 97.212C133.137 97.084 133.069 96.892 133.069 96.636ZM136.176 101.82C136.176 101.268 136.248 100.784 136.392 100.368C136.544 99.944 136.748 99.592 137.004 99.312C137.26 99.024 137.564 98.812 137.916 98.676C138.276 98.532 138.66 98.46 139.068 98.46C139.476 98.46 139.856 98.532 140.208 98.676C140.568 98.812 140.876 99.024 141.132 99.312C141.396 99.592 141.6 99.944 141.744 100.368C141.896 100.784 141.972 101.268 141.972 101.82C141.972 102.372 141.896 102.86 141.744 103.284C141.6 103.7 141.396 104.052 141.132 104.34C140.876 104.62 140.568 104.832 140.208 104.976C139.856 105.112 139.476 105.18 139.068 105.18C138.66 105.18 138.276 105.112 137.916 104.976C137.564 104.832 137.26 104.62 137.004 104.34C136.748 104.052 136.544 103.7 136.392 103.284C136.248 102.86 136.176 102.372 136.176 101.82ZM137.376 101.82C137.376 102.644 137.532 103.256 137.844 103.656C138.164 104.048 138.572 104.244 139.068 104.244C139.572 104.244 139.98 104.048 140.292 103.656C140.612 103.256 140.772 102.644 140.772 101.82C140.772 100.996 140.612 100.388 140.292 99.996C139.98 99.596 139.572 99.396 139.068 99.396C138.572 99.396 138.164 99.596 137.844 99.996C137.532 100.388 137.376 100.996 137.376 101.82ZM144.744 98.64L144.804 99.408C145.052 99.16 145.344 98.94 145.68 98.748C146.016 98.556 146.392 98.46 146.808 98.46C147.184 98.46 147.504 98.504 147.768 98.592C148.032 98.68 148.244 98.82 148.404 99.012C148.572 99.196 148.692 99.44 148.764 99.744C148.844 100.048 148.884 100.416 148.884 100.848V105H147.732V100.728C147.732 99.84 147.328 99.396 146.52 99.396C146.24 99.396 145.964 99.46 145.692 99.588C145.42 99.716 145.164 99.892 144.924 100.116V105H143.772V98.64H144.744ZM152.799 99.336C152.495 99.336 152.239 99.404 152.031 99.54C151.823 99.676 151.719 99.884 151.719 100.164C151.719 100.388 151.799 100.576 151.959 100.728C152.119 100.872 152.319 101.004 152.559 101.124C152.799 101.244 153.055 101.364 153.327 101.484C153.607 101.604 153.867 101.748 154.107 101.916C154.347 102.076 154.547 102.276 154.707 102.516C154.867 102.748 154.947 103.044 154.947 103.404C154.947 103.94 154.751 104.372 154.359 104.7C153.967 105.02 153.423 105.18 152.727 105.18C152.039 105.18 151.511 105.02 151.143 104.7C150.783 104.372 150.535 103.92 150.399 103.344L151.395 103.008C151.435 103.272 151.499 103.488 151.587 103.656C151.683 103.824 151.795 103.956 151.923 104.052C152.051 104.148 152.191 104.216 152.343 104.256C152.495 104.288 152.651 104.304 152.811 104.304C153.083 104.304 153.323 104.24 153.531 104.112C153.739 103.976 153.843 103.768 153.843 103.488C153.843 103.28 153.763 103.108 153.603 102.972C153.443 102.836 153.243 102.708 153.003 102.588C152.763 102.468 152.503 102.348 152.223 102.228C151.951 102.1 151.695 101.948 151.455 101.772C151.215 101.596 151.015 101.384 150.855 101.136C150.695 100.88 150.615 100.564 150.615 100.188C150.615 100.004 150.651 99.812 150.723 99.612C150.795 99.404 150.915 99.216 151.083 99.048C151.259 98.88 151.487 98.74 151.767 98.628C152.055 98.516 152.407 98.46 152.823 98.46C153.375 98.46 153.831 98.584 154.191 98.832C154.559 99.072 154.823 99.48 154.983 100.056L153.987 100.392C153.899 100.064 153.755 99.808 153.555 99.624C153.355 99.432 153.103 99.336 152.799 99.336ZM160.669 105H159.517V96.6H160.669V105ZM163.8 98.64L163.86 99.408C164.108 99.16 164.4 98.94 164.736 98.748C165.072 98.556 165.448 98.46 165.864 98.46C166.24 98.46 166.56 98.504 166.824 98.592C167.088 98.68 167.3 98.82 167.46 99.012C167.628 99.196 167.748 99.44 167.82 99.744C167.9 100.048 167.94 100.416 167.94 100.848V105H166.788V100.728C166.788 99.84 166.384 99.396 165.576 99.396C165.296 99.396 165.02 99.46 164.748 99.588C164.476 99.716 164.22 99.892 163.98 100.116V105H162.828V98.64H163.8ZM169.443 98.64H170.355V97.32L171.267 97.08H171.507V98.64H173.187V99.48H171.507V103.632C171.507 104.016 171.695 104.208 172.071 104.208C172.319 104.208 172.627 104.096 172.995 103.872L173.307 104.592C173.067 104.776 172.795 104.92 172.491 105.024C172.195 105.128 171.915 105.18 171.651 105.18C171.227 105.18 170.903 105.04 170.679 104.76C170.463 104.472 170.355 104.056 170.355 103.512V99.48H169.443V98.64ZM177.128 104.244C177.536 104.244 177.888 104.168 178.184 104.016C178.488 103.856 178.732 103.688 178.916 103.512L179.432 104.136C179.184 104.416 178.86 104.66 178.46 104.868C178.06 105.076 177.604 105.18 177.092 105.18C176.668 105.18 176.276 105.112 175.916 104.976C175.556 104.832 175.244 104.62 174.98 104.34C174.724 104.052 174.52 103.7 174.368 103.284C174.224 102.86 174.152 102.372 174.152 101.82C174.152 101.268 174.224 100.784 174.368 100.368C174.512 99.944 174.712 99.592 174.968 99.312C175.224 99.024 175.524 98.812 175.868 98.676C176.22 98.532 176.6 98.46 177.008 98.46C177.384 98.46 177.728 98.52 178.04 98.64C178.36 98.752 178.632 98.928 178.856 99.168C179.08 99.408 179.252 99.708 179.372 100.068C179.5 100.42 179.564 100.836 179.564 101.316V102.156H175.364C175.412 102.868 175.596 103.396 175.916 103.74C176.244 104.076 176.648 104.244 177.128 104.244ZM177.02 99.396C176.588 99.396 176.22 99.556 175.916 99.876C175.62 100.188 175.44 100.668 175.376 101.316H178.424C178.424 100.7 178.3 100.228 178.052 99.9C177.812 99.564 177.468 99.396 177.02 99.396ZM182.334 98.64L182.394 99.42C182.642 99.14 182.938 98.916 183.282 98.748C183.626 98.572 183.99 98.476 184.374 98.46L184.434 99.324L184.29 99.456C183.914 99.464 183.574 99.532 183.27 99.66C182.974 99.78 182.722 99.948 182.514 100.164V105H181.362V98.64H182.334ZM186.477 98.64L186.537 99.408C186.785 99.16 187.077 98.94 187.413 98.748C187.749 98.556 188.125 98.46 188.541 98.46C188.917 98.46 189.237 98.504 189.501 98.592C189.765 98.68 189.977 98.82 190.137 99.012C190.305 99.196 190.425 99.44 190.497 99.744C190.577 100.048 190.617 100.416 190.617 100.848V105H189.465V100.728C189.465 99.84 189.061 99.396 188.253 99.396C187.973 99.396 187.697 99.46 187.425 99.588C187.153 99.716 186.897 99.892 186.657 100.116V105H185.505V98.64H186.477Z" fill="#A6ADB8"/>
</g>
<g filter="url(#filter1_dddd_141_133)">
<ellipse cx="138" cy="10.199" rx="10" ry="10.199" fill="white"/>
</g>
<defs>
<filter id="filter0_d_141_133" x="7" y="10" width="258" height="175" filterUnits="userSpaceOnUse" color-interpolation-filters="sRGB">
<feFlood flood-opacity="0" result="BackgroundImageFix"/>
<feColorMatrix in="SourceAlpha" type="matrix" values="0 0 0 0 0 0 0 0 0 0 0 0 0 0 0 0 0 0 127 0" result="hardAlpha"/>
<feOffset dy="4"/>
<feGaussianBlur stdDeviation="2"/>
<feComposite in2="hardAlpha" operator="out"/>
<feColorMatrix type="matrix" values="0 0 0 0 0 0 0 0 0 0 0 0 0 0 0 0 0 0 0.25 0"/>
<feBlend mode="normal" in2="BackgroundImageFix" result="effect1_dropShadow_141_133"/>
<feBlend mode="normal" in="SourceGraphic" in2="effect1_dropShadow_141_133" result="shape"/>
</filter>
<filter id="filter1_dddd_141_133" x="124" y="0" width="28" height="28.3979" filterUnits="userSpaceOnUse" color-interpolation-filters="sRGB">
<feFlood flood-opacity="0" result="BackgroundImageFix"/>
<feColorMatrix in="SourceAlpha" type="matrix" values="0 0 0 0 0 0 0 0 0 0 0 0 0 0 0 0 0 0 127 0" result="hardAlpha"/>
<feOffset dy="4"/>
<feGaussianBlur stdDeviation="2"/>
<feComposite in2="hardAlpha" operator="out"/>
<feColorMatrix type="matrix" values="0 0 0 0 0 0 0 0 0 0 0 0 0 0 0 0 0 0 0.25 0"/>
<feBlend mode="normal" in2="BackgroundImageFix" result="effect1_dropShadow_141_133"/>
<feColorMatrix in="SourceAlpha" type="matrix" values="0 0 0 0 0 0 0 0 0 0 0 0 0 0 0 0 0 0 127 0" result="hardAlpha"/>
<feOffset dy="4"/>
<feGaussianBlur stdDeviation="2"/>
<feComposite in2="hardAlpha" operator="out"/>
<feColorMatrix type="matrix" values="0 0 0 0 0 0 0 0 0 0 0 0 0 0 0 0 0 0 0.25 0"/>
<feBlend mode="normal" in2="effect1_dropShadow_141_133" result="effect2_dropShadow_141_133"/>
<feColorMatrix in="SourceAlpha" type="matrix" values="0 0 0 0 0 0 0 0 0 0 0 0 0 0 0 0 0 0 127 0" result="hardAlpha"/>
<feOffset dy="4"/>
<feGaussianBlur stdDeviation="2"/>
<feComposite in2="hardAlpha" operator="out"/>
<feColorMatrix type="matrix" values="0 0 0 0 0 0 0 0 0 0 0 0 0 0 0 0 0 0 0.25 0"/>
<feBlend mode="normal" in2="effect2_dropShadow_141_133" result="effect3_dropShadow_141_133"/>
<feColorMatrix in="SourceAlpha" type="matrix" values="0 0 0 0 0 0 0 0 0 0 0 0 0 0 0 0 0 0 127 0" result="hardAlpha"/>
<feOffset dy="4"/>
<feGaussianBlur stdDeviation="2"/>
<feComposite in2="hardAlpha" operator="out"/>
<feColorMatrix type="matrix" values="0 0 0 0 0 0 0 0 0 0 0 0 0 0 0 0 0 0 0.25 0"/>
<feBlend mode="normal" in2="effect3_dropShadow_141_133" result="effect4_dropShadow_141_133"/>
<feBlend mode="normal" in="SourceGraphic" in2="effect4_dropShadow_141_133" result="shape"/>
</filter>
<clipPath id="clip0_141_133">
<rect width="270" height="137.319" fill="white" transform="translate(0 10.2786)"/>
</clipPath>
</defs>
</svg>
