<svg width="270" height="185" viewBox="0 0 270 185" fill="none" xmlns="http://www.w3.org/2000/svg">
<g filter="url(#filter0_d_141_141)">
<rect x="11" y="10" width="250" height="167" fill="#1A2E4A"/>
</g>
<g clip-path="url(#clip0_141_141)">
<path d="M51.36 73.0186C51.36 72.4852 51.1867 72.0452 50.84 71.6986C50.4933 71.3519 50.06 71.0452 49.54 70.7786C49.0333 70.5119 48.4733 70.2519 47.86 69.9986C47.26 69.7452 46.7 69.4386 46.18 69.0786C45.6733 68.7186 45.2467 68.2786 44.9 67.7586C44.5533 67.2252 44.38 66.5519 44.38 65.7386C44.38 65.3386 44.4533 64.9186 44.6 64.4786C44.76 64.0386 45.0133 63.6319 45.36 63.2586C45.7067 62.8852 46.16 62.5786 46.72 62.3386C47.2933 62.0986 48 61.9786 48.84 61.9786C49.9467 61.9786 50.8667 62.2186 51.6 62.6986C52.3467 63.1652 52.88 63.9386 53.2 65.0186L51.46 65.6386C51.2333 64.9852 50.88 64.4719 50.4 64.0986C49.92 63.7252 49.3133 63.5386 48.58 63.5386C47.9 63.5386 47.3467 63.7186 46.92 64.0786C46.5067 64.4386 46.3 64.9386 46.3 65.5786C46.3 66.1252 46.4733 66.5786 46.82 66.9386C47.1667 67.2852 47.5933 67.5986 48.1 67.8786C48.62 68.1452 49.18 68.4052 49.78 68.6586C50.3933 68.9119 50.9533 69.2119 51.46 69.5586C51.98 69.8919 52.4133 70.3052 52.76 70.7986C53.1067 71.2786 53.28 71.8919 53.28 72.6386C53.28 73.0519 53.2 73.4919 53.04 73.9586C52.88 74.4119 52.62 74.8386 52.26 75.2386C51.9 75.6252 51.42 75.9452 50.82 76.1986C50.2333 76.4519 49.5 76.5786 48.62 76.5786C47.4333 76.5786 46.44 76.2919 45.64 75.7186C44.8533 75.1319 44.2933 74.1786 43.96 72.8586L45.68 72.2386C46.1467 74.0919 47.1867 75.0186 48.8 75.0186C49.5467 75.0186 50.16 74.8319 50.64 74.4586C51.12 74.0719 51.36 73.5919 51.36 73.0186ZM59.2881 66.9386C58.1681 66.9386 57.4415 67.4919 57.1081 68.5986L55.4481 68.0386C55.9815 66.2652 57.2615 65.3786 59.2881 65.3786C60.6881 65.3786 61.6948 65.7319 62.3081 66.4386C62.9348 67.1319 63.2481 68.2719 63.2481 69.8586V74.5786C63.2481 74.7919 63.2948 74.9386 63.3881 75.0186C63.4948 75.0852 63.6215 75.1186 63.7681 75.1186C63.8748 75.1186 63.9881 75.1052 64.1081 75.0786C64.2281 75.0386 64.3415 74.9919 64.4481 74.9386L64.7681 76.1786C64.5548 76.2852 64.3215 76.3786 64.0681 76.4586C63.8148 76.5386 63.5348 76.5786 63.2281 76.5786C62.7481 76.5786 62.3415 76.4652 62.0081 76.2386C61.6881 75.9986 61.4948 75.5452 61.4281 74.8786C61.2281 75.0919 61.0015 75.3052 60.7481 75.5186C60.4948 75.7186 60.2148 75.8986 59.9081 76.0586C59.6148 76.2186 59.2948 76.3452 58.9481 76.4386C58.6148 76.5319 58.2615 76.5786 57.8881 76.5786C57.4881 76.5786 57.1081 76.4986 56.7481 76.3386C56.4015 76.1919 56.1015 75.9852 55.8481 75.7186C55.5948 75.4519 55.3948 75.1386 55.2481 74.7786C55.1015 74.4052 55.0281 74.0052 55.0281 73.5786C55.0281 72.4852 55.3948 71.6319 56.1281 71.0186C56.8748 70.4052 57.9015 70.0986 59.2081 70.0986C59.5681 70.0986 59.9281 70.1252 60.2881 70.1786C60.6481 70.2319 60.9948 70.3119 61.3281 70.4186V69.1586C61.3281 68.4652 61.1481 67.9252 60.7881 67.5386C60.4281 67.1386 59.9281 66.9386 59.2881 66.9386ZM58.4681 75.0186C58.9748 75.0186 59.4681 74.8986 59.9481 74.6586C60.4415 74.4052 60.9015 74.0652 61.3281 73.6386V71.6986C61.0481 71.6052 60.7481 71.5319 60.4281 71.4786C60.1081 71.4252 59.7948 71.3986 59.4881 71.3986C59.1548 71.3986 58.8348 71.4319 58.5281 71.4986C58.2215 71.5652 57.9481 71.6786 57.7081 71.8386C57.4815 71.9986 57.2948 72.2119 57.1481 72.4786C57.0148 72.7319 56.9481 73.0452 56.9481 73.4186C56.9481 73.8586 57.0881 74.2386 57.3681 74.5586C57.6481 74.8652 58.0148 75.0186 58.4681 75.0186ZM65.9758 65.6786H67.4958V64.4586C67.4958 63.2052 67.7624 62.3119 68.2958 61.7786C68.8424 61.2452 69.6291 60.9786 70.6558 60.9786C71.3358 60.9786 71.9024 61.1186 72.3558 61.3986C72.8224 61.6786 73.2024 62.2119 73.4958 62.9986L71.8958 63.5386C71.7758 63.2186 71.6224 62.9719 71.4358 62.7986C71.2491 62.6252 70.9824 62.5386 70.6358 62.5386C70.2358 62.5386 69.9291 62.6786 69.7158 62.9586C69.5158 63.2252 69.4158 63.6586 69.4158 64.2586V65.6786H72.0158V67.0786H69.4158V76.2786H67.4958V67.0786H65.9758V65.6786ZM78.4334 75.0186C79.1134 75.0186 79.7001 74.8919 80.1934 74.6386C80.7001 74.3719 81.1068 74.0919 81.4134 73.7986L82.2734 74.8386C81.8601 75.3052 81.3201 75.7119 80.6534 76.0586C79.9868 76.4052 79.2268 76.5786 78.3734 76.5786C77.6668 76.5786 77.0134 76.4652 76.4134 76.2386C75.8134 75.9986 75.2934 75.6452 74.8534 75.1786C74.4268 74.6986 74.0868 74.1119 73.8334 73.4186C73.5934 72.7119 73.4734 71.8986 73.4734 70.9786C73.4734 70.0586 73.5934 69.2519 73.8334 68.5586C74.0734 67.8519 74.4068 67.2652 74.8334 66.7986C75.2601 66.3186 75.7601 65.9652 76.3334 65.7386C76.9201 65.4986 77.5534 65.3786 78.2334 65.3786C78.8601 65.3786 79.4334 65.4786 79.9534 65.6786C80.4868 65.8652 80.9401 66.1586 81.3134 66.5586C81.6868 66.9586 81.9734 67.4586 82.1734 68.0586C82.3868 68.6452 82.4934 69.3386 82.4934 70.1386V71.5386H75.4934C75.5734 72.7252 75.8801 73.6052 76.4134 74.1786C76.9601 74.7386 77.6334 75.0186 78.4334 75.0186ZM78.2534 66.9386C77.5334 66.9386 76.9201 67.2052 76.4134 67.7386C75.9201 68.2586 75.6201 69.0586 75.5134 70.1386H80.5934C80.5934 69.1119 80.3868 68.3252 79.9734 67.7786C79.5734 67.2186 79.0001 66.9386 78.2534 66.9386ZM91.8498 73.0186C91.8498 72.4852 91.6765 72.0452 91.3298 71.6986C90.9832 71.3519 90.5498 71.0452 90.0298 70.7786C89.5232 70.5119 88.9632 70.2519 88.3498 69.9986C87.7498 69.7452 87.1898 69.4386 86.6698 69.0786C86.1632 68.7186 85.7365 68.2786 85.3898 67.7586C85.0432 67.2252 84.8698 66.5519 84.8698 65.7386C84.8698 65.3386 84.9432 64.9186 85.0898 64.4786C85.2498 64.0386 85.5032 63.6319 85.8498 63.2586C86.1965 62.8852 86.6498 62.5786 87.2098 62.3386C87.7832 62.0986 88.4898 61.9786 89.3298 61.9786C90.4365 61.9786 91.3565 62.2186 92.0898 62.6986C92.8365 63.1652 93.3698 63.9386 93.6898 65.0186L91.9498 65.6386C91.7232 64.9852 91.3698 64.4719 90.8898 64.0986C90.4098 63.7252 89.8032 63.5386 89.0698 63.5386C88.3898 63.5386 87.8365 63.7186 87.4098 64.0786C86.9965 64.4386 86.7898 64.9386 86.7898 65.5786C86.7898 66.1252 86.9632 66.5786 87.3098 66.9386C87.6565 67.2852 88.0832 67.5986 88.5898 67.8786C89.1098 68.1452 89.6698 68.4052 90.2698 68.6586C90.8832 68.9119 91.4432 69.2119 91.9498 69.5586C92.4698 69.8919 92.9032 70.3052 93.2498 70.7986C93.5965 71.2786 93.7698 71.8919 93.7698 72.6386C93.7698 73.0519 93.6898 73.4919 93.5298 73.9586C93.3698 74.4119 93.1098 74.8386 92.7498 75.2386C92.3898 75.6252 91.9098 75.9452 91.3098 76.1986C90.7232 76.4519 89.9898 76.5786 89.1098 76.5786C87.9232 76.5786 86.9298 76.2919 86.1298 75.7186C85.3432 75.1319 84.7832 74.1786 84.4498 72.8586L86.1698 72.2386C86.6365 74.0919 87.6765 75.0186 89.2898 75.0186C90.0365 75.0186 90.6498 74.8319 91.1298 74.4586C91.6098 74.0719 91.8498 73.5919 91.8498 73.0186ZM95.518 65.6786H97.038V63.4786L98.558 63.0786H98.958V65.6786H101.758V67.0786H98.958V73.9986C98.958 74.6386 99.2713 74.9586 99.898 74.9586C100.311 74.9586 100.825 74.7719 101.438 74.3986L101.958 75.5986C101.558 75.9052 101.105 76.1452 100.598 76.3186C100.105 76.4919 99.638 76.5786 99.198 76.5786C98.4913 76.5786 97.9513 76.3452 97.578 75.8786C97.218 75.3986 97.038 74.7052 97.038 73.7986V67.0786H95.518V65.6786ZM107.327 66.9386C106.207 66.9386 105.481 67.4919 105.147 68.5986L103.487 68.0386C104.021 66.2652 105.301 65.3786 107.327 65.3786C108.727 65.3786 109.734 65.7319 110.347 66.4386C110.974 67.1319 111.287 68.2719 111.287 69.8586V74.5786C111.287 74.7919 111.334 74.9386 111.427 75.0186C111.534 75.0852 111.661 75.1186 111.807 75.1186C111.914 75.1186 112.027 75.1052 112.147 75.0786C112.267 75.0386 112.381 74.9919 112.487 74.9386L112.807 76.1786C112.594 76.2852 112.361 76.3786 112.107 76.4586C111.854 76.5386 111.574 76.5786 111.267 76.5786C110.787 76.5786 110.381 76.4652 110.047 76.2386C109.727 75.9986 109.534 75.5452 109.467 74.8786C109.267 75.0919 109.041 75.3052 108.787 75.5186C108.534 75.7186 108.254 75.8986 107.947 76.0586C107.654 76.2186 107.334 76.3452 106.987 76.4386C106.654 76.5319 106.301 76.5786 105.927 76.5786C105.527 76.5786 105.147 76.4986 104.787 76.3386C104.441 76.1919 104.141 75.9852 103.887 75.7186C103.634 75.4519 103.434 75.1386 103.287 74.7786C103.141 74.4052 103.067 74.0052 103.067 73.5786C103.067 72.4852 103.434 71.6319 104.167 71.0186C104.914 70.4052 105.941 70.0986 107.247 70.0986C107.607 70.0986 107.967 70.1252 108.327 70.1786C108.687 70.2319 109.034 70.3119 109.367 70.4186V69.1586C109.367 68.4652 109.187 67.9252 108.827 67.5386C108.467 67.1386 107.967 66.9386 107.327 66.9386ZM106.507 75.0186C107.014 75.0186 107.507 74.8986 107.987 74.6586C108.481 74.4052 108.941 74.0652 109.367 73.6386V71.6986C109.087 71.6052 108.787 71.5319 108.467 71.4786C108.147 71.4252 107.834 71.3986 107.527 71.3986C107.194 71.3986 106.874 71.4319 106.567 71.4986C106.261 71.5652 105.987 71.6786 105.747 71.8386C105.521 71.9986 105.334 72.2119 105.187 72.4786C105.054 72.7319 104.987 73.0452 104.987 73.4186C104.987 73.8586 105.127 74.2386 105.407 74.5586C105.687 74.8652 106.054 75.0186 106.507 75.0186ZM116.535 65.6786L116.635 66.9186C117.022 66.5186 117.475 66.1652 117.995 65.8586C118.528 65.5386 119.115 65.3786 119.755 65.3786C120.568 65.3786 121.222 65.5119 121.715 65.7786C122.208 66.0452 122.568 66.4786 122.795 67.0786C123.182 66.6386 123.648 66.2452 124.195 65.8986C124.755 65.5519 125.375 65.3786 126.055 65.3786C126.655 65.3786 127.168 65.4519 127.595 65.5986C128.035 65.7452 128.388 65.9786 128.655 66.2986C128.922 66.6052 129.115 67.0119 129.235 67.5186C129.368 68.0252 129.435 68.6386 129.435 69.3586V76.2786H127.515V69.1586C127.515 67.6786 126.882 66.9386 125.615 66.9386C125.148 66.9386 124.702 67.0519 124.275 67.2786C123.848 67.4919 123.442 67.7919 123.055 68.1786C123.082 68.3652 123.102 68.5519 123.115 68.7386C123.128 68.9252 123.135 69.1319 123.135 69.3586V76.2786H121.215V69.1586C121.215 67.6786 120.582 66.9386 119.315 66.9386C118.875 66.9386 118.442 67.0452 118.015 67.2586C117.602 67.4719 117.208 67.7586 116.835 68.1186V76.2786H114.915V65.6786H116.535ZM132.835 65.6786H134.455L134.555 66.9186C134.942 66.5186 135.402 66.1652 135.935 65.8586C136.482 65.5386 137.128 65.3786 137.875 65.3786C138.488 65.3786 139.042 65.4986 139.535 65.7386C140.042 65.9652 140.468 66.3186 140.815 66.7986C141.175 67.2652 141.448 67.8519 141.635 68.5586C141.835 69.2519 141.935 70.0586 141.935 70.9786C141.935 71.8986 141.815 72.7119 141.575 73.4186C141.335 74.1119 141.008 74.6986 140.595 75.1786C140.182 75.6452 139.695 75.9986 139.135 76.2386C138.575 76.4652 137.975 76.5786 137.335 76.5786C136.842 76.5786 136.375 76.5052 135.935 76.3586C135.508 76.2119 135.115 76.0119 134.755 75.7586V80.9786H132.835V65.6786ZM137.455 66.9386C136.922 66.9386 136.428 67.0452 135.975 67.2586C135.535 67.4719 135.128 67.7586 134.755 68.1186V74.1786C135.062 74.4186 135.428 74.6186 135.855 74.7786C136.282 74.9386 136.748 75.0186 137.255 75.0186C138.042 75.0186 138.682 74.6919 139.175 74.0386C139.682 73.3719 139.935 72.3519 139.935 70.9786C139.935 69.6052 139.702 68.5919 139.235 67.9386C138.782 67.2719 138.188 66.9386 137.455 66.9386Z" fill="white"/>
<path d="M46.3 119.01C46.3 119.403 46.2633 119.737 46.19 120.01C46.1233 120.277 46.0167 120.497 45.87 120.67C45.7233 120.837 45.54 120.957 45.32 121.03C45.1067 121.11 44.8533 121.15 44.56 121.15C44.1667 121.15 43.8267 121.05 43.54 120.85C43.26 120.643 43.0467 120.3 42.9 119.82L43.73 119.54C43.85 120.093 44.1267 120.37 44.56 120.37C44.7933 120.37 44.98 120.293 45.12 120.14C45.2667 119.987 45.34 119.727 45.34 119.36V114H46.3V119.01ZM49.728 116.33C49.168 116.33 48.8047 116.607 48.638 117.16L47.808 116.88C48.0747 115.993 48.7147 115.55 49.728 115.55C50.428 115.55 50.9314 115.727 51.238 116.08C51.5514 116.427 51.708 116.997 51.708 117.79V120.15C51.708 120.257 51.7314 120.33 51.778 120.37C51.8314 120.403 51.8947 120.42 51.968 120.42C52.0214 120.42 52.078 120.413 52.138 120.4C52.198 120.38 52.2547 120.357 52.308 120.33L52.468 120.95C52.3614 121.003 52.2447 121.05 52.118 121.09C51.9914 121.13 51.8514 121.15 51.698 121.15C51.458 121.15 51.2547 121.093 51.088 120.98C50.928 120.86 50.8314 120.633 50.798 120.3C50.698 120.407 50.5847 120.513 50.458 120.62C50.3314 120.72 50.1914 120.81 50.038 120.89C49.8914 120.97 49.7314 121.033 49.558 121.08C49.3914 121.127 49.2147 121.15 49.028 121.15C48.828 121.15 48.638 121.11 48.458 121.03C48.2847 120.957 48.1347 120.853 48.008 120.72C47.8814 120.587 47.7814 120.43 47.708 120.25C47.6347 120.063 47.598 119.863 47.598 119.65C47.598 119.103 47.7814 118.677 48.148 118.37C48.5214 118.063 49.0347 117.91 49.688 117.91C49.868 117.91 50.048 117.923 50.228 117.95C50.408 117.977 50.5814 118.017 50.748 118.07V117.44C50.748 117.093 50.658 116.823 50.478 116.63C50.298 116.43 50.048 116.33 49.728 116.33ZM49.318 120.37C49.5714 120.37 49.818 120.31 50.058 120.19C50.3047 120.063 50.5347 119.893 50.748 119.68V118.71C50.608 118.663 50.458 118.627 50.298 118.6C50.138 118.573 49.9814 118.56 49.828 118.56C49.6614 118.56 49.5014 118.577 49.348 118.61C49.1947 118.643 49.058 118.7 48.938 118.78C48.8247 118.86 48.7314 118.967 48.658 119.1C48.5914 119.227 48.558 119.383 48.558 119.57C48.558 119.79 48.628 119.98 48.768 120.14C48.908 120.293 49.0914 120.37 49.318 120.37ZM54.3319 115.7L54.3819 116.34C54.5885 116.133 54.8319 115.95 55.1119 115.79C55.3919 115.63 55.7052 115.55 56.0519 115.55C56.3652 115.55 56.6319 115.587 56.8519 115.66C57.0719 115.733 57.2485 115.85 57.3819 116.01C57.5219 116.163 57.6219 116.367 57.6819 116.62C57.7485 116.873 57.7819 117.18 57.7819 117.54V121H56.8219V117.44C56.8219 116.7 56.4852 116.33 55.8119 116.33C55.5785 116.33 55.3485 116.383 55.1219 116.49C54.8952 116.597 54.6819 116.743 54.4819 116.93V121H53.5219V115.7H54.3319ZM63.594 120.15C63.594 120.257 63.6173 120.33 63.664 120.37C63.7173 120.403 63.7807 120.42 63.854 120.42C63.9073 120.42 63.964 120.413 64.024 120.4C64.084 120.38 64.1407 120.357 64.194 120.33L64.354 120.95C64.2473 121.003 64.1307 121.05 64.004 121.09C63.8773 121.13 63.7373 121.15 63.584 121.15C63.3507 121.15 63.154 121.097 62.994 120.99C62.834 120.883 62.734 120.683 62.694 120.39C62.4873 120.59 62.234 120.767 61.934 120.92C61.6407 121.073 61.294 121.15 60.894 121.15C60.3673 121.15 59.984 120.993 59.744 120.68C59.504 120.36 59.384 119.897 59.384 119.29V115.7H60.344V119.3C60.344 119.66 60.4073 119.93 60.534 120.11C60.6607 120.283 60.874 120.37 61.174 120.37C61.4673 120.37 61.734 120.317 61.974 120.21C62.214 120.103 62.434 119.96 62.634 119.78V115.7H63.594V120.15ZM67.1359 116.33C66.5759 116.33 66.2125 116.607 66.0459 117.16L65.2159 116.88C65.4825 115.993 66.1225 115.55 67.1359 115.55C67.8359 115.55 68.3392 115.727 68.6459 116.08C68.9592 116.427 69.1159 116.997 69.1159 117.79V120.15C69.1159 120.257 69.1392 120.33 69.1859 120.37C69.2392 120.403 69.3025 120.42 69.3759 120.42C69.4292 120.42 69.4859 120.413 69.5459 120.4C69.6059 120.38 69.6625 120.357 69.7159 120.33L69.8759 120.95C69.7692 121.003 69.6525 121.05 69.5259 121.09C69.3992 121.13 69.2592 121.15 69.1059 121.15C68.8659 121.15 68.6625 121.093 68.4959 120.98C68.3359 120.86 68.2392 120.633 68.2059 120.3C68.1059 120.407 67.9925 120.513 67.8659 120.62C67.7392 120.72 67.5992 120.81 67.4459 120.89C67.2992 120.97 67.1392 121.033 66.9659 121.08C66.7992 121.127 66.6225 121.15 66.4359 121.15C66.2359 121.15 66.0459 121.11 65.8659 121.03C65.6925 120.957 65.5425 120.853 65.4159 120.72C65.2892 120.587 65.1892 120.43 65.1159 120.25C65.0425 120.063 65.0059 119.863 65.0059 119.65C65.0059 119.103 65.1892 118.677 65.5559 118.37C65.9292 118.063 66.4425 117.91 67.0959 117.91C67.2759 117.91 67.4559 117.923 67.6359 117.95C67.8159 117.977 67.9892 118.017 68.1559 118.07V117.44C68.1559 117.093 68.0659 116.823 67.8859 116.63C67.7059 116.43 67.4559 116.33 67.1359 116.33ZM66.7259 120.37C66.9792 120.37 67.2259 120.31 67.4659 120.19C67.7125 120.063 67.9425 119.893 68.1559 119.68V118.71C68.0159 118.663 67.8659 118.627 67.7059 118.6C67.5459 118.573 67.3892 118.56 67.2359 118.56C67.0692 118.56 66.9092 118.577 66.7559 118.61C66.6025 118.643 66.4659 118.7 66.3459 118.78C66.2325 118.86 66.1392 118.967 66.0659 119.1C65.9992 119.227 65.9659 119.383 65.9659 119.57C65.9659 119.79 66.0359 119.98 66.1759 120.14C66.3159 120.293 66.4992 120.37 66.7259 120.37ZM71.7397 115.7L71.7897 116.35C71.9964 116.117 72.243 115.93 72.5297 115.79C72.8164 115.643 73.1197 115.563 73.4397 115.55L73.4897 116.27L73.3697 116.38C73.0564 116.387 72.773 116.443 72.5197 116.55C72.273 116.65 72.063 116.79 71.8897 116.97V121H70.9297V115.7H71.7397ZM76.382 121.96C76.2154 122.48 76.0087 122.84 75.762 123.04C75.522 123.247 75.2254 123.35 74.872 123.35C74.5787 123.35 74.3087 123.283 74.062 123.15C73.8154 123.017 73.6154 122.873 73.462 122.72L73.932 122.12C74.0387 122.227 74.162 122.323 74.302 122.41C74.442 122.497 74.6087 122.54 74.802 122.54C75.0087 122.54 75.1754 122.48 75.302 122.36C75.4287 122.24 75.492 122.053 75.492 121.8C75.492 121.62 75.4687 121.397 75.422 121.13C75.3754 120.87 75.3054 120.6 75.212 120.32L73.732 115.7H74.722L76.112 120.3L77.502 115.7H78.392L76.382 121.96ZM81.5887 117.64H84.7087V118.34H81.5887V117.64ZM93.2227 121H92.2827L91.7327 119.09H89.1827L88.6427 121H87.7027L89.7027 114H91.2227L93.2227 121ZM89.4127 118.31H91.5127L90.4627 114.63L89.4127 118.31ZM98.283 120.15C98.283 120.257 98.3064 120.33 98.353 120.37C98.4064 120.403 98.4697 120.42 98.543 120.42C98.5964 120.42 98.653 120.413 98.713 120.4C98.773 120.38 98.8297 120.357 98.883 120.33L99.043 120.95C98.9364 121.003 98.8197 121.05 98.693 121.09C98.5664 121.13 98.4264 121.15 98.273 121.15C98.0397 121.15 97.843 121.097 97.683 120.99C97.523 120.883 97.423 120.683 97.383 120.39C97.1764 120.59 96.923 120.767 96.623 120.92C96.3297 121.073 95.983 121.15 95.583 121.15C95.0564 121.15 94.673 120.993 94.433 120.68C94.193 120.36 94.073 119.897 94.073 119.29V115.7H95.033V119.3C95.033 119.66 95.0964 119.93 95.223 120.11C95.3497 120.283 95.563 120.37 95.863 120.37C96.1564 120.37 96.423 120.317 96.663 120.21C96.903 120.103 97.123 119.96 97.323 119.78V115.7H98.283V120.15ZM102.765 120.3C102.992 120.3 103.208 120.327 103.415 120.38C103.622 120.427 103.805 120.507 103.965 120.62C104.125 120.733 104.252 120.88 104.345 121.06C104.438 121.24 104.485 121.46 104.485 121.72C104.485 122.233 104.282 122.633 103.875 122.92C103.468 123.207 102.865 123.35 102.065 123.35C100.452 123.35 99.6449 122.84 99.6449 121.82C99.6449 121.593 99.7116 121.383 99.8449 121.19C99.9783 120.997 100.155 120.84 100.375 120.72C100.135 120.5 100.015 120.197 100.015 119.81C100.015 119.61 100.055 119.42 100.135 119.24C100.215 119.06 100.342 118.903 100.515 118.77C100.202 118.437 100.045 118.003 100.045 117.47C100.045 117.17 100.095 116.9 100.195 116.66C100.302 116.42 100.445 116.22 100.625 116.06C100.805 115.893 101.018 115.767 101.265 115.68C101.512 115.593 101.782 115.55 102.075 115.55C102.402 115.55 102.705 115.607 102.985 115.72C103.138 115.713 103.272 115.647 103.385 115.52C103.498 115.393 103.555 115.16 103.555 114.82H103.755L104.335 115.02C104.335 115.367 104.272 115.63 104.145 115.81C104.025 115.983 103.858 116.107 103.645 116.18C103.792 116.34 103.905 116.53 103.985 116.75C104.072 116.963 104.115 117.203 104.115 117.47C104.115 117.77 104.062 118.04 103.955 118.28C103.855 118.513 103.712 118.713 103.525 118.88C103.345 119.04 103.128 119.163 102.875 119.25C102.628 119.337 102.362 119.38 102.075 119.38C101.662 119.38 101.302 119.3 100.995 119.14C100.915 119.213 100.852 119.303 100.805 119.41C100.765 119.51 100.745 119.613 100.745 119.72C100.745 119.887 100.802 120.027 100.915 120.14C101.028 120.247 101.205 120.3 101.445 120.3H102.765ZM100.965 117.47C100.965 117.683 100.998 117.87 101.065 118.03C101.132 118.183 101.215 118.31 101.315 118.41C101.422 118.51 101.542 118.583 101.675 118.63C101.808 118.677 101.942 118.7 102.075 118.7C102.208 118.7 102.342 118.677 102.475 118.63C102.608 118.583 102.728 118.51 102.835 118.41C102.942 118.31 103.028 118.183 103.095 118.03C103.162 117.87 103.195 117.683 103.195 117.47C103.195 117.25 103.162 117.063 103.095 116.91C103.028 116.75 102.942 116.62 102.835 116.52C102.728 116.42 102.608 116.347 102.475 116.3C102.342 116.253 102.208 116.23 102.075 116.23C101.942 116.23 101.808 116.253 101.675 116.3C101.542 116.347 101.422 116.42 101.315 116.52C101.215 116.62 101.132 116.75 101.065 116.91C100.998 117.063 100.965 117.25 100.965 117.47ZM101.525 121.08C101.298 121.08 101.088 121.053 100.895 121C100.802 121.1 100.715 121.213 100.635 121.34C100.562 121.473 100.525 121.617 100.525 121.77C100.525 122.33 101.038 122.61 102.065 122.61C102.585 122.61 102.972 122.54 103.225 122.4C103.478 122.267 103.605 122.043 103.605 121.73C103.605 121.59 103.575 121.477 103.515 121.39C103.462 121.31 103.392 121.247 103.305 121.2C103.225 121.153 103.132 121.12 103.025 121.1C102.925 121.087 102.825 121.08 102.725 121.08H101.525ZM109.641 120.15C109.641 120.257 109.664 120.33 109.711 120.37C109.764 120.403 109.828 120.42 109.901 120.42C109.954 120.42 110.011 120.413 110.071 120.4C110.131 120.38 110.188 120.357 110.241 120.33L110.401 120.95C110.294 121.003 110.178 121.05 110.051 121.09C109.924 121.13 109.784 121.15 109.631 121.15C109.398 121.15 109.201 121.097 109.041 120.99C108.881 120.883 108.781 120.683 108.741 120.39C108.534 120.59 108.281 120.767 107.981 120.92C107.688 121.073 107.341 121.15 106.941 121.15C106.414 121.15 106.031 120.993 105.791 120.68C105.551 120.36 105.431 119.897 105.431 119.29V115.7H106.391V119.3C106.391 119.66 106.454 119.93 106.581 120.11C106.708 120.283 106.921 120.37 107.221 120.37C107.514 120.37 107.781 120.317 108.021 120.21C108.261 120.103 108.481 119.96 108.681 119.78V115.7H109.641V120.15ZM113.063 116.28C112.809 116.28 112.596 116.337 112.423 116.45C112.249 116.563 112.163 116.737 112.163 116.97C112.163 117.157 112.229 117.313 112.363 117.44C112.496 117.56 112.663 117.67 112.863 117.77C113.063 117.87 113.276 117.97 113.503 118.07C113.736 118.17 113.953 118.29 114.153 118.43C114.353 118.563 114.519 118.73 114.653 118.93C114.786 119.123 114.853 119.37 114.853 119.67C114.853 120.117 114.689 120.477 114.363 120.75C114.036 121.017 113.583 121.15 113.003 121.15C112.429 121.15 111.989 121.017 111.683 120.75C111.383 120.477 111.176 120.1 111.063 119.62L111.893 119.34C111.926 119.56 111.979 119.74 112.053 119.88C112.133 120.02 112.226 120.13 112.333 120.21C112.439 120.29 112.556 120.347 112.683 120.38C112.809 120.407 112.939 120.42 113.073 120.42C113.299 120.42 113.499 120.367 113.673 120.26C113.846 120.147 113.933 119.973 113.933 119.74C113.933 119.567 113.866 119.423 113.733 119.31C113.599 119.197 113.433 119.09 113.233 118.99C113.033 118.89 112.816 118.79 112.583 118.69C112.356 118.583 112.143 118.457 111.943 118.31C111.743 118.163 111.576 117.987 111.443 117.78C111.309 117.567 111.243 117.303 111.243 116.99C111.243 116.837 111.273 116.677 111.333 116.51C111.393 116.337 111.493 116.18 111.633 116.04C111.779 115.9 111.969 115.783 112.203 115.69C112.443 115.597 112.736 115.55 113.083 115.55C113.543 115.55 113.923 115.653 114.223 115.86C114.529 116.06 114.749 116.4 114.883 116.88L114.053 117.16C113.979 116.887 113.859 116.673 113.693 116.52C113.526 116.36 113.316 116.28 113.063 116.28ZM115.716 115.7H116.476V114.6L117.236 114.4H117.436V115.7H118.836V116.4H117.436V119.86C117.436 120.18 117.593 120.34 117.906 120.34C118.113 120.34 118.369 120.247 118.676 120.06L118.936 120.66C118.736 120.813 118.509 120.933 118.256 121.02C118.009 121.107 117.776 121.15 117.556 121.15C117.203 121.15 116.933 121.033 116.746 120.8C116.566 120.56 116.476 120.213 116.476 119.76V116.4H115.716V115.7ZM122.186 121V120.6C122.186 120.28 122.266 119.983 122.426 119.71C122.586 119.43 122.783 119.17 123.016 118.93C123.256 118.683 123.516 118.447 123.796 118.22C124.076 117.987 124.333 117.757 124.566 117.53C124.806 117.303 125.006 117.073 125.166 116.84C125.326 116.6 125.406 116.343 125.406 116.07C125.406 115.923 125.376 115.787 125.316 115.66C125.263 115.533 125.186 115.423 125.086 115.33C124.986 115.23 124.866 115.153 124.726 115.1C124.593 115.047 124.446 115.02 124.286 115.02C123.926 115.02 123.646 115.12 123.446 115.32C123.253 115.513 123.113 115.847 123.026 116.32L122.156 116.11C122.263 115.543 122.486 115.093 122.826 114.76C123.166 114.42 123.619 114.25 124.186 114.25C124.593 114.25 124.933 114.303 125.206 114.41C125.486 114.51 125.709 114.643 125.876 114.81C126.043 114.977 126.163 115.163 126.236 115.37C126.309 115.577 126.349 115.783 126.356 115.99C126.356 116.31 126.289 116.607 126.156 116.88C126.029 117.153 125.866 117.41 125.666 117.65C125.466 117.89 125.243 118.117 124.996 118.33C124.749 118.543 124.509 118.753 124.276 118.96C124.043 119.16 123.829 119.363 123.636 119.57C123.449 119.777 123.309 119.993 123.216 120.22H126.416V121H122.186ZM127.539 117.69C127.539 117.123 127.602 116.627 127.729 116.2C127.856 115.767 128.029 115.407 128.249 115.12C128.476 114.833 128.742 114.617 129.049 114.47C129.356 114.323 129.689 114.25 130.049 114.25C130.409 114.25 130.742 114.323 131.049 114.47C131.356 114.617 131.619 114.833 131.839 115.12C132.066 115.407 132.242 115.767 132.369 116.2C132.502 116.627 132.569 117.123 132.569 117.69C132.569 118.263 132.502 118.767 132.369 119.2C132.242 119.627 132.066 119.987 131.839 120.28C131.619 120.567 131.356 120.783 131.049 120.93C130.742 121.077 130.409 121.15 130.049 121.15C129.689 121.15 129.356 121.077 129.049 120.93C128.742 120.783 128.476 120.567 128.249 120.28C128.029 119.987 127.856 119.627 127.729 119.2C127.602 118.767 127.539 118.263 127.539 117.69ZM128.509 117.69C128.509 118.143 128.546 118.54 128.619 118.88C128.699 119.213 128.806 119.49 128.939 119.71C129.079 119.93 129.242 120.097 129.429 120.21C129.616 120.317 129.822 120.37 130.049 120.37C130.502 120.37 130.872 120.153 131.159 119.72C131.452 119.28 131.599 118.603 131.599 117.69C131.599 116.79 131.452 116.123 131.159 115.69C130.872 115.25 130.502 115.03 130.049 115.03C129.596 115.03 129.226 115.25 128.939 115.69C128.652 116.123 128.509 116.79 128.509 117.69ZM133.72 121V120.6C133.72 120.28 133.8 119.983 133.96 119.71C134.12 119.43 134.316 119.17 134.55 118.93C134.79 118.683 135.05 118.447 135.33 118.22C135.61 117.987 135.866 117.757 136.1 117.53C136.34 117.303 136.54 117.073 136.7 116.84C136.86 116.6 136.94 116.343 136.94 116.07C136.94 115.923 136.91 115.787 136.85 115.66C136.796 115.533 136.72 115.423 136.62 115.33C136.52 115.23 136.4 115.153 136.26 115.1C136.126 115.047 135.98 115.02 135.82 115.02C135.46 115.02 135.18 115.12 134.98 115.32C134.786 115.513 134.646 115.847 134.56 116.32L133.69 116.11C133.796 115.543 134.02 115.093 134.36 114.76C134.7 114.42 135.153 114.25 135.72 114.25C136.126 114.25 136.466 114.303 136.74 114.41C137.02 114.51 137.243 114.643 137.41 114.81C137.576 114.977 137.696 115.163 137.77 115.37C137.843 115.577 137.883 115.783 137.89 115.99C137.89 116.31 137.823 116.607 137.69 116.88C137.563 117.153 137.4 117.41 137.2 117.65C137 117.89 136.776 118.117 136.53 118.33C136.283 118.543 136.043 118.753 135.81 118.96C135.576 119.16 135.363 119.363 135.17 119.57C134.983 119.777 134.843 119.993 134.75 120.22H137.95V121H133.72ZM141.583 114.4V120.22H142.683V121H139.523V120.22H140.623V115.89C140.336 116.17 139.949 116.383 139.463 116.53L139.173 115.73C139.346 115.677 139.519 115.603 139.693 115.51C139.873 115.417 140.039 115.31 140.193 115.19C140.346 115.07 140.476 114.943 140.583 114.81C140.696 114.677 140.776 114.54 140.823 114.4H141.583Z" fill="#78B0F9"/>
<path d="M49.804 105H48.676L48.016 102.708H44.956L44.308 105H43.18L45.58 96.6H47.404L49.804 105ZM45.232 101.772H47.752L46.492 97.356L45.232 101.772ZM51.9164 98.64L51.9764 99.408C52.2244 99.16 52.5164 98.94 52.8524 98.748C53.1884 98.556 53.5644 98.46 53.9804 98.46C54.3564 98.46 54.6764 98.504 54.9404 98.592C55.2044 98.68 55.4164 98.82 55.5764 99.012C55.7444 99.196 55.8644 99.44 55.9364 99.744C56.0164 100.048 56.0564 100.416 56.0564 100.848V105H54.9044V100.728C54.9044 99.84 54.5004 99.396 53.6924 99.396C53.4124 99.396 53.1364 99.46 52.8644 99.588C52.5924 99.716 52.3364 99.892 52.0964 100.116V105H50.9444V98.64H51.9164ZM60.1149 99.396C59.4429 99.396 59.0069 99.728 58.8069 100.392L57.8109 100.056C58.1309 98.992 58.8989 98.46 60.1149 98.46C60.9549 98.46 61.5589 98.672 61.9269 99.096C62.3029 99.512 62.4909 100.196 62.4909 101.148V103.98C62.4909 104.108 62.5189 104.196 62.5749 104.244C62.6389 104.284 62.7149 104.304 62.8029 104.304C62.8669 104.304 62.9349 104.296 63.0069 104.28C63.0789 104.256 63.1469 104.228 63.2109 104.196L63.4029 104.94C63.2749 105.004 63.1349 105.06 62.9829 105.108C62.8309 105.156 62.6629 105.18 62.4789 105.18C62.1909 105.18 61.9469 105.112 61.7469 104.976C61.5549 104.832 61.4389 104.56 61.3989 104.16C61.2789 104.288 61.1429 104.416 60.9909 104.544C60.8389 104.664 60.6709 104.772 60.4869 104.868C60.3109 104.964 60.1189 105.04 59.9109 105.096C59.7109 105.152 59.4989 105.18 59.2749 105.18C59.0349 105.18 58.8069 105.132 58.5909 105.036C58.3829 104.948 58.2029 104.824 58.0509 104.664C57.8989 104.504 57.7789 104.316 57.6909 104.1C57.6029 103.876 57.5589 103.636 57.5589 103.38C57.5589 102.724 57.7789 102.212 58.2189 101.844C58.6669 101.476 59.2829 101.292 60.0669 101.292C60.2829 101.292 60.4989 101.308 60.7149 101.34C60.9309 101.372 61.1389 101.42 61.3389 101.484V100.728C61.3389 100.312 61.2309 99.988 61.0149 99.756C60.7989 99.516 60.4989 99.396 60.1149 99.396ZM59.6229 104.244C59.9269 104.244 60.2229 104.172 60.5109 104.028C60.8069 103.876 61.0829 103.672 61.3389 103.416V102.252C61.1709 102.196 60.9909 102.152 60.7989 102.12C60.6069 102.088 60.4189 102.072 60.2349 102.072C60.0349 102.072 59.8429 102.092 59.6589 102.132C59.4749 102.172 59.3109 102.24 59.1669 102.336C59.0309 102.432 58.9189 102.56 58.8309 102.72C58.7509 102.872 58.7109 103.06 58.7109 103.284C58.7109 103.548 58.7949 103.776 58.9629 103.968C59.1309 104.152 59.3509 104.244 59.6229 104.244ZM65.8195 103.98C65.8195 104.108 65.8435 104.196 65.8915 104.244C65.9475 104.284 66.0195 104.304 66.1075 104.304C66.1715 104.304 66.2435 104.296 66.3235 104.28C66.4035 104.256 66.4755 104.228 66.5395 104.196L66.7315 104.94C66.6035 105.004 66.4635 105.06 66.3115 105.108C66.1595 105.156 65.9915 105.18 65.8075 105.18C65.6475 105.18 65.4995 105.16 65.3635 105.12C65.2275 105.088 65.1075 105.024 65.0035 104.928C64.8995 104.832 64.8155 104.704 64.7515 104.544C64.6955 104.384 64.6675 104.184 64.6675 103.944V96H65.8195V103.98ZM70.3783 106.152C70.1783 106.776 69.9303 107.208 69.6343 107.448C69.3463 107.696 68.9903 107.82 68.5663 107.82C68.2143 107.82 67.8903 107.74 67.5943 107.58C67.2983 107.42 67.0583 107.248 66.8743 107.064L67.4383 106.344C67.5663 106.472 67.7143 106.588 67.8823 106.692C68.0503 106.796 68.2503 106.848 68.4823 106.848C68.7303 106.848 68.9303 106.776 69.0823 106.632C69.2343 106.488 69.3103 106.264 69.3103 105.96C69.3103 105.744 69.2823 105.476 69.2263 105.156C69.1703 104.844 69.0863 104.52 68.9743 104.184L67.1983 98.64H68.3863L70.0543 104.16L71.7223 98.64H72.7903L70.3783 106.152ZM76.0439 99.336C75.7399 99.336 75.4839 99.404 75.2759 99.54C75.0679 99.676 74.9639 99.884 74.9639 100.164C74.9639 100.388 75.0439 100.576 75.2039 100.728C75.3639 100.872 75.5639 101.004 75.8039 101.124C76.0439 101.244 76.2999 101.364 76.5719 101.484C76.8519 101.604 77.1119 101.748 77.3519 101.916C77.5919 102.076 77.7919 102.276 77.9519 102.516C78.1119 102.748 78.1919 103.044 78.1919 103.404C78.1919 103.94 77.9959 104.372 77.6039 104.7C77.2119 105.02 76.6679 105.18 75.9719 105.18C75.2839 105.18 74.7559 105.02 74.3879 104.7C74.0279 104.372 73.7799 103.92 73.6439 103.344L74.6399 103.008C74.6799 103.272 74.7439 103.488 74.8319 103.656C74.9279 103.824 75.0399 103.956 75.1679 104.052C75.2959 104.148 75.4359 104.216 75.5879 104.256C75.7399 104.288 75.8959 104.304 76.0559 104.304C76.3279 104.304 76.5679 104.24 76.7759 104.112C76.9839 103.976 77.0879 103.768 77.0879 103.488C77.0879 103.28 77.0079 103.108 76.8479 102.972C76.6879 102.836 76.4879 102.708 76.2479 102.588C76.0079 102.468 75.7479 102.348 75.4679 102.228C75.1959 102.1 74.9399 101.948 74.6999 101.772C74.4599 101.596 74.2599 101.384 74.0999 101.136C73.9399 100.88 73.8599 100.564 73.8599 100.188C73.8599 100.004 73.8959 99.812 73.9679 99.612C74.0399 99.404 74.1599 99.216 74.3279 99.048C74.5039 98.88 74.7319 98.74 75.0119 98.628C75.2999 98.516 75.6519 98.46 76.0679 98.46C76.6199 98.46 77.0759 98.584 77.4359 98.832C77.8039 99.072 78.0679 99.48 78.2279 100.056L77.2319 100.392C77.1439 100.064 76.9999 99.808 76.7999 99.624C76.5999 99.432 76.3479 99.336 76.0439 99.336ZM79.2278 98.64H80.1398V97.32L81.0518 97.08H81.2918V98.64H82.9718V99.48H81.2918V103.632C81.2918 104.016 81.4798 104.208 81.8558 104.208C82.1038 104.208 82.4118 104.096 82.7798 103.872L83.0918 104.592C82.8518 104.776 82.5798 104.92 82.2758 105.024C81.9798 105.128 81.6998 105.18 81.4358 105.18C81.0118 105.18 80.6878 105.04 80.4638 104.76C80.2478 104.472 80.1398 104.056 80.1398 103.512V99.48H79.2278V98.64ZM88.4437 105H87.2917V96.6H88.4437V105ZM91.5745 98.64L91.6345 99.408C91.8825 99.16 92.1745 98.94 92.5105 98.748C92.8465 98.556 93.2225 98.46 93.6385 98.46C94.0145 98.46 94.3345 98.504 94.5985 98.592C94.8625 98.68 95.0745 98.82 95.2345 99.012C95.4025 99.196 95.5225 99.44 95.5945 99.744C95.6745 100.048 95.7145 100.416 95.7145 100.848V105H94.5625V100.728C94.5625 99.84 94.1585 99.396 93.3505 99.396C93.0705 99.396 92.7945 99.46 92.5225 99.588C92.2505 99.716 91.9945 99.892 91.7545 100.116V105H90.6025V98.64H91.5745ZM97.217 98.64H98.129V97.32L99.041 97.08H99.281V98.64H100.961V99.48H99.281V103.632C99.281 104.016 99.469 104.208 99.845 104.208C100.093 104.208 100.401 104.096 100.769 103.872L101.081 104.592C100.841 104.776 100.569 104.92 100.265 105.024C99.969 105.128 99.689 105.18 99.425 105.18C99.001 105.18 98.677 105.04 98.453 104.76C98.237 104.472 98.129 104.056 98.129 103.512V99.48H97.217V98.64ZM104.903 104.244C105.311 104.244 105.663 104.168 105.959 104.016C106.263 103.856 106.507 103.688 106.691 103.512L107.207 104.136C106.959 104.416 106.635 104.66 106.235 104.868C105.835 105.076 105.379 105.18 104.867 105.18C104.443 105.18 104.051 105.112 103.691 104.976C103.331 104.832 103.019 104.62 102.755 104.34C102.499 104.052 102.295 103.7 102.143 103.284C101.999 102.86 101.927 102.372 101.927 101.82C101.927 101.268 101.999 100.784 102.143 100.368C102.287 99.944 102.487 99.592 102.743 99.312C102.999 99.024 103.299 98.812 103.643 98.676C103.995 98.532 104.375 98.46 104.783 98.46C105.159 98.46 105.503 98.52 105.815 98.64C106.135 98.752 106.407 98.928 106.631 99.168C106.855 99.408 107.027 99.708 107.147 100.068C107.275 100.42 107.339 100.836 107.339 101.316V102.156H103.139C103.187 102.868 103.371 103.396 103.691 103.74C104.019 104.076 104.423 104.244 104.903 104.244ZM104.795 99.396C104.363 99.396 103.995 99.556 103.691 99.876C103.395 100.188 103.215 100.668 103.151 101.316H106.199C106.199 100.7 106.075 100.228 105.827 99.9C105.587 99.564 105.243 99.396 104.795 99.396ZM110.108 98.64L110.168 99.42C110.416 99.14 110.712 98.916 111.056 98.748C111.4 98.572 111.764 98.476 112.148 98.46L112.208 99.324L112.064 99.456C111.688 99.464 111.348 99.532 111.044 99.66C110.748 99.78 110.496 99.948 110.288 100.164V105H109.136V98.64H110.108ZM114.251 98.64L114.311 99.408C114.559 99.16 114.851 98.94 115.187 98.748C115.523 98.556 115.899 98.46 116.315 98.46C116.691 98.46 117.011 98.504 117.275 98.592C117.539 98.68 117.751 98.82 117.911 99.012C118.079 99.196 118.199 99.44 118.271 99.744C118.351 100.048 118.391 100.416 118.391 100.848V105H117.239V100.728C117.239 99.84 116.835 99.396 116.027 99.396C115.747 99.396 115.471 99.46 115.199 99.588C114.927 99.716 114.671 99.892 114.431 100.116V105H113.279V98.64H114.251Z" fill="#A6ADB8"/>
</g>
<g filter="url(#filter1_dddd_141_141)">
<ellipse cx="138" cy="10.199" rx="10" ry="10.199" fill="white"/>
</g>
<defs>
<filter id="filter0_d_141_141" x="7" y="10" width="258" height="175" filterUnits="userSpaceOnUse" color-interpolation-filters="sRGB">
<feFlood flood-opacity="0" result="BackgroundImageFix"/>
<feColorMatrix in="SourceAlpha" type="matrix" values="0 0 0 0 0 0 0 0 0 0 0 0 0 0 0 0 0 0 127 0" result="hardAlpha"/>
<feOffset dy="4"/>
<feGaussianBlur stdDeviation="2"/>
<feComposite in2="hardAlpha" operator="out"/>
<feColorMatrix type="matrix" values="0 0 0 0 0 0 0 0 0 0 0 0 0 0 0 0 0 0 0.25 0"/>
<feBlend mode="normal" in2="BackgroundImageFix" result="effect1_dropShadow_141_141"/>
<feBlend mode="normal" in="SourceGraphic" in2="effect1_dropShadow_141_141" result="shape"/>
</filter>
<filter id="filter1_dddd_141_141" x="124" y="0" width="28" height="28.3979" filterUnits="userSpaceOnUse" color-interpolation-filters="sRGB">
<feFlood flood-opacity="0" result="BackgroundImageFix"/>
<feColorMatrix in="SourceAlpha" type="matrix" values="0 0 0 0 0 0 0 0 0 0 0 0 0 0 0 0 0 0 127 0" result="hardAlpha"/>
<feOffset dy="4"/>
<feGaussianBlur stdDeviation="2"/>
<feComposite in2="hardAlpha" operator="out"/>
<feColorMatrix type="matrix" values="0 0 0 0 0 0 0 0 0 0 0 0 0 0 0 0 0 0 0.25 0"/>
<feBlend mode="normal" in2="BackgroundImageFix" result="effect1_dropShadow_141_141"/>
<feColorMatrix in="SourceAlpha" type="matrix" values="0 0 0 0 0 0 0 0 0 0 0 0 0 0 0 0 0 0 127 0" result="hardAlpha"/>
<feOffset dy="4"/>
<feGaussianBlur stdDeviation="2"/>
<feComposite in2="hardAlpha" operator="out"/>
<feColorMatrix type="matrix" values="0 0 0 0 0 0 0 0 0 0 0 0 0 0 0 0 0 0 0.25 0"/>
<feBlend mode="normal" in2="effect1_dropShadow_141_141" result="effect2_dropShadow_141_141"/>
<feColorMatrix in="SourceAlpha" type="matrix" values="0 0 0 0 0 0 0 0 0 0 0 0 0 0 0 0 0 0 127 0" result="hardAlpha"/>
<feOffset dy="4"/>
<feGaussianBlur stdDeviation="2"/>
<feComposite in2="hardAlpha" operator="out"/>
<feColorMatrix type="matrix" values="0 0 0 0 0 0 0 0 0 0 0 0 0 0 0 0 0 0 0.25 0"/>
<feBlend mode="normal" in2="effect2_dropShadow_141_141" result="effect3_dropShadow_141_141"/>
<feColorMatrix in="SourceAlpha" type="matrix" values="0 0 0 0 0 0 0 0 0 0 0 0 0 0 0 0 0 0 127 0" result="hardAlpha"/>
<feOffset dy="4"/>
<feGaussianBlur stdDeviation="2"/>
<feComposite in2="hardAlpha" operator="out"/>
<feColorMatrix type="matrix" values="0 0 0 0 0 0 0 0 0 0 0 0 0 0 0 0 0 0 0.25 0"/>
<feBlend mode="normal" in2="effect3_dropShadow_141_141" result="effect4_dropShadow_141_141"/>
<feBlend mode="normal" in="SourceGraphic" in2="effect4_dropShadow_141_141" result="shape"/>
</filter>
<clipPath id="clip0_141_141">
<rect width="270" height="137.319" fill="white" transform="translate(0 10.2786)"/>
</clipPath>
</defs>
</svg>
