<svg width="270" height="185" viewBox="0 0 270 185" fill="none" xmlns="http://www.w3.org/2000/svg">
<g filter="url(#filter0_d_141_125)">
<rect x="11" y="10" width="250" height="167" fill="#1A2E4A"/>
</g>
<g clip-path="url(#clip0_141_125)">
<path d="M51.36 73.0186C51.36 72.4852 51.1867 72.0452 50.84 71.6986C50.4933 71.3519 50.06 71.0452 49.54 70.7786C49.0333 70.5119 48.4733 70.2519 47.86 69.9986C47.26 69.7452 46.7 69.4386 46.18 69.0786C45.6733 68.7186 45.2467 68.2786 44.9 67.7586C44.5533 67.2252 44.38 66.5519 44.38 65.7386C44.38 65.3386 44.4533 64.9186 44.6 64.4786C44.76 64.0386 45.0133 63.6319 45.36 63.2586C45.7067 62.8852 46.16 62.5786 46.72 62.3386C47.2933 62.0986 48 61.9786 48.84 61.9786C49.9467 61.9786 50.8667 62.2186 51.6 62.6986C52.3467 63.1652 52.88 63.9386 53.2 65.0186L51.46 65.6386C51.2333 64.9852 50.88 64.4719 50.4 64.0986C49.92 63.7252 49.3133 63.5386 48.58 63.5386C47.9 63.5386 47.3467 63.7186 46.92 64.0786C46.5067 64.4386 46.3 64.9386 46.3 65.5786C46.3 66.1252 46.4733 66.5786 46.82 66.9386C47.1667 67.2852 47.5933 67.5986 48.1 67.8786C48.62 68.1452 49.18 68.4052 49.78 68.6586C50.3933 68.9119 50.9533 69.2119 51.46 69.5586C51.98 69.8919 52.4133 70.3052 52.76 70.7986C53.1067 71.2786 53.28 71.8919 53.28 72.6386C53.28 73.0519 53.2 73.4919 53.04 73.9586C52.88 74.4119 52.62 74.8386 52.26 75.2386C51.9 75.6252 51.42 75.9452 50.82 76.1986C50.2333 76.4519 49.5 76.5786 48.62 76.5786C47.4333 76.5786 46.44 76.2919 45.64 75.7186C44.8533 75.1319 44.2933 74.1786 43.96 72.8586L45.68 72.2386C46.1467 74.0919 47.1867 75.0186 48.8 75.0186C49.5467 75.0186 50.16 74.8319 50.64 74.4586C51.12 74.0719 51.36 73.5919 51.36 73.0186ZM55.0281 65.6786H56.5481V63.4786L58.0681 63.0786H58.4681V65.6786H61.2681V67.0786H58.4681V73.9986C58.4681 74.6386 58.7815 74.9586 59.4081 74.9586C59.8215 74.9586 60.3348 74.7719 60.9481 74.3986L61.4681 75.5986C61.0681 75.9052 60.6148 76.1452 60.1081 76.3186C59.6148 76.4919 59.1481 76.5786 58.7081 76.5786C58.0015 76.5786 57.4615 76.3452 57.0881 75.8786C56.7281 75.3986 56.5481 74.7052 56.5481 73.7986V67.0786H55.0281V65.6786ZM66.8373 66.9386C65.7173 66.9386 64.9907 67.4919 64.6573 68.5986L62.9973 68.0386C63.5307 66.2652 64.8107 65.3786 66.8373 65.3786C68.2373 65.3786 69.244 65.7319 69.8573 66.4386C70.484 67.1319 70.7973 68.2719 70.7973 69.8586V74.5786C70.7973 74.7919 70.844 74.9386 70.9373 75.0186C71.044 75.0852 71.1707 75.1186 71.3173 75.1186C71.424 75.1186 71.5373 75.1052 71.6573 75.0786C71.7773 75.0386 71.8907 74.9919 71.9973 74.9386L72.3173 76.1786C72.104 76.2852 71.8707 76.3786 71.6173 76.4586C71.364 76.5386 71.084 76.5786 70.7773 76.5786C70.2973 76.5786 69.8907 76.4652 69.5573 76.2386C69.2373 75.9986 69.044 75.5452 68.9773 74.8786C68.7773 75.0919 68.5507 75.3052 68.2973 75.5186C68.044 75.7186 67.764 75.8986 67.4573 76.0586C67.164 76.2186 66.844 76.3452 66.4973 76.4386C66.164 76.5319 65.8107 76.5786 65.4373 76.5786C65.0373 76.5786 64.6573 76.4986 64.2973 76.3386C63.9507 76.1919 63.6507 75.9852 63.3973 75.7186C63.144 75.4519 62.944 75.1386 62.7973 74.7786C62.6507 74.4052 62.5773 74.0052 62.5773 73.5786C62.5773 72.4852 62.944 71.6319 63.6773 71.0186C64.424 70.4052 65.4507 70.0986 66.7573 70.0986C67.1173 70.0986 67.4773 70.1252 67.8373 70.1786C68.1973 70.2319 68.544 70.3119 68.8773 70.4186V69.1586C68.8773 68.4652 68.6973 67.9252 68.3373 67.5386C67.9773 67.1386 67.4773 66.9386 66.8373 66.9386ZM66.0173 75.0186C66.524 75.0186 67.0173 74.8986 67.4973 74.6586C67.9907 74.4052 68.4507 74.0652 68.8773 73.6386V71.6986C68.5973 71.6052 68.2973 71.5319 67.9773 71.4786C67.6573 71.4252 67.344 71.3986 67.0373 71.3986C66.704 71.3986 66.384 71.4319 66.0773 71.4986C65.7707 71.5652 65.4973 71.6786 65.2573 71.8386C65.0307 71.9986 64.844 72.2119 64.6973 72.4786C64.564 72.7319 64.4973 73.0452 64.4973 73.4186C64.4973 73.8586 64.6373 74.2386 64.9173 74.5586C65.1973 74.8652 65.564 75.0186 66.0173 75.0186ZM73.525 65.6786H75.045V63.4786L76.565 63.0786H76.965V65.6786H79.765V67.0786H76.965V73.9986C76.965 74.6386 77.2783 74.9586 77.905 74.9586C78.3183 74.9586 78.8317 74.7719 79.445 74.3986L79.965 75.5986C79.565 75.9052 79.1117 76.1452 78.605 76.3186C78.1117 76.4919 77.645 76.5786 77.205 76.5786C76.4983 76.5786 75.9583 76.3452 75.585 75.8786C75.225 75.3986 75.045 74.7052 75.045 73.7986V67.0786H73.525V65.6786ZM86.3342 75.0186C87.0142 75.0186 87.6009 74.8919 88.0942 74.6386C88.6009 74.3719 89.0076 74.0919 89.3142 73.7986L90.1742 74.8386C89.7609 75.3052 89.2209 75.7119 88.5542 76.0586C87.8876 76.4052 87.1276 76.5786 86.2742 76.5786C85.5676 76.5786 84.9142 76.4652 84.3142 76.2386C83.7142 75.9986 83.1942 75.6452 82.7542 75.1786C82.3276 74.6986 81.9876 74.1119 81.7342 73.4186C81.4942 72.7119 81.3742 71.8986 81.3742 70.9786C81.3742 70.0586 81.4942 69.2519 81.7342 68.5586C81.9742 67.8519 82.3076 67.2652 82.7342 66.7986C83.1609 66.3186 83.6609 65.9652 84.2342 65.7386C84.8209 65.4986 85.4542 65.3786 86.1342 65.3786C86.7609 65.3786 87.3342 65.4786 87.8542 65.6786C88.3876 65.8652 88.8409 66.1586 89.2142 66.5586C89.5876 66.9586 89.8742 67.4586 90.0742 68.0586C90.2876 68.6452 90.3942 69.3386 90.3942 70.1386V71.5386H83.3942C83.4742 72.7252 83.7809 73.6052 84.3142 74.1786C84.8609 74.7386 85.5342 75.0186 86.3342 75.0186ZM86.1542 66.9386C85.4342 66.9386 84.8209 67.2052 84.3142 67.7386C83.8209 68.2586 83.5209 69.0586 83.4142 70.1386H88.4942C88.4942 69.1119 88.2876 68.3252 87.8742 67.7786C87.4742 67.2186 86.9009 66.9386 86.1542 66.9386ZM105.781 63.8386H100.301V68.4986H105.181V70.0586H100.301V76.2786H98.3812V62.2786H105.781V63.8386ZM111.146 66.9386C110.026 66.9386 109.299 67.4919 108.966 68.5986L107.306 68.0386C107.839 66.2652 109.119 65.3786 111.146 65.3786C112.546 65.3786 113.553 65.7319 114.166 66.4386C114.793 67.1319 115.106 68.2719 115.106 69.8586V74.5786C115.106 74.7919 115.153 74.9386 115.246 75.0186C115.353 75.0852 115.479 75.1186 115.626 75.1186C115.733 75.1186 115.846 75.1052 115.966 75.0786C116.086 75.0386 116.199 74.9919 116.306 74.9386L116.626 76.1786C116.413 76.2852 116.179 76.3786 115.926 76.4586C115.673 76.5386 115.393 76.5786 115.086 76.5786C114.606 76.5786 114.199 76.4652 113.866 76.2386C113.546 75.9986 113.353 75.5452 113.286 74.8786C113.086 75.0919 112.859 75.3052 112.606 75.5186C112.353 75.7186 112.073 75.8986 111.766 76.0586C111.473 76.2186 111.153 76.3452 110.806 76.4386C110.473 76.5319 110.119 76.5786 109.746 76.5786C109.346 76.5786 108.966 76.4986 108.606 76.3386C108.259 76.1919 107.959 75.9852 107.706 75.7186C107.453 75.4519 107.253 75.1386 107.106 74.7786C106.959 74.4052 106.886 74.0052 106.886 73.5786C106.886 72.4852 107.253 71.6319 107.986 71.0186C108.733 70.4052 109.759 70.0986 111.066 70.0986C111.426 70.0986 111.786 70.1252 112.146 70.1786C112.506 70.2319 112.853 70.3119 113.186 70.4186V69.1586C113.186 68.4652 113.006 67.9252 112.646 67.5386C112.286 67.1386 111.786 66.9386 111.146 66.9386ZM110.326 75.0186C110.833 75.0186 111.326 74.8986 111.806 74.6586C112.299 74.4052 112.759 74.0652 113.186 73.6386V71.6986C112.906 71.6052 112.606 71.5319 112.286 71.4786C111.966 71.4252 111.653 71.3986 111.346 71.3986C111.013 71.3986 110.693 71.4319 110.386 71.4986C110.079 71.5652 109.806 71.6786 109.566 71.8386C109.339 71.9986 109.153 72.2119 109.006 72.4786C108.873 72.7319 108.806 73.0452 108.806 73.4186C108.806 73.8586 108.946 74.2386 109.226 74.5586C109.506 74.8652 109.873 75.0186 110.326 75.0186ZM120.354 65.6786L120.454 66.9786C120.867 66.5119 121.36 66.1386 121.934 65.8586C122.507 65.5652 123.114 65.4052 123.754 65.3786L123.854 66.8186L123.614 67.0386C122.987 67.0519 122.42 67.1652 121.914 67.3786C121.42 67.5786 121 67.8586 120.654 68.2186V76.2786H118.734V65.6786H120.354ZM127.258 65.6786L127.358 66.9186C127.745 66.5186 128.198 66.1652 128.718 65.8586C129.252 65.5386 129.838 65.3786 130.478 65.3786C131.292 65.3786 131.945 65.5119 132.438 65.7786C132.932 66.0452 133.292 66.4786 133.518 67.0786C133.905 66.6386 134.372 66.2452 134.918 65.8986C135.478 65.5519 136.098 65.3786 136.778 65.3786C137.378 65.3786 137.892 65.4519 138.318 65.5986C138.758 65.7452 139.112 65.9786 139.378 66.2986C139.645 66.6052 139.838 67.0119 139.958 67.5186C140.092 68.0252 140.158 68.6386 140.158 69.3586V76.2786H138.238V69.1586C138.238 67.6786 137.605 66.9386 136.338 66.9386C135.872 66.9386 135.425 67.0519 134.998 67.2786C134.572 67.4919 134.165 67.7919 133.778 68.1786C133.805 68.3652 133.825 68.5519 133.838 68.7386C133.852 68.9252 133.858 69.1319 133.858 69.3586V76.2786H131.938V69.1586C131.938 67.6786 131.305 66.9386 130.038 66.9386C129.598 66.9386 129.165 67.0452 128.738 67.2586C128.325 67.4719 127.932 67.7586 127.558 68.1186V76.2786H125.638V65.6786H127.258Z" fill="white"/>
<path d="M46.3 119.01C46.3 119.403 46.2633 119.737 46.19 120.01C46.1233 120.277 46.0167 120.497 45.87 120.67C45.7233 120.837 45.54 120.957 45.32 121.03C45.1067 121.11 44.8533 121.15 44.56 121.15C44.1667 121.15 43.8267 121.05 43.54 120.85C43.26 120.643 43.0467 120.3 42.9 119.82L43.73 119.54C43.85 120.093 44.1267 120.37 44.56 120.37C44.7933 120.37 44.98 120.293 45.12 120.14C45.2667 119.987 45.34 119.727 45.34 119.36V114H46.3V119.01ZM52.158 120.15C52.158 120.257 52.1814 120.33 52.228 120.37C52.2814 120.403 52.3447 120.42 52.418 120.42C52.4714 120.42 52.528 120.413 52.588 120.4C52.648 120.38 52.7047 120.357 52.758 120.33L52.918 120.95C52.8114 121.003 52.6947 121.05 52.568 121.09C52.4414 121.13 52.3014 121.15 52.148 121.15C51.9147 121.15 51.718 121.097 51.558 120.99C51.398 120.883 51.298 120.683 51.258 120.39C51.0514 120.59 50.798 120.767 50.498 120.92C50.2047 121.073 49.858 121.15 49.458 121.15C48.9314 121.15 48.548 120.993 48.308 120.68C48.068 120.36 47.948 119.897 47.948 119.29V115.7H48.908V119.3C48.908 119.66 48.9714 119.93 49.098 120.11C49.2247 120.283 49.438 120.37 49.738 120.37C50.0314 120.37 50.298 120.317 50.538 120.21C50.778 120.103 50.998 119.96 51.198 119.78V115.7H52.158V120.15ZM54.8299 115.7L54.8799 116.34C55.0866 116.133 55.3299 115.95 55.6099 115.79C55.8899 115.63 56.2033 115.55 56.5499 115.55C56.8633 115.55 57.1299 115.587 57.3499 115.66C57.5699 115.733 57.7466 115.85 57.8799 116.01C58.0199 116.163 58.1199 116.367 58.1799 116.62C58.2466 116.873 58.2799 117.18 58.2799 117.54V121H57.3199V117.44C57.3199 116.7 56.9833 116.33 56.3099 116.33C56.0766 116.33 55.8466 116.383 55.6199 116.49C55.3933 116.597 55.1799 116.743 54.9799 116.93V121H54.0199V115.7H54.8299ZM62.162 120.37C62.502 120.37 62.7954 120.307 63.042 120.18C63.2954 120.047 63.4987 119.907 63.652 119.76L64.082 120.28C63.8754 120.513 63.6054 120.717 63.272 120.89C62.9387 121.063 62.5587 121.15 62.132 121.15C61.7787 121.15 61.452 121.093 61.152 120.98C60.852 120.86 60.592 120.683 60.372 120.45C60.1587 120.21 59.9887 119.917 59.862 119.57C59.742 119.217 59.682 118.81 59.682 118.35C59.682 117.89 59.742 117.487 59.862 117.14C59.982 116.787 60.1487 116.493 60.362 116.26C60.5754 116.02 60.8254 115.843 61.112 115.73C61.4054 115.61 61.722 115.55 62.062 115.55C62.3754 115.55 62.662 115.6 62.922 115.7C63.1887 115.793 63.4154 115.94 63.602 116.14C63.7887 116.34 63.932 116.59 64.032 116.89C64.1387 117.183 64.192 117.53 64.192 117.93V118.63H60.692C60.732 119.223 60.8854 119.663 61.152 119.95C61.4254 120.23 61.762 120.37 62.162 120.37ZM62.072 116.33C61.712 116.33 61.4054 116.463 61.152 116.73C60.9054 116.99 60.7554 117.39 60.702 117.93H63.242C63.242 117.417 63.1387 117.023 62.932 116.75C62.732 116.47 62.4454 116.33 62.072 116.33ZM67.7355 117.64H70.8555V118.34H67.7355V117.64ZM76.9996 119.01C76.9996 119.403 76.9629 119.737 76.8896 120.01C76.8229 120.277 76.7163 120.497 76.5696 120.67C76.4229 120.837 76.2396 120.957 76.0196 121.03C75.8063 121.11 75.5529 121.15 75.2596 121.15C74.8663 121.15 74.5263 121.05 74.2396 120.85C73.9596 120.643 73.7463 120.3 73.5996 119.82L74.4296 119.54C74.5496 120.093 74.8263 120.37 75.2596 120.37C75.4929 120.37 75.6796 120.293 75.8196 120.14C75.9663 119.987 76.0396 119.727 76.0396 119.36V114H76.9996V119.01ZM82.8577 120.15C82.8577 120.257 82.881 120.33 82.9277 120.37C82.981 120.403 83.0443 120.42 83.1177 120.42C83.171 120.42 83.2277 120.413 83.2877 120.4C83.3477 120.38 83.4043 120.357 83.4577 120.33L83.6177 120.95C83.511 121.003 83.3943 121.05 83.2677 121.09C83.141 121.13 83.001 121.15 82.8477 121.15C82.6143 121.15 82.4177 121.097 82.2577 120.99C82.0977 120.883 81.9977 120.683 81.9577 120.39C81.751 120.59 81.4977 120.767 81.1977 120.92C80.9043 121.073 80.5577 121.15 80.1577 121.15C79.631 121.15 79.2477 120.993 79.0077 120.68C78.7677 120.36 78.6477 119.897 78.6477 119.29V115.7H79.6077V119.3C79.6077 119.66 79.671 119.93 79.7977 120.11C79.9243 120.283 80.1377 120.37 80.4377 120.37C80.731 120.37 80.9977 120.317 81.2377 120.21C81.4777 120.103 81.6977 119.96 81.8977 119.78V115.7H82.8577V120.15ZM85.6795 120.15C85.6795 120.257 85.6995 120.33 85.7395 120.37C85.7862 120.403 85.8462 120.42 85.9195 120.42C85.9729 120.42 86.0329 120.413 86.0995 120.4C86.1662 120.38 86.2262 120.357 86.2795 120.33L86.4395 120.95C86.3329 121.003 86.2162 121.05 86.0895 121.09C85.9629 121.13 85.8229 121.15 85.6695 121.15C85.5362 121.15 85.4129 121.133 85.2995 121.1C85.1862 121.073 85.0862 121.02 84.9995 120.94C84.9129 120.86 84.8429 120.753 84.7895 120.62C84.7429 120.487 84.7195 120.32 84.7195 120.12V113.5H85.6795V120.15ZM89.4785 121.96C89.3118 122.48 89.1052 122.84 88.8585 123.04C88.6185 123.247 88.3218 123.35 87.9685 123.35C87.6752 123.35 87.4052 123.283 87.1585 123.15C86.9118 123.017 86.7118 122.873 86.5585 122.72L87.0285 122.12C87.1352 122.227 87.2585 122.323 87.3985 122.41C87.5385 122.497 87.7052 122.54 87.8985 122.54C88.1052 122.54 88.2718 122.48 88.3985 122.36C88.5252 122.24 88.5885 122.053 88.5885 121.8C88.5885 121.62 88.5652 121.397 88.5185 121.13C88.4718 120.87 88.4018 120.6 88.3085 120.32L86.8285 115.7H87.8185L89.2085 120.3L90.5985 115.7H91.4885L89.4785 121.96ZM94.8852 121V120.6C94.8852 120.28 94.9652 119.983 95.1252 119.71C95.2852 119.43 95.4818 119.17 95.7152 118.93C95.9552 118.683 96.2152 118.447 96.4952 118.22C96.7752 117.987 97.0318 117.757 97.2652 117.53C97.5052 117.303 97.7052 117.073 97.8652 116.84C98.0252 116.6 98.1052 116.343 98.1052 116.07C98.1052 115.923 98.0752 115.787 98.0152 115.66C97.9618 115.533 97.8852 115.423 97.7852 115.33C97.6852 115.23 97.5652 115.153 97.4252 115.1C97.2918 115.047 97.1452 115.02 96.9852 115.02C96.6252 115.02 96.3452 115.12 96.1452 115.32C95.9518 115.513 95.8118 115.847 95.7252 116.32L94.8552 116.11C94.9618 115.543 95.1852 115.093 95.5252 114.76C95.8652 114.42 96.3185 114.25 96.8852 114.25C97.2918 114.25 97.6318 114.303 97.9052 114.41C98.1852 114.51 98.4085 114.643 98.5752 114.81C98.7418 114.977 98.8618 115.163 98.9352 115.37C99.0085 115.577 99.0485 115.783 99.0552 115.99C99.0552 116.31 98.9885 116.607 98.8552 116.88C98.7285 117.153 98.5652 117.41 98.3652 117.65C98.1652 117.89 97.9418 118.117 97.6952 118.33C97.4485 118.543 97.2085 118.753 96.9752 118.96C96.7418 119.16 96.5285 119.363 96.3352 119.57C96.1485 119.777 96.0085 119.993 95.9152 120.22H99.1152V121H94.8852ZM100.238 117.69C100.238 117.123 100.302 116.627 100.428 116.2C100.555 115.767 100.728 115.407 100.948 115.12C101.175 114.833 101.442 114.617 101.748 114.47C102.055 114.323 102.388 114.25 102.748 114.25C103.108 114.25 103.442 114.323 103.748 114.47C104.055 114.617 104.318 114.833 104.538 115.12C104.765 115.407 104.942 115.767 105.068 116.2C105.202 116.627 105.268 117.123 105.268 117.69C105.268 118.263 105.202 118.767 105.068 119.2C104.942 119.627 104.765 119.987 104.538 120.28C104.318 120.567 104.055 120.783 103.748 120.93C103.442 121.077 103.108 121.15 102.748 121.15C102.388 121.15 102.055 121.077 101.748 120.93C101.442 120.783 101.175 120.567 100.948 120.28C100.728 119.987 100.555 119.627 100.428 119.2C100.302 118.767 100.238 118.263 100.238 117.69ZM101.208 117.69C101.208 118.143 101.245 118.54 101.318 118.88C101.398 119.213 101.505 119.49 101.638 119.71C101.778 119.93 101.942 120.097 102.128 120.21C102.315 120.317 102.522 120.37 102.748 120.37C103.202 120.37 103.572 120.153 103.858 119.72C104.152 119.28 104.298 118.603 104.298 117.69C104.298 116.79 104.152 116.123 103.858 115.69C103.572 115.25 103.202 115.03 102.748 115.03C102.295 115.03 101.925 115.25 101.638 115.69C101.352 116.123 101.208 116.79 101.208 117.69ZM106.419 121V120.6C106.419 120.28 106.499 119.983 106.659 119.71C106.819 119.43 107.015 119.17 107.249 118.93C107.489 118.683 107.749 118.447 108.029 118.22C108.309 117.987 108.565 117.757 108.799 117.53C109.039 117.303 109.239 117.073 109.399 116.84C109.559 116.6 109.639 116.343 109.639 116.07C109.639 115.923 109.609 115.787 109.549 115.66C109.495 115.533 109.419 115.423 109.319 115.33C109.219 115.23 109.099 115.153 108.959 115.1C108.825 115.047 108.679 115.02 108.519 115.02C108.159 115.02 107.879 115.12 107.679 115.32C107.485 115.513 107.345 115.847 107.259 116.32L106.389 116.11C106.495 115.543 106.719 115.093 107.059 114.76C107.399 114.42 107.852 114.25 108.419 114.25C108.825 114.25 109.165 114.303 109.439 114.41C109.719 114.51 109.942 114.643 110.109 114.81C110.275 114.977 110.395 115.163 110.469 115.37C110.542 115.577 110.582 115.783 110.589 115.99C110.589 116.31 110.522 116.607 110.389 116.88C110.262 117.153 110.099 117.41 109.899 117.65C109.699 117.89 109.475 118.117 109.229 118.33C108.982 118.543 108.742 118.753 108.509 118.96C108.275 119.16 108.062 119.363 107.869 119.57C107.682 119.777 107.542 119.993 107.449 120.22H110.649V121H106.419ZM111.922 121V120.6C111.922 120.28 112.002 119.983 112.162 119.71C112.322 119.43 112.519 119.17 112.752 118.93C112.992 118.683 113.252 118.447 113.532 118.22C113.812 117.987 114.069 117.757 114.302 117.53C114.542 117.303 114.742 117.073 114.902 116.84C115.062 116.6 115.142 116.343 115.142 116.07C115.142 115.923 115.112 115.787 115.052 115.66C114.999 115.533 114.922 115.423 114.822 115.33C114.722 115.23 114.602 115.153 114.462 115.1C114.329 115.047 114.182 115.02 114.022 115.02C113.662 115.02 113.382 115.12 113.182 115.32C112.989 115.513 112.849 115.847 112.762 116.32L111.892 116.11C111.999 115.543 112.222 115.093 112.562 114.76C112.902 114.42 113.355 114.25 113.922 114.25C114.329 114.25 114.669 114.303 114.942 114.41C115.222 114.51 115.445 114.643 115.612 114.81C115.779 114.977 115.899 115.163 115.972 115.37C116.045 115.577 116.085 115.783 116.092 115.99C116.092 116.31 116.025 116.607 115.892 116.88C115.765 117.153 115.602 117.41 115.402 117.65C115.202 117.89 114.979 118.117 114.732 118.33C114.485 118.543 114.245 118.753 114.012 118.96C113.779 119.16 113.565 119.363 113.372 119.57C113.185 119.777 113.045 119.993 112.952 120.22H116.152V121H111.922Z" fill="#78B0F9"/>
<path d="M48.88 97.536H45.352V100.332H48.52V101.268H45.352V104.064H48.88V105H44.2V96.6H48.88V97.536ZM51.5883 98.64L51.6483 99.408C51.8963 99.16 52.1883 98.94 52.5243 98.748C52.8603 98.556 53.2363 98.46 53.6523 98.46C54.0283 98.46 54.3483 98.504 54.6123 98.592C54.8763 98.68 55.0883 98.82 55.2483 99.012C55.4163 99.196 55.5363 99.44 55.6083 99.744C55.6883 100.048 55.7283 100.416 55.7283 100.848V105H54.5763V100.728C54.5763 99.84 54.1723 99.396 53.3643 99.396C53.0843 99.396 52.8083 99.46 52.5363 99.588C52.2643 99.716 52.0083 99.892 51.7683 100.116V105H50.6163V98.64H51.5883ZM57.2308 98.64H58.1428V97.32L59.0548 97.08H59.2948V98.64H60.9748V99.48H59.2948V103.632C59.2948 104.016 59.4828 104.208 59.8588 104.208C60.1068 104.208 60.4148 104.096 60.7828 103.872L61.0948 104.592C60.8548 104.776 60.5828 104.92 60.2788 105.024C59.9828 105.128 59.7028 105.18 59.4388 105.18C59.0148 105.18 58.6908 105.04 58.4668 104.76C58.2508 104.472 58.1428 104.056 58.1428 103.512V99.48H57.2308V98.64ZM64.9163 104.244C65.3243 104.244 65.6763 104.168 65.9723 104.016C66.2763 103.856 66.5203 103.688 66.7043 103.512L67.2203 104.136C66.9723 104.416 66.6483 104.66 66.2483 104.868C65.8483 105.076 65.3923 105.18 64.8803 105.18C64.4563 105.18 64.0643 105.112 63.7043 104.976C63.3443 104.832 63.0323 104.62 62.7683 104.34C62.5123 104.052 62.3083 103.7 62.1563 103.284C62.0123 102.86 61.9403 102.372 61.9403 101.82C61.9403 101.268 62.0123 100.784 62.1563 100.368C62.3003 99.944 62.5003 99.592 62.7563 99.312C63.0123 99.024 63.3123 98.812 63.6563 98.676C64.0083 98.532 64.3883 98.46 64.7963 98.46C65.1723 98.46 65.5163 98.52 65.8283 98.64C66.1483 98.752 66.4203 98.928 66.6443 99.168C66.8683 99.408 67.0403 99.708 67.1603 100.068C67.2883 100.42 67.3523 100.836 67.3523 101.316V102.156H63.1523C63.2003 102.868 63.3843 103.396 63.7043 103.74C64.0323 104.076 64.4363 104.244 64.9163 104.244ZM64.8083 99.396C64.3763 99.396 64.0083 99.556 63.7043 99.876C63.4083 100.188 63.2283 100.668 63.1643 101.316H66.2123C66.2123 100.7 66.0883 100.228 65.8403 99.9C65.6003 99.564 65.2563 99.396 64.8083 99.396ZM70.1222 98.64L70.1822 99.42C70.4302 99.14 70.7262 98.916 71.0702 98.748C71.4142 98.572 71.7782 98.476 72.1622 98.46L72.2222 99.324L72.0782 99.456C71.7022 99.464 71.3622 99.532 71.0582 99.66C70.7622 99.78 70.5102 99.948 70.3022 100.164V105H69.1502V98.64H70.1222ZM73.293 98.64H74.265L74.325 99.384C74.557 99.144 74.833 98.932 75.153 98.748C75.481 98.556 75.869 98.46 76.317 98.46C76.685 98.46 77.017 98.532 77.313 98.676C77.617 98.812 77.873 99.024 78.081 99.312C78.297 99.592 78.461 99.944 78.573 100.368C78.693 100.784 78.753 101.268 78.753 101.82C78.753 102.372 78.681 102.86 78.537 103.284C78.393 103.7 78.197 104.052 77.949 104.34C77.701 104.62 77.409 104.832 77.073 104.976C76.737 105.112 76.377 105.18 75.993 105.18C75.697 105.18 75.417 105.136 75.153 105.048C74.897 104.96 74.661 104.84 74.445 104.688V107.82H73.293V98.64ZM76.065 99.396C75.745 99.396 75.449 99.46 75.177 99.588C74.913 99.716 74.669 99.888 74.445 100.104V103.74C74.629 103.884 74.849 104.004 75.105 104.1C75.361 104.196 75.641 104.244 75.945 104.244C76.417 104.244 76.801 104.048 77.097 103.656C77.401 103.256 77.553 102.644 77.553 101.82C77.553 100.996 77.413 100.388 77.133 99.996C76.861 99.596 76.505 99.396 76.065 99.396ZM81.525 98.64L81.585 99.42C81.833 99.14 82.129 98.916 82.473 98.748C82.817 98.572 83.181 98.476 83.565 98.46L83.625 99.324L83.481 99.456C83.105 99.464 82.765 99.532 82.461 99.66C82.165 99.78 81.913 99.948 81.705 100.164V105H80.553V98.64H81.525ZM85.8478 105H84.6958V98.64H85.8478V105ZM84.5398 96.636C84.5398 96.38 84.6078 96.192 84.7438 96.072C84.8878 95.944 85.0638 95.88 85.2718 95.88C85.4878 95.88 85.6638 95.944 85.7998 96.072C85.9438 96.192 86.0158 96.38 86.0158 96.636C86.0158 96.892 85.9438 97.084 85.7998 97.212C85.6638 97.332 85.4878 97.392 85.2718 97.392C85.0638 97.392 84.8878 97.332 84.7438 97.212C84.6078 97.084 84.5398 96.892 84.5398 96.636ZM89.8786 99.336C89.5746 99.336 89.3186 99.404 89.1106 99.54C88.9026 99.676 88.7986 99.884 88.7986 100.164C88.7986 100.388 88.8786 100.576 89.0386 100.728C89.1986 100.872 89.3986 101.004 89.6386 101.124C89.8786 101.244 90.1346 101.364 90.4066 101.484C90.6866 101.604 90.9466 101.748 91.1866 101.916C91.4266 102.076 91.6266 102.276 91.7866 102.516C91.9466 102.748 92.0266 103.044 92.0266 103.404C92.0266 103.94 91.8306 104.372 91.4386 104.7C91.0466 105.02 90.5026 105.18 89.8066 105.18C89.1186 105.18 88.5906 105.02 88.2226 104.7C87.8626 104.372 87.6146 103.92 87.4786 103.344L88.4746 103.008C88.5146 103.272 88.5786 103.488 88.6666 103.656C88.7626 103.824 88.8746 103.956 89.0026 104.052C89.1306 104.148 89.2706 104.216 89.4226 104.256C89.5746 104.288 89.7306 104.304 89.8906 104.304C90.1626 104.304 90.4026 104.24 90.6106 104.112C90.8186 103.976 90.9226 103.768 90.9226 103.488C90.9226 103.28 90.8426 103.108 90.6826 102.972C90.5226 102.836 90.3226 102.708 90.0826 102.588C89.8426 102.468 89.5826 102.348 89.3026 102.228C89.0306 102.1 88.7746 101.948 88.5346 101.772C88.2946 101.596 88.0946 101.384 87.9346 101.136C87.7746 100.88 87.6946 100.564 87.6946 100.188C87.6946 100.004 87.7306 99.812 87.8026 99.612C87.8746 99.404 87.9946 99.216 88.1626 99.048C88.3386 98.88 88.5666 98.74 88.8466 98.628C89.1346 98.516 89.4866 98.46 89.9026 98.46C90.4546 98.46 90.9106 98.584 91.2706 98.832C91.6386 99.072 91.9026 99.48 92.0626 100.056L91.0666 100.392C90.9786 100.064 90.8346 99.808 90.6346 99.624C90.4346 99.432 90.1826 99.336 89.8786 99.336ZM96.2185 104.244C96.6265 104.244 96.9785 104.168 97.2745 104.016C97.5785 103.856 97.8225 103.688 98.0065 103.512L98.5225 104.136C98.2745 104.416 97.9505 104.66 97.5505 104.868C97.1505 105.076 96.6945 105.18 96.1825 105.18C95.7585 105.18 95.3665 105.112 95.0065 104.976C94.6465 104.832 94.3345 104.62 94.0705 104.34C93.8145 104.052 93.6105 103.7 93.4585 103.284C93.3145 102.86 93.2425 102.372 93.2425 101.82C93.2425 101.268 93.3145 100.784 93.4585 100.368C93.6025 99.944 93.8025 99.592 94.0585 99.312C94.3145 99.024 94.6145 98.812 94.9585 98.676C95.3105 98.532 95.6905 98.46 96.0985 98.46C96.4745 98.46 96.8185 98.52 97.1305 98.64C97.4505 98.752 97.7225 98.928 97.9465 99.168C98.1705 99.408 98.3425 99.708 98.4625 100.068C98.5905 100.42 98.6545 100.836 98.6545 101.316V102.156H94.4545C94.5025 102.868 94.6865 103.396 95.0065 103.74C95.3345 104.076 95.7385 104.244 96.2185 104.244ZM96.1105 99.396C95.6785 99.396 95.3105 99.556 95.0065 99.876C94.7105 100.188 94.5305 100.668 94.4665 101.316H97.5145C97.5145 100.7 97.3905 100.228 97.1425 99.9C96.9025 99.564 96.5585 99.396 96.1105 99.396ZM107.875 96.6V97.536H105.667V105H104.515V97.536H102.307V96.6H107.875ZM110.487 104.244C110.895 104.244 111.247 104.168 111.543 104.016C111.847 103.856 112.091 103.688 112.275 103.512L112.791 104.136C112.543 104.416 112.219 104.66 111.819 104.868C111.419 105.076 110.963 105.18 110.451 105.18C110.027 105.18 109.635 105.112 109.275 104.976C108.915 104.832 108.603 104.62 108.339 104.34C108.083 104.052 107.879 103.7 107.727 103.284C107.583 102.86 107.511 102.372 107.511 101.82C107.511 101.268 107.583 100.784 107.727 100.368C107.871 99.944 108.071 99.592 108.327 99.312C108.583 99.024 108.883 98.812 109.227 98.676C109.579 98.532 109.959 98.46 110.367 98.46C110.743 98.46 111.087 98.52 111.399 98.64C111.719 98.752 111.991 98.928 112.215 99.168C112.439 99.408 112.611 99.708 112.731 100.068C112.859 100.42 112.923 100.836 112.923 101.316V102.156H108.723C108.771 102.868 108.955 103.396 109.275 103.74C109.603 104.076 110.007 104.244 110.487 104.244ZM110.379 99.396C109.947 99.396 109.579 99.556 109.275 99.876C108.979 100.188 108.799 100.668 108.735 101.316H111.783C111.783 100.7 111.659 100.228 111.411 99.9C111.171 99.564 110.827 99.396 110.379 99.396ZM118.489 100.392C118.305 99.728 117.897 99.396 117.265 99.396C116.769 99.396 116.361 99.596 116.041 99.996C115.721 100.388 115.561 100.996 115.561 101.82C115.561 102.644 115.725 103.256 116.053 103.656C116.381 104.048 116.797 104.244 117.301 104.244C117.661 104.244 117.985 104.168 118.273 104.016C118.561 103.856 118.797 103.688 118.981 103.512L119.497 104.136C119.249 104.416 118.929 104.66 118.537 104.868C118.145 105.076 117.717 105.18 117.253 105.18C116.829 105.18 116.441 105.112 116.089 104.976C115.737 104.832 115.433 104.62 115.177 104.34C114.921 104.052 114.721 103.7 114.577 103.284C114.433 102.86 114.361 102.372 114.361 101.82C114.361 101.268 114.433 100.784 114.577 100.368C114.729 99.944 114.933 99.592 115.189 99.312C115.445 99.024 115.749 98.812 116.101 98.676C116.453 98.532 116.833 98.46 117.241 98.46C117.785 98.46 118.249 98.584 118.633 98.832C119.025 99.072 119.309 99.48 119.485 100.056L118.489 100.392ZM121.912 99.504C122.152 99.176 122.44 98.92 122.776 98.736C123.112 98.552 123.472 98.46 123.856 98.46C124.232 98.46 124.552 98.504 124.816 98.592C125.08 98.68 125.292 98.82 125.452 99.012C125.62 99.196 125.74 99.44 125.812 99.744C125.892 100.048 125.932 100.416 125.932 100.848V105H124.78V100.728C124.78 99.84 124.384 99.396 123.592 99.396C122.928 99.396 122.388 99.676 121.972 100.236V105H120.82V96H121.912V99.504ZM128.947 98.64L129.007 99.408C129.255 99.16 129.547 98.94 129.883 98.748C130.219 98.556 130.595 98.46 131.011 98.46C131.387 98.46 131.707 98.504 131.971 98.592C132.235 98.68 132.447 98.82 132.607 99.012C132.775 99.196 132.895 99.44 132.967 99.744C133.047 100.048 133.087 100.416 133.087 100.848V105H131.935V100.728C131.935 99.84 131.531 99.396 130.723 99.396C130.443 99.396 130.167 99.46 129.895 99.588C129.623 99.716 129.367 99.892 129.127 100.116V105H127.975V98.64H128.947ZM134.77 101.82C134.77 101.268 134.842 100.784 134.986 100.368C135.138 99.944 135.342 99.592 135.598 99.312C135.854 99.024 136.158 98.812 136.51 98.676C136.87 98.532 137.254 98.46 137.662 98.46C138.07 98.46 138.45 98.532 138.802 98.676C139.162 98.812 139.47 99.024 139.726 99.312C139.99 99.592 140.194 99.944 140.338 100.368C140.49 100.784 140.566 101.268 140.566 101.82C140.566 102.372 140.49 102.86 140.338 103.284C140.194 103.7 139.99 104.052 139.726 104.34C139.47 104.62 139.162 104.832 138.802 104.976C138.45 105.112 138.07 105.18 137.662 105.18C137.254 105.18 136.87 105.112 136.51 104.976C136.158 104.832 135.854 104.62 135.598 104.34C135.342 104.052 135.138 103.7 134.986 103.284C134.842 102.86 134.77 102.372 134.77 101.82ZM135.97 101.82C135.97 102.644 136.126 103.256 136.438 103.656C136.758 104.048 137.166 104.244 137.662 104.244C138.166 104.244 138.574 104.048 138.886 103.656C139.206 103.256 139.366 102.644 139.366 101.82C139.366 100.996 139.206 100.388 138.886 99.996C138.574 99.596 138.166 99.396 137.662 99.396C137.166 99.396 136.758 99.596 136.438 99.996C136.126 100.388 135.97 100.996 135.97 101.82ZM143.518 103.98C143.518 104.108 143.542 104.196 143.59 104.244C143.646 104.284 143.718 104.304 143.806 104.304C143.87 104.304 143.942 104.296 144.022 104.28C144.102 104.256 144.174 104.228 144.238 104.196L144.43 104.94C144.302 105.004 144.162 105.06 144.01 105.108C143.858 105.156 143.69 105.18 143.506 105.18C143.346 105.18 143.198 105.16 143.062 105.12C142.926 105.088 142.806 105.024 142.702 104.928C142.598 104.832 142.514 104.704 142.45 104.544C142.394 104.384 142.366 104.184 142.366 103.944V96H143.518V103.98ZM145.317 101.82C145.317 101.268 145.389 100.784 145.533 100.368C145.685 99.944 145.889 99.592 146.145 99.312C146.401 99.024 146.705 98.812 147.057 98.676C147.417 98.532 147.801 98.46 148.209 98.46C148.617 98.46 148.997 98.532 149.349 98.676C149.709 98.812 150.017 99.024 150.273 99.312C150.537 99.592 150.741 99.944 150.885 100.368C151.037 100.784 151.113 101.268 151.113 101.82C151.113 102.372 151.037 102.86 150.885 103.284C150.741 103.7 150.537 104.052 150.273 104.34C150.017 104.62 149.709 104.832 149.349 104.976C148.997 105.112 148.617 105.18 148.209 105.18C147.801 105.18 147.417 105.112 147.057 104.976C146.705 104.832 146.401 104.62 146.145 104.34C145.889 104.052 145.685 103.7 145.533 103.284C145.389 102.86 145.317 102.372 145.317 101.82ZM146.517 101.82C146.517 102.644 146.673 103.256 146.985 103.656C147.305 104.048 147.713 104.244 148.209 104.244C148.713 104.244 149.121 104.048 149.433 103.656C149.753 103.256 149.913 102.644 149.913 101.82C149.913 100.996 149.753 100.388 149.433 99.996C149.121 99.596 148.713 99.396 148.209 99.396C147.713 99.396 147.305 99.596 146.985 99.996C146.673 100.388 146.517 100.996 146.517 101.82ZM156.057 104.16C156.329 104.16 156.589 104.192 156.837 104.256C157.085 104.312 157.305 104.408 157.497 104.544C157.689 104.68 157.841 104.856 157.953 105.072C158.065 105.288 158.121 105.552 158.121 105.864C158.121 106.48 157.877 106.96 157.389 107.304C156.901 107.648 156.177 107.82 155.217 107.82C153.281 107.82 152.313 107.208 152.313 105.984C152.313 105.712 152.393 105.46 152.553 105.228C152.713 104.996 152.925 104.808 153.189 104.664C152.901 104.4 152.757 104.036 152.757 103.572C152.757 103.332 152.805 103.104 152.901 102.888C152.997 102.672 153.149 102.484 153.357 102.324C152.981 101.924 152.793 101.404 152.793 100.764C152.793 100.404 152.853 100.08 152.973 99.792C153.101 99.504 153.273 99.264 153.489 99.072C153.705 98.872 153.961 98.72 154.257 98.616C154.553 98.512 154.877 98.46 155.229 98.46C155.621 98.46 155.985 98.528 156.321 98.664C156.505 98.656 156.665 98.576 156.801 98.424C156.937 98.272 157.005 97.992 157.005 97.584H157.245L157.941 97.824C157.941 98.24 157.865 98.556 157.713 98.772C157.569 98.98 157.369 99.128 157.113 99.216C157.289 99.408 157.425 99.636 157.521 99.9C157.625 100.156 157.677 100.444 157.677 100.764C157.677 101.124 157.613 101.448 157.485 101.736C157.365 102.016 157.193 102.256 156.969 102.456C156.753 102.648 156.493 102.796 156.189 102.9C155.893 103.004 155.573 103.056 155.229 103.056C154.733 103.056 154.301 102.96 153.933 102.768C153.837 102.856 153.761 102.964 153.705 103.092C153.657 103.212 153.633 103.336 153.633 103.464C153.633 103.664 153.701 103.832 153.837 103.968C153.973 104.096 154.185 104.16 154.473 104.16H156.057ZM153.897 100.764C153.897 101.02 153.937 101.244 154.017 101.436C154.097 101.62 154.197 101.772 154.317 101.892C154.445 102.012 154.589 102.1 154.749 102.156C154.909 102.212 155.069 102.24 155.229 102.24C155.389 102.24 155.549 102.212 155.709 102.156C155.869 102.1 156.013 102.012 156.141 101.892C156.269 101.772 156.373 101.62 156.453 101.436C156.533 101.244 156.573 101.02 156.573 100.764C156.573 100.5 156.533 100.276 156.453 100.092C156.373 99.9 156.269 99.744 156.141 99.624C156.013 99.504 155.869 99.416 155.709 99.36C155.549 99.304 155.389 99.276 155.229 99.276C155.069 99.276 154.909 99.304 154.749 99.36C154.589 99.416 154.445 99.504 154.317 99.624C154.197 99.744 154.097 99.9 154.017 100.092C153.937 100.276 153.897 100.5 153.897 100.764ZM154.569 105.096C154.297 105.096 154.045 105.064 153.813 105C153.701 105.12 153.597 105.256 153.501 105.408C153.413 105.568 153.369 105.74 153.369 105.924C153.369 106.596 153.985 106.932 155.217 106.932C155.841 106.932 156.305 106.848 156.609 106.68C156.913 106.52 157.065 106.252 157.065 105.876C157.065 105.708 157.029 105.572 156.957 105.468C156.893 105.372 156.809 105.296 156.705 105.24C156.609 105.184 156.497 105.144 156.369 105.12C156.249 105.104 156.129 105.096 156.009 105.096H154.569ZM161.777 106.152C161.577 106.776 161.329 107.208 161.033 107.448C160.745 107.696 160.389 107.82 159.965 107.82C159.613 107.82 159.289 107.74 158.993 107.58C158.697 107.42 158.457 107.248 158.273 107.064L158.837 106.344C158.965 106.472 159.113 106.588 159.281 106.692C159.449 106.796 159.649 106.848 159.881 106.848C160.129 106.848 160.329 106.776 160.481 106.632C160.633 106.488 160.709 106.264 160.709 105.96C160.709 105.744 160.681 105.476 160.625 105.156C160.569 104.844 160.485 104.52 160.373 104.184L158.597 98.64H159.785L161.453 104.16L163.121 98.64H164.189L161.777 106.152ZM169.717 105H168.565V96.6H169.717V105ZM172.847 98.64L172.907 99.408C173.155 99.16 173.447 98.94 173.783 98.748C174.119 98.556 174.495 98.46 174.911 98.46C175.287 98.46 175.607 98.504 175.871 98.592C176.135 98.68 176.347 98.82 176.507 99.012C176.675 99.196 176.795 99.44 176.867 99.744C176.947 100.048 176.987 100.416 176.987 100.848V105H175.835V100.728C175.835 99.84 175.431 99.396 174.623 99.396C174.343 99.396 174.067 99.46 173.795 99.588C173.523 99.716 173.267 99.892 173.027 100.116V105H171.875V98.64H172.847ZM178.49 98.64H179.402V97.32L180.314 97.08H180.554V98.64H182.234V99.48H180.554V103.632C180.554 104.016 180.742 104.208 181.118 104.208C181.366 104.208 181.674 104.096 182.042 103.872L182.354 104.592C182.114 104.776 181.842 104.92 181.538 105.024C181.242 105.128 180.962 105.18 180.698 105.18C180.274 105.18 179.95 105.04 179.726 104.76C179.51 104.472 179.402 104.056 179.402 103.512V99.48H178.49V98.64ZM186.175 104.244C186.583 104.244 186.935 104.168 187.231 104.016C187.535 103.856 187.779 103.688 187.963 103.512L188.479 104.136C188.231 104.416 187.907 104.66 187.507 104.868C187.107 105.076 186.651 105.18 186.139 105.18C185.715 105.18 185.323 105.112 184.963 104.976C184.603 104.832 184.291 104.62 184.027 104.34C183.771 104.052 183.567 103.7 183.415 103.284C183.271 102.86 183.199 102.372 183.199 101.82C183.199 101.268 183.271 100.784 183.415 100.368C183.559 99.944 183.759 99.592 184.015 99.312C184.271 99.024 184.571 98.812 184.915 98.676C185.267 98.532 185.647 98.46 186.055 98.46C186.431 98.46 186.775 98.52 187.087 98.64C187.407 98.752 187.679 98.928 187.903 99.168C188.127 99.408 188.299 99.708 188.419 100.068C188.547 100.42 188.611 100.836 188.611 101.316V102.156H184.411C184.459 102.868 184.643 103.396 184.963 103.74C185.291 104.076 185.695 104.244 186.175 104.244ZM186.067 99.396C185.635 99.396 185.267 99.556 184.963 99.876C184.667 100.188 184.487 100.668 184.423 101.316H187.471C187.471 100.7 187.347 100.228 187.099 99.9C186.859 99.564 186.515 99.396 186.067 99.396ZM191.381 98.64L191.441 99.42C191.689 99.14 191.985 98.916 192.329 98.748C192.673 98.572 193.037 98.476 193.421 98.46L193.481 99.324L193.337 99.456C192.961 99.464 192.621 99.532 192.317 99.66C192.021 99.78 191.769 99.948 191.561 100.164V105H190.409V98.64H191.381ZM195.524 98.64L195.584 99.408C195.832 99.16 196.124 98.94 196.46 98.748C196.796 98.556 197.172 98.46 197.588 98.46C197.964 98.46 198.284 98.504 198.548 98.592C198.812 98.68 199.024 98.82 199.184 99.012C199.352 99.196 199.472 99.44 199.544 99.744C199.624 100.048 199.664 100.416 199.664 100.848V105H198.512V100.728C198.512 99.84 198.108 99.396 197.3 99.396C197.02 99.396 196.744 99.46 196.472 99.588C196.2 99.716 195.944 99.892 195.704 100.116V105H194.552V98.64H195.524Z" fill="#A6ADB8"/>
</g>
<g filter="url(#filter1_dddd_141_125)">
<ellipse cx="138" cy="10.199" rx="10" ry="10.199" fill="white"/>
</g>
<defs>
<filter id="filter0_d_141_125" x="7" y="10" width="258" height="175" filterUnits="userSpaceOnUse" color-interpolation-filters="sRGB">
<feFlood flood-opacity="0" result="BackgroundImageFix"/>
<feColorMatrix in="SourceAlpha" type="matrix" values="0 0 0 0 0 0 0 0 0 0 0 0 0 0 0 0 0 0 127 0" result="hardAlpha"/>
<feOffset dy="4"/>
<feGaussianBlur stdDeviation="2"/>
<feComposite in2="hardAlpha" operator="out"/>
<feColorMatrix type="matrix" values="0 0 0 0 0 0 0 0 0 0 0 0 0 0 0 0 0 0 0.25 0"/>
<feBlend mode="normal" in2="BackgroundImageFix" result="effect1_dropShadow_141_125"/>
<feBlend mode="normal" in="SourceGraphic" in2="effect1_dropShadow_141_125" result="shape"/>
</filter>
<filter id="filter1_dddd_141_125" x="124" y="0" width="28" height="28.3979" filterUnits="userSpaceOnUse" color-interpolation-filters="sRGB">
<feFlood flood-opacity="0" result="BackgroundImageFix"/>
<feColorMatrix in="SourceAlpha" type="matrix" values="0 0 0 0 0 0 0 0 0 0 0 0 0 0 0 0 0 0 127 0" result="hardAlpha"/>
<feOffset dy="4"/>
<feGaussianBlur stdDeviation="2"/>
<feComposite in2="hardAlpha" operator="out"/>
<feColorMatrix type="matrix" values="0 0 0 0 0 0 0 0 0 0 0 0 0 0 0 0 0 0 0.25 0"/>
<feBlend mode="normal" in2="BackgroundImageFix" result="effect1_dropShadow_141_125"/>
<feColorMatrix in="SourceAlpha" type="matrix" values="0 0 0 0 0 0 0 0 0 0 0 0 0 0 0 0 0 0 127 0" result="hardAlpha"/>
<feOffset dy="4"/>
<feGaussianBlur stdDeviation="2"/>
<feComposite in2="hardAlpha" operator="out"/>
<feColorMatrix type="matrix" values="0 0 0 0 0 0 0 0 0 0 0 0 0 0 0 0 0 0 0.25 0"/>
<feBlend mode="normal" in2="effect1_dropShadow_141_125" result="effect2_dropShadow_141_125"/>
<feColorMatrix in="SourceAlpha" type="matrix" values="0 0 0 0 0 0 0 0 0 0 0 0 0 0 0 0 0 0 127 0" result="hardAlpha"/>
<feOffset dy="4"/>
<feGaussianBlur stdDeviation="2"/>
<feComposite in2="hardAlpha" operator="out"/>
<feColorMatrix type="matrix" values="0 0 0 0 0 0 0 0 0 0 0 0 0 0 0 0 0 0 0.25 0"/>
<feBlend mode="normal" in2="effect2_dropShadow_141_125" result="effect3_dropShadow_141_125"/>
<feColorMatrix in="SourceAlpha" type="matrix" values="0 0 0 0 0 0 0 0 0 0 0 0 0 0 0 0 0 0 127 0" result="hardAlpha"/>
<feOffset dy="4"/>
<feGaussianBlur stdDeviation="2"/>
<feComposite in2="hardAlpha" operator="out"/>
<feColorMatrix type="matrix" values="0 0 0 0 0 0 0 0 0 0 0 0 0 0 0 0 0 0 0.25 0"/>
<feBlend mode="normal" in2="effect3_dropShadow_141_125" result="effect4_dropShadow_141_125"/>
<feBlend mode="normal" in="SourceGraphic" in2="effect4_dropShadow_141_125" result="shape"/>
</filter>
<clipPath id="clip0_141_125">
<rect width="270" height="137.319" fill="white" transform="translate(0 10.2786)"/>
</clipPath>
</defs>
</svg>
