<svg width="270" height="185" viewBox="0 0 270 185" fill="none" xmlns="http://www.w3.org/2000/svg">
<g filter="url(#filter0_d_141_111)">
<rect x="11" y="10" width="250" height="167" fill="#1A2E4A"/>
</g>
<g clip-path="url(#clip0_141_111)">
<path d="M54.88 69.0786V76.2786H53.96L53.6 75.4786C53.1467 75.7986 52.64 76.0652 52.08 76.2786C51.5333 76.4786 50.9133 76.5786 50.22 76.5786C49.38 76.5786 48.6 76.4252 47.88 76.1186C47.1733 75.7986 46.56 75.3319 46.04 74.7186C45.52 74.1052 45.1133 73.3452 44.82 72.4386C44.54 71.5186 44.4 70.4586 44.4 69.2586C44.4 68.0586 44.5467 67.0052 44.84 66.0986C45.1333 65.1786 45.54 64.4186 46.06 63.8186C46.58 63.2052 47.1867 62.7452 47.88 62.4386C48.5867 62.1319 49.3533 61.9786 50.18 61.9786C51.2733 61.9786 52.1933 62.2052 52.94 62.6586C53.7 63.1119 54.2533 63.8986 54.6 65.0186L52.9 65.6386C52.6867 64.9319 52.34 64.4052 51.86 64.0586C51.3933 63.7119 50.8533 63.5386 50.24 63.5386C49.68 63.5386 49.1667 63.6586 48.7 63.8986C48.2333 64.1252 47.8267 64.4719 47.48 64.9386C47.1467 65.4052 46.88 65.9986 46.68 66.7186C46.4933 67.4386 46.4 68.2852 46.4 69.2586C46.4 70.2319 46.4933 71.0786 46.68 71.7986C46.88 72.5186 47.1533 73.1186 47.5 73.5986C47.8467 74.0786 48.26 74.4386 48.74 74.6786C49.22 74.9052 49.74 75.0186 50.3 75.0186C50.86 75.0186 51.38 74.9319 51.86 74.7586C52.3533 74.5719 52.7867 74.3452 53.16 74.0786V70.6386H50.78V69.0786H53.16H54.88ZM61.4366 66.9386C60.3166 66.9386 59.5899 67.4919 59.2566 68.5986L57.5966 68.0386C58.1299 66.2652 59.4099 65.3786 61.4366 65.3786C62.8366 65.3786 63.8432 65.7319 64.4566 66.4386C65.0832 67.1319 65.3966 68.2719 65.3966 69.8586V74.5786C65.3966 74.7919 65.4432 74.9386 65.5366 75.0186C65.6432 75.0852 65.7699 75.1186 65.9166 75.1186C66.0232 75.1186 66.1366 75.1052 66.2566 75.0786C66.3766 75.0386 66.4899 74.9919 66.5966 74.9386L66.9166 76.1786C66.7032 76.2852 66.4699 76.3786 66.2166 76.4586C65.9632 76.5386 65.6832 76.5786 65.3766 76.5786C64.8966 76.5786 64.4899 76.4652 64.1566 76.2386C63.8366 75.9986 63.6432 75.5452 63.5766 74.8786C63.3766 75.0919 63.1499 75.3052 62.8966 75.5186C62.6432 75.7186 62.3632 75.8986 62.0566 76.0586C61.7632 76.2186 61.4432 76.3452 61.0966 76.4386C60.7632 76.5319 60.4099 76.5786 60.0366 76.5786C59.6366 76.5786 59.2566 76.4986 58.8966 76.3386C58.5499 76.1919 58.2499 75.9852 57.9966 75.7186C57.7432 75.4519 57.5432 75.1386 57.3966 74.7786C57.2499 74.4052 57.1766 74.0052 57.1766 73.5786C57.1766 72.4852 57.5432 71.6319 58.2766 71.0186C59.0232 70.4052 60.0499 70.0986 61.3566 70.0986C61.7166 70.0986 62.0766 70.1252 62.4366 70.1786C62.7966 70.2319 63.1432 70.3119 63.4766 70.4186V69.1586C63.4766 68.4652 63.2966 67.9252 62.9366 67.5386C62.5766 67.1386 62.0766 66.9386 61.4366 66.9386ZM60.6166 75.0186C61.1232 75.0186 61.6166 74.8986 62.0966 74.6586C62.5899 74.4052 63.0499 74.0652 63.4766 73.6386V71.6986C63.1966 71.6052 62.8966 71.5319 62.5766 71.4786C62.2566 71.4252 61.9432 71.3986 61.6366 71.3986C61.3032 71.3986 60.9832 71.4319 60.6766 71.4986C60.3699 71.5652 60.0966 71.6786 59.8566 71.8386C59.6299 71.9986 59.4432 72.2119 59.2966 72.4786C59.1632 72.7319 59.0966 73.0452 59.0966 73.4186C59.0966 73.8586 59.2366 74.2386 59.5166 74.5586C59.7966 74.8652 60.1632 75.0186 60.6166 75.0186ZM67.9242 75.2786L73.0842 67.1786H68.3242V65.6786H75.3642V66.6786L70.2042 74.7786H75.2642V76.2786H67.9242V75.2786ZM82.2225 75.0186C82.9025 75.0186 83.4892 74.8919 83.9825 74.6386C84.4892 74.3719 84.8958 74.0919 85.2025 73.7986L86.0625 74.8386C85.6492 75.3052 85.1092 75.7119 84.4425 76.0586C83.7758 76.4052 83.0158 76.5786 82.1625 76.5786C81.4558 76.5786 80.8025 76.4652 80.2025 76.2386C79.6025 75.9986 79.0825 75.6452 78.6425 75.1786C78.2158 74.6986 77.8758 74.1119 77.6225 73.4186C77.3825 72.7119 77.2625 71.8986 77.2625 70.9786C77.2625 70.0586 77.3825 69.2519 77.6225 68.5586C77.8625 67.8519 78.1958 67.2652 78.6225 66.7986C79.0492 66.3186 79.5492 65.9652 80.1225 65.7386C80.7092 65.4986 81.3425 65.3786 82.0225 65.3786C82.6492 65.3786 83.2225 65.4786 83.7425 65.6786C84.2758 65.8652 84.7292 66.1586 85.1025 66.5586C85.4758 66.9586 85.7625 67.4586 85.9625 68.0586C86.1758 68.6452 86.2825 69.3386 86.2825 70.1386V71.5386H79.2825C79.3625 72.7252 79.6692 73.6052 80.2025 74.1786C80.7492 74.7386 81.4225 75.0186 82.2225 75.0186ZM82.0425 66.9386C81.3225 66.9386 80.7092 67.2052 80.2025 67.7386C79.7092 68.2586 79.4092 69.0586 79.3025 70.1386H84.3825C84.3825 69.1119 84.1758 68.3252 83.7625 67.7786C83.3625 67.2186 82.7892 66.9386 82.0425 66.9386ZM91.1989 74.5786C91.1989 74.7919 91.2389 74.9386 91.3189 75.0186C91.4122 75.0852 91.5322 75.1186 91.6789 75.1186C91.7856 75.1186 91.9056 75.1052 92.0389 75.0786C92.1722 75.0386 92.2922 74.9919 92.3989 74.9386L92.7189 76.1786C92.5056 76.2852 92.2722 76.3786 92.0189 76.4586C91.7656 76.5386 91.4856 76.5786 91.1789 76.5786C90.9122 76.5786 90.6656 76.5452 90.4389 76.4786C90.2122 76.4252 90.0122 76.3186 89.8389 76.1586C89.6656 75.9986 89.5256 75.7852 89.4189 75.5186C89.3256 75.2519 89.2789 74.9186 89.2789 74.5186V61.2786H91.1989V74.5786ZM96.7169 74.5786C96.7169 74.7919 96.7569 74.9386 96.8369 75.0186C96.9302 75.0852 97.0502 75.1186 97.1969 75.1186C97.3035 75.1186 97.4235 75.1052 97.5569 75.0786C97.6902 75.0386 97.8102 74.9919 97.9169 74.9386L98.2369 76.1786C98.0235 76.2852 97.7902 76.3786 97.5369 76.4586C97.2835 76.5386 97.0035 76.5786 96.6969 76.5786C96.4302 76.5786 96.1835 76.5452 95.9569 76.4786C95.7302 76.4252 95.5302 76.3186 95.3569 76.1586C95.1835 75.9986 95.0435 75.7852 94.9369 75.5186C94.8435 75.2519 94.7969 74.9186 94.7969 74.5186V61.2786H96.7169V74.5786ZM104.675 75.0186C105.355 75.0186 105.942 74.8919 106.435 74.6386C106.942 74.3719 107.348 74.0919 107.655 73.7986L108.515 74.8386C108.102 75.3052 107.562 75.7119 106.895 76.0586C106.228 76.4052 105.468 76.5786 104.615 76.5786C103.908 76.5786 103.255 76.4652 102.655 76.2386C102.055 75.9986 101.535 75.6452 101.095 75.1786C100.668 74.6986 100.328 74.1119 100.075 73.4186C99.8348 72.7119 99.7148 71.8986 99.7148 70.9786C99.7148 70.0586 99.8348 69.2519 100.075 68.5586C100.315 67.8519 100.648 67.2652 101.075 66.7986C101.502 66.3186 102.002 65.9652 102.575 65.7386C103.162 65.4986 103.795 65.3786 104.475 65.3786C105.102 65.3786 105.675 65.4786 106.195 65.6786C106.728 65.8652 107.182 66.1586 107.555 66.5586C107.928 66.9586 108.215 67.4586 108.415 68.0586C108.628 68.6452 108.735 69.3386 108.735 70.1386V71.5386H101.735C101.815 72.7252 102.122 73.6052 102.655 74.1786C103.202 74.7386 103.875 75.0186 104.675 75.0186ZM104.495 66.9386C103.775 66.9386 103.162 67.2052 102.655 67.7386C102.162 68.2586 101.862 69.0586 101.755 70.1386H106.835C106.835 69.1119 106.628 68.3252 106.215 67.7786C105.815 67.2186 105.242 66.9386 104.495 66.9386ZM124.522 63.8386H118.642V68.4986H123.922V70.0586H118.642V74.7186H124.522V76.2786H116.722V62.2786H124.522V63.8386ZM133.696 68.5986C133.389 67.4919 132.709 66.9386 131.656 66.9386C130.829 66.9386 130.149 67.2719 129.616 67.9386C129.082 68.5919 128.816 69.6052 128.816 70.9786C128.816 72.3519 129.089 73.3719 129.636 74.0386C130.182 74.6919 130.876 75.0186 131.716 75.0186C132.316 75.0186 132.856 74.8919 133.336 74.6386C133.816 74.3719 134.209 74.0919 134.516 73.7986L135.376 74.8386C134.962 75.3052 134.429 75.7119 133.776 76.0586C133.122 76.4052 132.409 76.5786 131.636 76.5786C130.929 76.5786 130.282 76.4652 129.696 76.2386C129.109 75.9986 128.602 75.6452 128.176 75.1786C127.749 74.6986 127.416 74.1119 127.176 73.4186C126.936 72.7119 126.816 71.8986 126.816 70.9786C126.816 70.0586 126.936 69.2519 127.176 68.5586C127.429 67.8519 127.769 67.2652 128.196 66.7986C128.622 66.3186 129.129 65.9652 129.716 65.7386C130.302 65.4986 130.936 65.3786 131.616 65.3786C132.522 65.3786 133.296 65.5852 133.936 65.9986C134.589 66.3986 135.062 67.0786 135.356 68.0386L133.696 68.5986ZM136.982 70.9786C136.982 70.0586 137.102 69.2519 137.342 68.5586C137.595 67.8519 137.935 67.2652 138.362 66.7986C138.789 66.3186 139.295 65.9652 139.882 65.7386C140.482 65.4986 141.122 65.3786 141.802 65.3786C142.482 65.3786 143.115 65.4986 143.702 65.7386C144.302 65.9652 144.815 66.3186 145.242 66.7986C145.682 67.2652 146.022 67.8519 146.262 68.5586C146.515 69.2519 146.642 70.0586 146.642 70.9786C146.642 71.8986 146.515 72.7119 146.262 73.4186C146.022 74.1119 145.682 74.6986 145.242 75.1786C144.815 75.6452 144.302 75.9986 143.702 76.2386C143.115 76.4652 142.482 76.5786 141.802 76.5786C141.122 76.5786 140.482 76.4652 139.882 76.2386C139.295 75.9986 138.789 75.6452 138.362 75.1786C137.935 74.6986 137.595 74.1119 137.342 73.4186C137.102 72.7119 136.982 71.8986 136.982 70.9786ZM138.982 70.9786C138.982 72.3519 139.242 73.3719 139.762 74.0386C140.295 74.6919 140.975 75.0186 141.802 75.0186C142.642 75.0186 143.322 74.6919 143.842 74.0386C144.375 73.3719 144.642 72.3519 144.642 70.9786C144.642 69.6052 144.375 68.5919 143.842 67.9386C143.322 67.2719 142.642 66.9386 141.802 66.9386C140.975 66.9386 140.295 67.2719 139.762 67.9386C139.242 68.5919 138.982 69.6052 138.982 70.9786ZM152.763 66.8386C152.256 66.8386 151.83 66.9519 151.483 67.1786C151.136 67.4052 150.963 67.7519 150.963 68.2186C150.963 68.5919 151.096 68.9052 151.363 69.1586C151.63 69.3986 151.963 69.6186 152.363 69.8186C152.763 70.0186 153.19 70.2186 153.643 70.4186C154.11 70.6186 154.543 70.8586 154.943 71.1386C155.343 71.4052 155.676 71.7386 155.943 72.1386C156.21 72.5252 156.343 73.0186 156.343 73.6186C156.343 74.5119 156.016 75.2319 155.363 75.7786C154.71 76.3119 153.803 76.5786 152.643 76.5786C151.496 76.5786 150.616 76.3119 150.003 75.7786C149.403 75.2319 148.99 74.4786 148.763 73.5186L150.423 72.9586C150.49 73.3986 150.596 73.7586 150.743 74.0386C150.903 74.3186 151.09 74.5386 151.303 74.6986C151.516 74.8586 151.75 74.9719 152.003 75.0386C152.256 75.0919 152.516 75.1186 152.783 75.1186C153.236 75.1186 153.636 75.0119 153.983 74.7986C154.33 74.5719 154.503 74.2252 154.503 73.7586C154.503 73.4119 154.37 73.1252 154.103 72.8986C153.836 72.6719 153.503 72.4586 153.103 72.2586C152.703 72.0586 152.27 71.8586 151.803 71.6586C151.35 71.4452 150.923 71.1919 150.523 70.8986C150.123 70.6052 149.79 70.2519 149.523 69.8386C149.256 69.4119 149.123 68.8852 149.123 68.2586C149.123 67.9519 149.183 67.6319 149.303 67.2986C149.423 66.9519 149.623 66.6386 149.903 66.3586C150.196 66.0786 150.576 65.8452 151.043 65.6586C151.523 65.4719 152.11 65.3786 152.803 65.3786C153.723 65.3786 154.483 65.5852 155.083 65.9986C155.696 66.3986 156.136 67.0786 156.403 68.0386L154.743 68.5986C154.596 68.0519 154.356 67.6252 154.023 67.3186C153.69 66.9986 153.27 66.8386 152.763 66.8386ZM158.37 70.9786C158.37 70.0586 158.49 69.2519 158.73 68.5586C158.983 67.8519 159.323 67.2652 159.75 66.7986C160.176 66.3186 160.683 65.9652 161.27 65.7386C161.87 65.4986 162.51 65.3786 163.19 65.3786C163.87 65.3786 164.503 65.4986 165.09 65.7386C165.69 65.9652 166.203 66.3186 166.63 66.7986C167.07 67.2652 167.41 67.8519 167.65 68.5586C167.903 69.2519 168.03 70.0586 168.03 70.9786C168.03 71.8986 167.903 72.7119 167.65 73.4186C167.41 74.1119 167.07 74.6986 166.63 75.1786C166.203 75.6452 165.69 75.9986 165.09 76.2386C164.503 76.4652 163.87 76.5786 163.19 76.5786C162.51 76.5786 161.87 76.4652 161.27 76.2386C160.683 75.9986 160.176 75.6452 159.75 75.1786C159.323 74.6986 158.983 74.1119 158.73 73.4186C158.49 72.7119 158.37 71.8986 158.37 70.9786ZM160.37 70.9786C160.37 72.3519 160.63 73.3719 161.15 74.0386C161.683 74.6919 162.363 75.0186 163.19 75.0186C164.03 75.0186 164.71 74.6919 165.23 74.0386C165.763 73.3719 166.03 72.3519 166.03 70.9786C166.03 69.6052 165.763 68.5919 165.23 67.9386C164.71 67.2719 164.03 66.9386 163.19 66.9386C162.363 66.9386 161.683 67.2719 161.15 67.9386C160.63 68.5919 160.37 69.6052 160.37 70.9786ZM172.95 74.5786C172.95 74.7919 172.99 74.9386 173.07 75.0186C173.164 75.0852 173.284 75.1186 173.43 75.1186C173.537 75.1186 173.657 75.1052 173.79 75.0786C173.924 75.0386 174.044 74.9919 174.15 74.9386L174.47 76.1786C174.257 76.2852 174.024 76.3786 173.77 76.4586C173.517 76.5386 173.237 76.5786 172.93 76.5786C172.664 76.5786 172.417 76.5452 172.19 76.4786C171.964 76.4252 171.764 76.3186 171.59 76.1586C171.417 75.9986 171.277 75.7852 171.17 75.5186C171.077 75.2519 171.03 74.9186 171.03 74.5186V61.2786H172.95V74.5786ZM184.768 74.5786C184.768 74.7919 184.815 74.9386 184.908 75.0186C185.015 75.0852 185.142 75.1186 185.288 75.1186C185.395 75.1186 185.508 75.1052 185.628 75.0786C185.748 75.0386 185.862 74.9919 185.968 74.9386L186.288 76.1786C186.075 76.2852 185.842 76.3786 185.588 76.4586C185.335 76.5386 185.055 76.5786 184.748 76.5786C184.282 76.5786 183.888 76.4719 183.568 76.2586C183.248 76.0452 183.048 75.6452 182.968 75.0586C182.555 75.4586 182.048 75.8119 181.448 76.1186C180.862 76.4252 180.168 76.5786 179.368 76.5786C178.315 76.5786 177.548 76.2652 177.068 75.6386C176.588 74.9986 176.348 74.0719 176.348 72.8586V65.6786H178.268V72.8786C178.268 73.5986 178.395 74.1386 178.648 74.4986C178.902 74.8452 179.328 75.0186 179.928 75.0186C180.515 75.0186 181.048 74.9119 181.528 74.6986C182.008 74.4852 182.448 74.1986 182.848 73.8386V65.6786H184.768V74.5786ZM187.592 65.6786H189.112V63.4786L190.632 63.0786H191.032V65.6786H193.832V67.0786H191.032V73.9986C191.032 74.6386 191.346 74.9586 191.972 74.9586C192.386 74.9586 192.899 74.7719 193.512 74.3986L194.032 75.5986C193.632 75.9052 193.179 76.1452 192.672 76.3186C192.179 76.4919 191.712 76.5786 191.272 76.5786C190.566 76.5786 190.026 76.3452 189.652 75.8786C189.292 75.3986 189.112 74.7052 189.112 73.7986V67.0786H187.592V65.6786ZM197.961 76.2786H196.041V65.6786H197.961V76.2786ZM195.781 62.3386C195.781 61.9119 195.895 61.5986 196.121 61.3986C196.361 61.1852 196.655 61.0786 197.001 61.0786C197.361 61.0786 197.655 61.1852 197.881 61.3986C198.121 61.5986 198.241 61.9119 198.241 62.3386C198.241 62.7652 198.121 63.0852 197.881 63.2986C197.655 63.4986 197.361 63.5986 197.001 63.5986C196.655 63.5986 196.361 63.4986 196.121 63.2986C195.895 63.0852 195.781 62.7652 195.781 62.3386ZM200.959 70.9786C200.959 70.0586 201.079 69.2519 201.319 68.5586C201.573 67.8519 201.913 67.2652 202.339 66.7986C202.766 66.3186 203.273 65.9652 203.859 65.7386C204.459 65.4986 205.099 65.3786 205.779 65.3786C206.459 65.3786 207.093 65.4986 207.679 65.7386C208.279 65.9652 208.793 66.3186 209.219 66.7986C209.659 67.2652 209.999 67.8519 210.239 68.5586C210.493 69.2519 210.619 70.0586 210.619 70.9786C210.619 71.8986 210.493 72.7119 210.239 73.4186C209.999 74.1119 209.659 74.6986 209.219 75.1786C208.793 75.6452 208.279 75.9986 207.679 76.2386C207.093 76.4652 206.459 76.5786 205.779 76.5786C205.099 76.5786 204.459 76.4652 203.859 76.2386C203.273 75.9986 202.766 75.6452 202.339 75.1786C201.913 74.6986 201.573 74.1119 201.319 73.4186C201.079 72.7119 200.959 71.8986 200.959 70.9786ZM202.959 70.9786C202.959 72.3519 203.219 73.3719 203.739 74.0386C204.273 74.6919 204.953 75.0186 205.779 75.0186C206.619 75.0186 207.299 74.6919 207.819 74.0386C208.353 73.3719 208.619 72.3519 208.619 70.9786C208.619 69.6052 208.353 68.5919 207.819 67.9386C207.299 67.2719 206.619 66.9386 205.779 66.9386C204.953 66.9386 204.273 67.2719 203.739 67.9386C203.219 68.5919 202.959 69.6052 202.959 70.9786ZM215.24 65.6786L215.34 66.9586C215.754 66.5452 216.24 66.1786 216.8 65.8586C217.36 65.5386 217.987 65.3786 218.68 65.3786C219.307 65.3786 219.84 65.4519 220.28 65.5986C220.72 65.7452 221.074 65.9786 221.34 66.2986C221.62 66.6052 221.82 67.0119 221.94 67.5186C222.074 68.0252 222.14 68.6386 222.14 69.3586V76.2786H220.22V69.1586C220.22 67.6786 219.547 66.9386 218.2 66.9386C217.734 66.9386 217.274 67.0452 216.82 67.2586C216.367 67.4719 215.94 67.7652 215.54 68.1386V76.2786H213.62V65.6786H215.24ZM228.665 66.8386C228.158 66.8386 227.731 66.9519 227.385 67.1786C227.038 67.4052 226.865 67.7519 226.865 68.2186C226.865 68.5919 226.998 68.9052 227.265 69.1586C227.531 69.3986 227.865 69.6186 228.265 69.8186C228.665 70.0186 229.091 70.2186 229.545 70.4186C230.011 70.6186 230.445 70.8586 230.845 71.1386C231.245 71.4052 231.578 71.7386 231.845 72.1386C232.111 72.5252 232.245 73.0186 232.245 73.6186C232.245 74.5119 231.918 75.2319 231.265 75.7786C230.611 76.3119 229.705 76.5786 228.545 76.5786C227.398 76.5786 226.518 76.3119 225.905 75.7786C225.305 75.2319 224.891 74.4786 224.665 73.5186L226.325 72.9586C226.391 73.3986 226.498 73.7586 226.645 74.0386C226.805 74.3186 226.991 74.5386 227.205 74.6986C227.418 74.8586 227.651 74.9719 227.905 75.0386C228.158 75.0919 228.418 75.1186 228.685 75.1186C229.138 75.1186 229.538 75.0119 229.885 74.7986C230.231 74.5719 230.405 74.2252 230.405 73.7586C230.405 73.4119 230.271 73.1252 230.005 72.8986C229.738 72.6719 229.405 72.4586 229.005 72.2586C228.605 72.0586 228.171 71.8586 227.705 71.6586C227.251 71.4452 226.825 71.1919 226.425 70.8986C226.025 70.6052 225.691 70.2519 225.425 69.8386C225.158 69.4119 225.025 68.8852 225.025 68.2586C225.025 67.9519 225.085 67.6319 225.205 67.2986C225.325 66.9519 225.525 66.6386 225.805 66.3586C226.098 66.0786 226.478 65.8452 226.945 65.6586C227.425 65.4719 228.011 65.3786 228.705 65.3786C229.625 65.3786 230.385 65.5852 230.985 65.9986C231.598 66.3986 232.038 67.0786 232.305 68.0386L230.645 68.5986C230.498 68.0519 230.258 67.6252 229.925 67.3186C229.591 66.9986 229.171 66.8386 228.665 66.8386Z" fill="white"/>
<path d="M49.22 115.2L47.46 120H46.72L44.96 115.2V121H44V114H45.36L47.09 118.73L48.82 114H50.18V121H49.22V115.2ZM53.6636 116.33C53.1036 116.33 52.7403 116.607 52.5736 117.16L51.7436 116.88C52.0103 115.993 52.6503 115.55 53.6636 115.55C54.3636 115.55 54.8669 115.727 55.1736 116.08C55.4869 116.427 55.6436 116.997 55.6436 117.79V120.15C55.6436 120.257 55.6669 120.33 55.7136 120.37C55.7669 120.403 55.8303 120.42 55.9036 120.42C55.9569 120.42 56.0136 120.413 56.0736 120.4C56.1336 120.38 56.1903 120.357 56.2436 120.33L56.4036 120.95C56.2969 121.003 56.1803 121.05 56.0536 121.09C55.9269 121.13 55.7869 121.15 55.6336 121.15C55.3936 121.15 55.1903 121.093 55.0236 120.98C54.8636 120.86 54.7669 120.633 54.7336 120.3C54.6336 120.407 54.5203 120.513 54.3936 120.62C54.2669 120.72 54.1269 120.81 53.9736 120.89C53.8269 120.97 53.6669 121.033 53.4936 121.08C53.3269 121.127 53.1503 121.15 52.9636 121.15C52.7636 121.15 52.5736 121.11 52.3936 121.03C52.2203 120.957 52.0703 120.853 51.9436 120.72C51.8169 120.587 51.7169 120.43 51.6436 120.25C51.5703 120.063 51.5336 119.863 51.5336 119.65C51.5336 119.103 51.7169 118.677 52.0836 118.37C52.4569 118.063 52.9703 117.91 53.6236 117.91C53.8036 117.91 53.9836 117.923 54.1636 117.95C54.3436 117.977 54.5169 118.017 54.6836 118.07V117.44C54.6836 117.093 54.5936 116.823 54.4136 116.63C54.2336 116.43 53.9836 116.33 53.6636 116.33ZM53.2536 120.37C53.5069 120.37 53.7536 120.31 53.9936 120.19C54.2403 120.063 54.4703 119.893 54.6836 119.68V118.71C54.5436 118.663 54.3936 118.627 54.2336 118.6C54.0736 118.573 53.9169 118.56 53.7636 118.56C53.5969 118.56 53.4369 118.577 53.2836 118.61C53.1303 118.643 52.9936 118.7 52.8736 118.78C52.7603 118.86 52.6669 118.967 52.5936 119.1C52.5269 119.227 52.4936 119.383 52.4936 119.57C52.4936 119.79 52.5636 119.98 52.7036 120.14C52.8436 120.293 53.0269 120.37 53.2536 120.37ZM59.4574 121.96C59.2908 122.48 59.0841 122.84 58.8374 123.04C58.5974 123.247 58.3008 123.35 57.9474 123.35C57.6541 123.35 57.3841 123.283 57.1374 123.15C56.8908 123.017 56.6908 122.873 56.5374 122.72L57.0074 122.12C57.1141 122.227 57.2374 122.323 57.3774 122.41C57.5174 122.497 57.6841 122.54 57.8774 122.54C58.0841 122.54 58.2508 122.48 58.3774 122.36C58.5041 122.24 58.5674 122.053 58.5674 121.8C58.5674 121.62 58.5441 121.397 58.4974 121.13C58.4508 120.87 58.3808 120.6 58.2874 120.32L56.8074 115.7H57.7974L59.1874 120.3L60.5774 115.7H61.4674L59.4574 121.96ZM64.6641 117.64H67.7841V118.34H64.6641V117.64ZM76.2981 121H75.3581L74.8081 119.09H72.2581L71.7181 121H70.7781L72.7781 114H74.2981L76.2981 121ZM72.4881 118.31H74.5881L73.5381 114.63L72.4881 118.31ZM81.3584 120.15C81.3584 120.257 81.3818 120.33 81.4284 120.37C81.4818 120.403 81.5451 120.42 81.6184 120.42C81.6718 120.42 81.7284 120.413 81.7884 120.4C81.8484 120.38 81.9051 120.357 81.9584 120.33L82.1184 120.95C82.0118 121.003 81.8951 121.05 81.7684 121.09C81.6418 121.13 81.5018 121.15 81.3484 121.15C81.1151 121.15 80.9184 121.097 80.7584 120.99C80.5984 120.883 80.4984 120.683 80.4584 120.39C80.2518 120.59 79.9984 120.767 79.6984 120.92C79.4051 121.073 79.0584 121.15 78.6584 121.15C78.1318 121.15 77.7484 120.993 77.5084 120.68C77.2684 120.36 77.1484 119.897 77.1484 119.29V115.7H78.1084V119.3C78.1084 119.66 78.1718 119.93 78.2984 120.11C78.4251 120.283 78.6384 120.37 78.9384 120.37C79.2318 120.37 79.4984 120.317 79.7384 120.21C79.9784 120.103 80.1984 119.96 80.3984 119.78V115.7H81.3584V120.15ZM85.8403 120.3C86.067 120.3 86.2836 120.327 86.4903 120.38C86.697 120.427 86.8803 120.507 87.0403 120.62C87.2003 120.733 87.327 120.88 87.4203 121.06C87.5136 121.24 87.5603 121.46 87.5603 121.72C87.5603 122.233 87.357 122.633 86.9503 122.92C86.5436 123.207 85.9403 123.35 85.1403 123.35C83.527 123.35 82.7203 122.84 82.7203 121.82C82.7203 121.593 82.787 121.383 82.9203 121.19C83.0536 120.997 83.2303 120.84 83.4503 120.72C83.2103 120.5 83.0903 120.197 83.0903 119.81C83.0903 119.61 83.1303 119.42 83.2103 119.24C83.2903 119.06 83.417 118.903 83.5903 118.77C83.277 118.437 83.1203 118.003 83.1203 117.47C83.1203 117.17 83.1703 116.9 83.2703 116.66C83.377 116.42 83.5203 116.22 83.7003 116.06C83.8803 115.893 84.0936 115.767 84.3403 115.68C84.587 115.593 84.857 115.55 85.1503 115.55C85.477 115.55 85.7803 115.607 86.0603 115.72C86.2136 115.713 86.347 115.647 86.4603 115.52C86.5736 115.393 86.6303 115.16 86.6303 114.82H86.8303L87.4103 115.02C87.4103 115.367 87.347 115.63 87.2203 115.81C87.1003 115.983 86.9336 116.107 86.7203 116.18C86.867 116.34 86.9803 116.53 87.0603 116.75C87.147 116.963 87.1903 117.203 87.1903 117.47C87.1903 117.77 87.137 118.04 87.0303 118.28C86.9303 118.513 86.787 118.713 86.6003 118.88C86.4203 119.04 86.2036 119.163 85.9503 119.25C85.7036 119.337 85.437 119.38 85.1503 119.38C84.737 119.38 84.377 119.3 84.0703 119.14C83.9903 119.213 83.927 119.303 83.8803 119.41C83.8403 119.51 83.8203 119.613 83.8203 119.72C83.8203 119.887 83.877 120.027 83.9903 120.14C84.1036 120.247 84.2803 120.3 84.5203 120.3H85.8403ZM84.0403 117.47C84.0403 117.683 84.0736 117.87 84.1403 118.03C84.207 118.183 84.2903 118.31 84.3903 118.41C84.497 118.51 84.617 118.583 84.7503 118.63C84.8836 118.677 85.017 118.7 85.1503 118.7C85.2836 118.7 85.417 118.677 85.5503 118.63C85.6836 118.583 85.8036 118.51 85.9103 118.41C86.017 118.31 86.1036 118.183 86.1703 118.03C86.237 117.87 86.2703 117.683 86.2703 117.47C86.2703 117.25 86.237 117.063 86.1703 116.91C86.1036 116.75 86.017 116.62 85.9103 116.52C85.8036 116.42 85.6836 116.347 85.5503 116.3C85.417 116.253 85.2836 116.23 85.1503 116.23C85.017 116.23 84.8836 116.253 84.7503 116.3C84.617 116.347 84.497 116.42 84.3903 116.52C84.2903 116.62 84.207 116.75 84.1403 116.91C84.0736 117.063 84.0403 117.25 84.0403 117.47ZM84.6003 121.08C84.3736 121.08 84.1636 121.053 83.9703 121C83.877 121.1 83.7903 121.213 83.7103 121.34C83.637 121.473 83.6003 121.617 83.6003 121.77C83.6003 122.33 84.1136 122.61 85.1403 122.61C85.6603 122.61 86.047 122.54 86.3003 122.4C86.5536 122.267 86.6803 122.043 86.6803 121.73C86.6803 121.59 86.6503 121.477 86.5903 121.39C86.537 121.31 86.467 121.247 86.3803 121.2C86.3003 121.153 86.207 121.12 86.1003 121.1C86.0003 121.087 85.9003 121.08 85.8003 121.08H84.6003ZM92.7163 120.15C92.7163 120.257 92.7396 120.33 92.7863 120.37C92.8396 120.403 92.9029 120.42 92.9763 120.42C93.0296 120.42 93.0863 120.413 93.1463 120.4C93.2063 120.38 93.2629 120.357 93.3163 120.33L93.4763 120.95C93.3696 121.003 93.2529 121.05 93.1263 121.09C92.9996 121.13 92.8596 121.15 92.7063 121.15C92.4729 121.15 92.2763 121.097 92.1163 120.99C91.9563 120.883 91.8563 120.683 91.8163 120.39C91.6096 120.59 91.3563 120.767 91.0563 120.92C90.7629 121.073 90.4163 121.15 90.0163 121.15C89.4896 121.15 89.1063 120.993 88.8663 120.68C88.6263 120.36 88.5063 119.897 88.5063 119.29V115.7H89.4663V119.3C89.4663 119.66 89.5296 119.93 89.6563 120.11C89.7829 120.283 89.9963 120.37 90.2963 120.37C90.5896 120.37 90.8563 120.317 91.0963 120.21C91.3363 120.103 91.5563 119.96 91.7563 119.78V115.7H92.7163V120.15ZM96.1381 116.28C95.8848 116.28 95.6715 116.337 95.4981 116.45C95.3248 116.563 95.2381 116.737 95.2381 116.97C95.2381 117.157 95.3048 117.313 95.4381 117.44C95.5715 117.56 95.7381 117.67 95.9381 117.77C96.1381 117.87 96.3515 117.97 96.5781 118.07C96.8115 118.17 97.0281 118.29 97.2281 118.43C97.4281 118.563 97.5948 118.73 97.7281 118.93C97.8615 119.123 97.9281 119.37 97.9281 119.67C97.9281 120.117 97.7648 120.477 97.4381 120.75C97.1115 121.017 96.6581 121.15 96.0781 121.15C95.5048 121.15 95.0648 121.017 94.7581 120.75C94.4581 120.477 94.2515 120.1 94.1381 119.62L94.9681 119.34C95.0015 119.56 95.0548 119.74 95.1281 119.88C95.2081 120.02 95.3015 120.13 95.4081 120.21C95.5148 120.29 95.6315 120.347 95.7581 120.38C95.8848 120.407 96.0148 120.42 96.1481 120.42C96.3748 120.42 96.5748 120.367 96.7481 120.26C96.9215 120.147 97.0081 119.973 97.0081 119.74C97.0081 119.567 96.9415 119.423 96.8081 119.31C96.6748 119.197 96.5081 119.09 96.3081 118.99C96.1081 118.89 95.8915 118.79 95.6581 118.69C95.4315 118.583 95.2181 118.457 95.0181 118.31C94.8181 118.163 94.6515 117.987 94.5181 117.78C94.3848 117.567 94.3181 117.303 94.3181 116.99C94.3181 116.837 94.3481 116.677 94.4081 116.51C94.4681 116.337 94.5681 116.18 94.7081 116.04C94.8548 115.9 95.0448 115.783 95.2781 115.69C95.5181 115.597 95.8115 115.55 96.1581 115.55C96.6181 115.55 96.9981 115.653 97.2981 115.86C97.6048 116.06 97.8248 116.4 97.9581 116.88L97.1281 117.16C97.0548 116.887 96.9348 116.673 96.7681 116.52C96.6015 116.36 96.3915 116.28 96.1381 116.28ZM98.7914 115.7H99.5514V114.6L100.311 114.4H100.511V115.7H101.911V116.4H100.511V119.86C100.511 120.18 100.668 120.34 100.981 120.34C101.188 120.34 101.445 120.247 101.751 120.06L102.011 120.66C101.811 120.813 101.585 120.933 101.331 121.02C101.085 121.107 100.851 121.15 100.631 121.15C100.278 121.15 100.008 121.033 99.8214 120.8C99.6414 120.56 99.5514 120.213 99.5514 119.76V116.4H98.7914V115.7ZM105.261 121V120.6C105.261 120.28 105.341 119.983 105.501 119.71C105.661 119.43 105.858 119.17 106.091 118.93C106.331 118.683 106.591 118.447 106.871 118.22C107.151 117.987 107.408 117.757 107.641 117.53C107.881 117.303 108.081 117.073 108.241 116.84C108.401 116.6 108.481 116.343 108.481 116.07C108.481 115.923 108.451 115.787 108.391 115.66C108.338 115.533 108.261 115.423 108.161 115.33C108.061 115.23 107.941 115.153 107.801 115.1C107.668 115.047 107.521 115.02 107.361 115.02C107.001 115.02 106.721 115.12 106.521 115.32C106.328 115.513 106.188 115.847 106.101 116.32L105.231 116.11C105.338 115.543 105.561 115.093 105.901 114.76C106.241 114.42 106.695 114.25 107.261 114.25C107.668 114.25 108.008 114.303 108.281 114.41C108.561 114.51 108.785 114.643 108.951 114.81C109.118 114.977 109.238 115.163 109.311 115.37C109.385 115.577 109.425 115.783 109.431 115.99C109.431 116.31 109.365 116.607 109.231 116.88C109.105 117.153 108.941 117.41 108.741 117.65C108.541 117.89 108.318 118.117 108.071 118.33C107.825 118.543 107.585 118.753 107.351 118.96C107.118 119.16 106.905 119.363 106.711 119.57C106.525 119.777 106.385 119.993 106.291 120.22H109.491V121H105.261ZM110.614 117.69C110.614 117.123 110.678 116.627 110.804 116.2C110.931 115.767 111.104 115.407 111.324 115.12C111.551 114.833 111.818 114.617 112.124 114.47C112.431 114.323 112.764 114.25 113.124 114.25C113.484 114.25 113.818 114.323 114.124 114.47C114.431 114.617 114.694 114.833 114.914 115.12C115.141 115.407 115.318 115.767 115.444 116.2C115.578 116.627 115.644 117.123 115.644 117.69C115.644 118.263 115.578 118.767 115.444 119.2C115.318 119.627 115.141 119.987 114.914 120.28C114.694 120.567 114.431 120.783 114.124 120.93C113.818 121.077 113.484 121.15 113.124 121.15C112.764 121.15 112.431 121.077 112.124 120.93C111.818 120.783 111.551 120.567 111.324 120.28C111.104 119.987 110.931 119.627 110.804 119.2C110.678 118.767 110.614 118.263 110.614 117.69ZM111.584 117.69C111.584 118.143 111.621 118.54 111.694 118.88C111.774 119.213 111.881 119.49 112.014 119.71C112.154 119.93 112.318 120.097 112.504 120.21C112.691 120.317 112.898 120.37 113.124 120.37C113.578 120.37 113.948 120.153 114.234 119.72C114.528 119.28 114.674 118.603 114.674 117.69C114.674 116.79 114.528 116.123 114.234 115.69C113.948 115.25 113.578 115.03 113.124 115.03C112.671 115.03 112.301 115.25 112.014 115.69C111.728 116.123 111.584 116.79 111.584 117.69ZM116.795 121V120.6C116.795 120.28 116.875 119.983 117.035 119.71C117.195 119.43 117.392 119.17 117.625 118.93C117.865 118.683 118.125 118.447 118.405 118.22C118.685 117.987 118.942 117.757 119.175 117.53C119.415 117.303 119.615 117.073 119.775 116.84C119.935 116.6 120.015 116.343 120.015 116.07C120.015 115.923 119.985 115.787 119.925 115.66C119.872 115.533 119.795 115.423 119.695 115.33C119.595 115.23 119.475 115.153 119.335 115.1C119.202 115.047 119.055 115.02 118.895 115.02C118.535 115.02 118.255 115.12 118.055 115.32C117.862 115.513 117.722 115.847 117.635 116.32L116.765 116.11C116.872 115.543 117.095 115.093 117.435 114.76C117.775 114.42 118.228 114.25 118.795 114.25C119.202 114.25 119.542 114.303 119.815 114.41C120.095 114.51 120.318 114.643 120.485 114.81C120.652 114.977 120.772 115.163 120.845 115.37C120.918 115.577 120.958 115.783 120.965 115.99C120.965 116.31 120.898 116.607 120.765 116.88C120.638 117.153 120.475 117.41 120.275 117.65C120.075 117.89 119.852 118.117 119.605 118.33C119.358 118.543 119.118 118.753 118.885 118.96C118.652 119.16 118.438 119.363 118.245 119.57C118.058 119.777 117.918 119.993 117.825 120.22H121.025V121H116.795ZM126.218 115.99C126.218 116.303 126.115 116.597 125.908 116.87C125.708 117.143 125.438 117.373 125.098 117.56C125.551 117.707 125.885 117.94 126.098 118.26C126.318 118.58 126.428 118.913 126.428 119.26C126.428 119.493 126.381 119.723 126.288 119.95C126.195 120.17 126.051 120.37 125.858 120.55C125.671 120.73 125.431 120.877 125.138 120.99C124.851 121.097 124.515 121.15 124.128 121.15C123.901 121.15 123.678 121.123 123.458 121.07C123.245 121.023 123.045 120.947 122.858 120.84C122.678 120.733 122.518 120.597 122.378 120.43C122.238 120.263 122.131 120.06 122.058 119.82L122.888 119.54C122.928 119.673 122.988 119.793 123.068 119.9C123.155 120 123.251 120.087 123.358 120.16C123.471 120.227 123.591 120.28 123.718 120.32C123.851 120.353 123.981 120.37 124.108 120.37C124.521 120.37 124.845 120.28 125.078 120.1C125.311 119.913 125.428 119.65 125.428 119.31C125.428 119.143 125.398 118.987 125.338 118.84C125.285 118.687 125.198 118.553 125.078 118.44C124.958 118.32 124.801 118.227 124.608 118.16C124.415 118.093 124.178 118.06 123.898 118.06C123.698 118.06 123.485 118.08 123.258 118.12V117.43H123.378C123.765 117.423 124.078 117.373 124.318 117.28C124.565 117.18 124.758 117.063 124.898 116.93C125.038 116.79 125.135 116.64 125.188 116.48C125.241 116.32 125.268 116.17 125.268 116.03C125.268 115.743 125.168 115.503 124.968 115.31C124.768 115.117 124.508 115.02 124.188 115.02C123.888 115.02 123.635 115.11 123.428 115.29C123.221 115.47 123.071 115.78 122.978 116.22L122.118 116.01C122.231 115.477 122.465 115.05 122.818 114.73C123.171 114.41 123.605 114.25 124.118 114.25C124.525 114.25 124.861 114.303 125.128 114.41C125.401 114.51 125.618 114.643 125.778 114.81C125.938 114.977 126.051 115.163 126.118 115.37C126.185 115.577 126.218 115.783 126.218 115.99Z" fill="#78B0F9"/>
<path d="M48.016 103.044C48.016 102.724 47.912 102.46 47.704 102.252C47.496 102.044 47.236 101.86 46.924 101.7C46.62 101.54 46.284 101.384 45.916 101.232C45.556 101.08 45.22 100.896 44.908 100.68C44.604 100.464 44.348 100.2 44.14 99.888C43.932 99.568 43.828 99.164 43.828 98.676C43.828 98.436 43.872 98.184 43.96 97.92C44.056 97.656 44.208 97.412 44.416 97.188C44.624 96.964 44.896 96.78 45.232 96.636C45.576 96.492 46 96.42 46.504 96.42C47.168 96.42 47.72 96.564 48.16 96.852C48.608 97.132 48.928 97.596 49.12 98.244L48.076 98.616C47.94 98.224 47.728 97.916 47.44 97.692C47.152 97.468 46.788 97.356 46.348 97.356C45.94 97.356 45.608 97.464 45.352 97.68C45.104 97.896 44.98 98.196 44.98 98.58C44.98 98.908 45.084 99.18 45.292 99.396C45.5 99.604 45.756 99.792 46.06 99.96C46.372 100.12 46.708 100.276 47.068 100.428C47.436 100.58 47.772 100.76 48.076 100.968C48.388 101.168 48.648 101.416 48.856 101.712C49.064 102 49.168 102.368 49.168 102.816C49.168 103.064 49.12 103.328 49.024 103.608C48.928 103.88 48.772 104.136 48.556 104.376C48.34 104.608 48.052 104.8 47.692 104.952C47.34 105.104 46.9 105.18 46.372 105.18C45.66 105.18 45.064 105.008 44.584 104.664C44.112 104.312 43.776 103.74 43.576 102.948L44.608 102.576C44.888 103.688 45.512 104.244 46.48 104.244C46.928 104.244 47.296 104.132 47.584 103.908C47.872 103.676 48.016 103.388 48.016 103.044ZM50.3969 101.82C50.3969 101.268 50.4689 100.784 50.6129 100.368C50.7649 99.944 50.9689 99.592 51.2249 99.312C51.4809 99.024 51.7849 98.812 52.1369 98.676C52.4969 98.532 52.8809 98.46 53.2889 98.46C53.6969 98.46 54.0769 98.532 54.4289 98.676C54.7889 98.812 55.0969 99.024 55.3529 99.312C55.6169 99.592 55.8209 99.944 55.9649 100.368C56.1169 100.784 56.1929 101.268 56.1929 101.82C56.1929 102.372 56.1169 102.86 55.9649 103.284C55.8209 103.7 55.6169 104.052 55.3529 104.34C55.0969 104.62 54.7889 104.832 54.4289 104.976C54.0769 105.112 53.6969 105.18 53.2889 105.18C52.8809 105.18 52.4969 105.112 52.1369 104.976C51.7849 104.832 51.4809 104.62 51.2249 104.34C50.9689 104.052 50.7649 103.7 50.6129 103.284C50.4689 102.86 50.3969 102.372 50.3969 101.82ZM51.5969 101.82C51.5969 102.644 51.7529 103.256 52.0649 103.656C52.3849 104.048 52.7929 104.244 53.2889 104.244C53.7929 104.244 54.2009 104.048 54.5129 103.656C54.8329 103.256 54.9929 102.644 54.9929 101.82C54.9929 100.996 54.8329 100.388 54.5129 99.996C54.2009 99.596 53.7929 99.396 53.2889 99.396C52.7929 99.396 52.3849 99.596 52.0649 99.996C51.7529 100.388 51.5969 100.996 51.5969 101.82ZM57.4534 98.64H58.3654V97.908C58.3654 97.156 58.5254 96.62 58.8454 96.3C59.1734 95.98 59.6454 95.82 60.2614 95.82C60.6694 95.82 61.0094 95.904 61.2814 96.072C61.5614 96.24 61.7894 96.56 61.9654 97.032L61.0054 97.356C60.9334 97.164 60.8414 97.016 60.7294 96.912C60.6174 96.808 60.4574 96.756 60.2494 96.756C60.0094 96.756 59.8254 96.84 59.6974 97.008C59.5774 97.168 59.5174 97.428 59.5174 97.788V98.64H61.0774V99.48H59.5174V105H58.3654V99.48H57.4534V98.64ZM61.772 98.64H62.684V97.32L63.596 97.08H63.836V98.64H65.516V99.48H63.836V103.632C63.836 104.016 64.024 104.208 64.4 104.208C64.648 104.208 64.956 104.096 65.324 103.872L65.636 104.592C65.396 104.776 65.124 104.92 64.82 105.024C64.524 105.128 64.244 105.18 63.98 105.18C63.556 105.18 63.232 105.04 63.008 104.76C62.792 104.472 62.684 104.056 62.684 103.512V99.48H61.772V98.64ZM70.5736 100.536L69.4336 105H67.8616L66.1816 98.64H67.3456L68.7136 103.968L70.0576 98.64H71.1016L72.4336 103.968L73.8136 98.64H74.8576L73.1776 105H71.7256L70.5736 100.536ZM78.3793 99.396C77.7073 99.396 77.2713 99.728 77.0713 100.392L76.0753 100.056C76.3953 98.992 77.1633 98.46 78.3793 98.46C79.2193 98.46 79.8233 98.672 80.1913 99.096C80.5673 99.512 80.7553 100.196 80.7553 101.148V103.98C80.7553 104.108 80.7833 104.196 80.8393 104.244C80.9033 104.284 80.9793 104.304 81.0673 104.304C81.1313 104.304 81.1993 104.296 81.2713 104.28C81.3433 104.256 81.4113 104.228 81.4753 104.196L81.6673 104.94C81.5393 105.004 81.3993 105.06 81.2473 105.108C81.0953 105.156 80.9273 105.18 80.7433 105.18C80.4553 105.18 80.2113 105.112 80.0113 104.976C79.8193 104.832 79.7033 104.56 79.6633 104.16C79.5433 104.288 79.4073 104.416 79.2553 104.544C79.1033 104.664 78.9353 104.772 78.7513 104.868C78.5753 104.964 78.3833 105.04 78.1753 105.096C77.9753 105.152 77.7633 105.18 77.5393 105.18C77.2993 105.18 77.0713 105.132 76.8553 105.036C76.6473 104.948 76.4673 104.824 76.3153 104.664C76.1633 104.504 76.0433 104.316 75.9553 104.1C75.8673 103.876 75.8233 103.636 75.8233 103.38C75.8233 102.724 76.0433 102.212 76.4833 101.844C76.9313 101.476 77.5473 101.292 78.3313 101.292C78.5473 101.292 78.7633 101.308 78.9793 101.34C79.1953 101.372 79.4033 101.42 79.6033 101.484V100.728C79.6033 100.312 79.4953 99.988 79.2793 99.756C79.0633 99.516 78.7633 99.396 78.3793 99.396ZM77.8873 104.244C78.1913 104.244 78.4873 104.172 78.7753 104.028C79.0713 103.876 79.3473 103.672 79.6033 103.416V102.252C79.4353 102.196 79.2553 102.152 79.0633 102.12C78.8713 102.088 78.6833 102.072 78.4993 102.072C78.2993 102.072 78.1073 102.092 77.9233 102.132C77.7393 102.172 77.5753 102.24 77.4313 102.336C77.2953 102.432 77.1833 102.56 77.0953 102.72C77.0153 102.872 76.9753 103.06 76.9753 103.284C76.9753 103.548 77.0593 103.776 77.2273 103.968C77.3953 104.152 77.6153 104.244 77.8873 104.244ZM83.9039 98.64L83.9639 99.42C84.2119 99.14 84.5079 98.916 84.8519 98.748C85.1959 98.572 85.5599 98.476 85.9439 98.46L86.0039 99.324L85.8599 99.456C85.4839 99.464 85.1439 99.532 84.8399 99.66C84.5439 99.78 84.2919 99.948 84.0839 100.164V105H82.9319V98.64H83.9039ZM89.6907 104.244C90.0987 104.244 90.4507 104.168 90.7467 104.016C91.0507 103.856 91.2947 103.688 91.4787 103.512L91.9947 104.136C91.7467 104.416 91.4227 104.66 91.0227 104.868C90.6227 105.076 90.1667 105.18 89.6547 105.18C89.2307 105.18 88.8387 105.112 88.4787 104.976C88.1187 104.832 87.8067 104.62 87.5427 104.34C87.2867 104.052 87.0827 103.7 86.9307 103.284C86.7867 102.86 86.7147 102.372 86.7147 101.82C86.7147 101.268 86.7867 100.784 86.9307 100.368C87.0747 99.944 87.2747 99.592 87.5307 99.312C87.7867 99.024 88.0867 98.812 88.4307 98.676C88.7827 98.532 89.1627 98.46 89.5707 98.46C89.9467 98.46 90.2907 98.52 90.6027 98.64C90.9227 98.752 91.1947 98.928 91.4187 99.168C91.6427 99.408 91.8147 99.708 91.9347 100.068C92.0627 100.42 92.1267 100.836 92.1267 101.316V102.156H87.9267C87.9747 102.868 88.1587 103.396 88.4787 103.74C88.8067 104.076 89.2107 104.244 89.6907 104.244ZM89.5827 99.396C89.1507 99.396 88.7827 99.556 88.4787 99.876C88.1827 100.188 88.0027 100.668 87.9387 101.316H90.9867C90.9867 100.7 90.8627 100.228 90.6147 99.9C90.3747 99.564 90.0307 99.396 89.5827 99.396ZM101.599 97.536H98.0709V100.332H101.239V101.268H98.0709V104.064H101.599V105H96.9189V96.6H101.599V97.536ZM104.307 98.64L104.367 99.408C104.615 99.16 104.907 98.94 105.243 98.748C105.579 98.556 105.955 98.46 106.371 98.46C106.747 98.46 107.067 98.504 107.331 98.592C107.595 98.68 107.807 98.82 107.967 99.012C108.135 99.196 108.255 99.44 108.327 99.744C108.407 100.048 108.447 100.416 108.447 100.848V105H107.295V100.728C107.295 99.84 106.891 99.396 106.083 99.396C105.803 99.396 105.527 99.46 105.255 99.588C104.983 99.716 104.727 99.892 104.487 100.116V105H103.335V98.64H104.307ZM113.634 104.16C113.906 104.16 114.166 104.192 114.414 104.256C114.662 104.312 114.882 104.408 115.074 104.544C115.266 104.68 115.418 104.856 115.53 105.072C115.642 105.288 115.698 105.552 115.698 105.864C115.698 106.48 115.454 106.96 114.966 107.304C114.478 107.648 113.754 107.82 112.794 107.82C110.858 107.82 109.89 107.208 109.89 105.984C109.89 105.712 109.97 105.46 110.13 105.228C110.29 104.996 110.502 104.808 110.766 104.664C110.478 104.4 110.334 104.036 110.334 103.572C110.334 103.332 110.382 103.104 110.478 102.888C110.574 102.672 110.726 102.484 110.934 102.324C110.558 101.924 110.37 101.404 110.37 100.764C110.37 100.404 110.43 100.08 110.55 99.792C110.678 99.504 110.85 99.264 111.066 99.072C111.282 98.872 111.538 98.72 111.834 98.616C112.13 98.512 112.454 98.46 112.806 98.46C113.198 98.46 113.562 98.528 113.898 98.664C114.082 98.656 114.242 98.576 114.378 98.424C114.514 98.272 114.582 97.992 114.582 97.584H114.822L115.518 97.824C115.518 98.24 115.442 98.556 115.29 98.772C115.146 98.98 114.946 99.128 114.69 99.216C114.866 99.408 115.002 99.636 115.098 99.9C115.202 100.156 115.254 100.444 115.254 100.764C115.254 101.124 115.19 101.448 115.062 101.736C114.942 102.016 114.77 102.256 114.546 102.456C114.33 102.648 114.07 102.796 113.766 102.9C113.47 103.004 113.15 103.056 112.806 103.056C112.31 103.056 111.878 102.96 111.51 102.768C111.414 102.856 111.338 102.964 111.282 103.092C111.234 103.212 111.21 103.336 111.21 103.464C111.21 103.664 111.278 103.832 111.414 103.968C111.55 104.096 111.762 104.16 112.05 104.16H113.634ZM111.474 100.764C111.474 101.02 111.514 101.244 111.594 101.436C111.674 101.62 111.774 101.772 111.894 101.892C112.022 102.012 112.166 102.1 112.326 102.156C112.486 102.212 112.646 102.24 112.806 102.24C112.966 102.24 113.126 102.212 113.286 102.156C113.446 102.1 113.59 102.012 113.718 101.892C113.846 101.772 113.95 101.62 114.03 101.436C114.11 101.244 114.15 101.02 114.15 100.764C114.15 100.5 114.11 100.276 114.03 100.092C113.95 99.9 113.846 99.744 113.718 99.624C113.59 99.504 113.446 99.416 113.286 99.36C113.126 99.304 112.966 99.276 112.806 99.276C112.646 99.276 112.486 99.304 112.326 99.36C112.166 99.416 112.022 99.504 111.894 99.624C111.774 99.744 111.674 99.9 111.594 100.092C111.514 100.276 111.474 100.5 111.474 100.764ZM112.146 105.096C111.874 105.096 111.622 105.064 111.39 105C111.278 105.12 111.174 105.256 111.078 105.408C110.99 105.568 110.946 105.74 110.946 105.924C110.946 106.596 111.562 106.932 112.794 106.932C113.418 106.932 113.882 106.848 114.186 106.68C114.49 106.52 114.642 106.252 114.642 105.876C114.642 105.708 114.606 105.572 114.534 105.468C114.47 105.372 114.386 105.296 114.282 105.24C114.186 105.184 114.074 105.144 113.946 105.12C113.826 105.104 113.706 105.096 113.586 105.096H112.146ZM118.105 105H116.953V98.64H118.105V105ZM116.797 96.636C116.797 96.38 116.865 96.192 117.001 96.072C117.145 95.944 117.321 95.88 117.529 95.88C117.745 95.88 117.921 95.944 118.057 96.072C118.201 96.192 118.273 96.38 118.273 96.636C118.273 96.892 118.201 97.084 118.057 97.212C117.921 97.332 117.745 97.392 117.529 97.392C117.321 97.392 117.145 97.332 117.001 97.212C116.865 97.084 116.797 96.892 116.797 96.636ZM121.236 98.64L121.296 99.408C121.544 99.16 121.836 98.94 122.172 98.748C122.508 98.556 122.884 98.46 123.3 98.46C123.676 98.46 123.996 98.504 124.26 98.592C124.524 98.68 124.736 98.82 124.896 99.012C125.064 99.196 125.184 99.44 125.256 99.744C125.336 100.048 125.376 100.416 125.376 100.848V105H124.224V100.728C124.224 99.84 123.82 99.396 123.012 99.396C122.732 99.396 122.456 99.46 122.184 99.588C121.912 99.716 121.656 99.892 121.416 100.116V105H120.264V98.64H121.236ZM130.034 104.244C130.442 104.244 130.794 104.168 131.09 104.016C131.394 103.856 131.638 103.688 131.822 103.512L132.338 104.136C132.09 104.416 131.766 104.66 131.366 104.868C130.966 105.076 130.51 105.18 129.998 105.18C129.574 105.18 129.182 105.112 128.822 104.976C128.462 104.832 128.15 104.62 127.886 104.34C127.63 104.052 127.426 103.7 127.274 103.284C127.13 102.86 127.058 102.372 127.058 101.82C127.058 101.268 127.13 100.784 127.274 100.368C127.418 99.944 127.618 99.592 127.874 99.312C128.13 99.024 128.43 98.812 128.774 98.676C129.126 98.532 129.506 98.46 129.914 98.46C130.29 98.46 130.634 98.52 130.946 98.64C131.266 98.752 131.538 98.928 131.762 99.168C131.986 99.408 132.158 99.708 132.278 100.068C132.406 100.42 132.47 100.836 132.47 101.316V102.156H128.27C128.318 102.868 128.502 103.396 128.822 103.74C129.15 104.076 129.554 104.244 130.034 104.244ZM129.926 99.396C129.494 99.396 129.126 99.556 128.822 99.876C128.526 100.188 128.346 100.668 128.282 101.316H131.33C131.33 100.7 131.206 100.228 130.958 99.9C130.718 99.564 130.374 99.396 129.926 99.396ZM136.884 104.244C137.292 104.244 137.644 104.168 137.94 104.016C138.244 103.856 138.488 103.688 138.672 103.512L139.188 104.136C138.94 104.416 138.616 104.66 138.216 104.868C137.816 105.076 137.36 105.18 136.848 105.18C136.424 105.18 136.032 105.112 135.672 104.976C135.312 104.832 135 104.62 134.736 104.34C134.48 104.052 134.276 103.7 134.124 103.284C133.98 102.86 133.908 102.372 133.908 101.82C133.908 101.268 133.98 100.784 134.124 100.368C134.268 99.944 134.468 99.592 134.724 99.312C134.98 99.024 135.28 98.812 135.624 98.676C135.976 98.532 136.356 98.46 136.764 98.46C137.14 98.46 137.484 98.52 137.796 98.64C138.116 98.752 138.388 98.928 138.612 99.168C138.836 99.408 139.008 99.708 139.128 100.068C139.256 100.42 139.32 100.836 139.32 101.316V102.156H135.12C135.168 102.868 135.352 103.396 135.672 103.74C136 104.076 136.404 104.244 136.884 104.244ZM136.776 99.396C136.344 99.396 135.976 99.556 135.672 99.876C135.376 100.188 135.196 100.668 135.132 101.316H138.18C138.18 100.7 138.056 100.228 137.808 99.9C137.568 99.564 137.224 99.396 136.776 99.396ZM142.09 98.64L142.15 99.42C142.398 99.14 142.694 98.916 143.038 98.748C143.382 98.572 143.746 98.476 144.13 98.46L144.19 99.324L144.046 99.456C143.67 99.464 143.33 99.532 143.026 99.66C142.73 99.78 142.478 99.948 142.27 100.164V105H141.118V98.64H142.09ZM146.413 105H145.261V98.64H146.413V105ZM145.105 96.636C145.105 96.38 145.173 96.192 145.309 96.072C145.453 95.944 145.629 95.88 145.837 95.88C146.053 95.88 146.229 95.944 146.365 96.072C146.509 96.192 146.581 96.38 146.581 96.636C146.581 96.892 146.509 97.084 146.365 97.212C146.229 97.332 146.053 97.392 145.837 97.392C145.629 97.392 145.453 97.332 145.309 97.212C145.173 97.084 145.105 96.892 145.105 96.636ZM149.543 98.64L149.603 99.408C149.851 99.16 150.143 98.94 150.479 98.748C150.815 98.556 151.191 98.46 151.607 98.46C151.983 98.46 152.303 98.504 152.567 98.592C152.831 98.68 153.043 98.82 153.203 99.012C153.371 99.196 153.491 99.44 153.563 99.744C153.643 100.048 153.683 100.416 153.683 100.848V105H152.531V100.728C152.531 99.84 152.127 99.396 151.319 99.396C151.039 99.396 150.763 99.46 150.491 99.588C150.219 99.716 149.963 99.892 149.723 100.116V105H148.571V98.64H149.543ZM158.87 104.16C159.142 104.16 159.402 104.192 159.65 104.256C159.898 104.312 160.118 104.408 160.31 104.544C160.502 104.68 160.654 104.856 160.766 105.072C160.878 105.288 160.934 105.552 160.934 105.864C160.934 106.48 160.69 106.96 160.202 107.304C159.714 107.648 158.99 107.82 158.03 107.82C156.094 107.82 155.126 107.208 155.126 105.984C155.126 105.712 155.206 105.46 155.366 105.228C155.526 104.996 155.738 104.808 156.002 104.664C155.714 104.4 155.57 104.036 155.57 103.572C155.57 103.332 155.618 103.104 155.714 102.888C155.81 102.672 155.962 102.484 156.17 102.324C155.794 101.924 155.606 101.404 155.606 100.764C155.606 100.404 155.666 100.08 155.786 99.792C155.914 99.504 156.086 99.264 156.302 99.072C156.518 98.872 156.774 98.72 157.07 98.616C157.366 98.512 157.69 98.46 158.042 98.46C158.434 98.46 158.798 98.528 159.134 98.664C159.318 98.656 159.478 98.576 159.614 98.424C159.75 98.272 159.818 97.992 159.818 97.584H160.058L160.754 97.824C160.754 98.24 160.678 98.556 160.526 98.772C160.382 98.98 160.182 99.128 159.926 99.216C160.102 99.408 160.238 99.636 160.334 99.9C160.438 100.156 160.49 100.444 160.49 100.764C160.49 101.124 160.426 101.448 160.298 101.736C160.178 102.016 160.006 102.256 159.782 102.456C159.566 102.648 159.306 102.796 159.002 102.9C158.706 103.004 158.386 103.056 158.042 103.056C157.546 103.056 157.114 102.96 156.746 102.768C156.65 102.856 156.574 102.964 156.518 103.092C156.47 103.212 156.446 103.336 156.446 103.464C156.446 103.664 156.514 103.832 156.65 103.968C156.786 104.096 156.998 104.16 157.286 104.16H158.87ZM156.71 100.764C156.71 101.02 156.75 101.244 156.83 101.436C156.91 101.62 157.01 101.772 157.13 101.892C157.258 102.012 157.402 102.1 157.562 102.156C157.722 102.212 157.882 102.24 158.042 102.24C158.202 102.24 158.362 102.212 158.522 102.156C158.682 102.1 158.826 102.012 158.954 101.892C159.082 101.772 159.186 101.62 159.266 101.436C159.346 101.244 159.386 101.02 159.386 100.764C159.386 100.5 159.346 100.276 159.266 100.092C159.186 99.9 159.082 99.744 158.954 99.624C158.826 99.504 158.682 99.416 158.522 99.36C158.362 99.304 158.202 99.276 158.042 99.276C157.882 99.276 157.722 99.304 157.562 99.36C157.402 99.416 157.258 99.504 157.13 99.624C157.01 99.744 156.91 99.9 156.83 100.092C156.75 100.276 156.71 100.5 156.71 100.764ZM157.382 105.096C157.11 105.096 156.858 105.064 156.626 105C156.514 105.12 156.41 105.256 156.314 105.408C156.226 105.568 156.182 105.74 156.182 105.924C156.182 106.596 156.798 106.932 158.03 106.932C158.654 106.932 159.118 106.848 159.422 106.68C159.726 106.52 159.878 106.252 159.878 105.876C159.878 105.708 159.842 105.572 159.77 105.468C159.706 105.372 159.622 105.296 159.518 105.24C159.422 105.184 159.31 105.144 159.182 105.12C159.062 105.104 158.942 105.096 158.822 105.096H157.382ZM166.335 105H165.183V96.6H166.335V105ZM169.466 98.64L169.526 99.408C169.774 99.16 170.066 98.94 170.402 98.748C170.738 98.556 171.114 98.46 171.53 98.46C171.906 98.46 172.226 98.504 172.49 98.592C172.754 98.68 172.966 98.82 173.126 99.012C173.294 99.196 173.414 99.44 173.486 99.744C173.566 100.048 173.606 100.416 173.606 100.848V105H172.454V100.728C172.454 99.84 172.05 99.396 171.242 99.396C170.962 99.396 170.686 99.46 170.414 99.588C170.142 99.716 169.886 99.892 169.646 100.116V105H168.494V98.64H169.466ZM175.109 98.64H176.021V97.32L176.933 97.08H177.173V98.64H178.853V99.48H177.173V103.632C177.173 104.016 177.361 104.208 177.737 104.208C177.985 104.208 178.293 104.096 178.661 103.872L178.973 104.592C178.733 104.776 178.461 104.92 178.157 105.024C177.861 105.128 177.581 105.18 177.317 105.18C176.893 105.18 176.569 105.04 176.345 104.76C176.129 104.472 176.021 104.056 176.021 103.512V99.48H175.109V98.64ZM182.794 104.244C183.202 104.244 183.554 104.168 183.85 104.016C184.154 103.856 184.398 103.688 184.582 103.512L185.098 104.136C184.85 104.416 184.526 104.66 184.126 104.868C183.726 105.076 183.27 105.18 182.758 105.18C182.334 105.18 181.942 105.112 181.582 104.976C181.222 104.832 180.91 104.62 180.646 104.34C180.39 104.052 180.186 103.7 180.034 103.284C179.89 102.86 179.818 102.372 179.818 101.82C179.818 101.268 179.89 100.784 180.034 100.368C180.178 99.944 180.378 99.592 180.634 99.312C180.89 99.024 181.19 98.812 181.534 98.676C181.886 98.532 182.266 98.46 182.674 98.46C183.05 98.46 183.394 98.52 183.706 98.64C184.026 98.752 184.298 98.928 184.522 99.168C184.746 99.408 184.918 99.708 185.038 100.068C185.166 100.42 185.23 100.836 185.23 101.316V102.156H181.03C181.078 102.868 181.262 103.396 181.582 103.74C181.91 104.076 182.314 104.244 182.794 104.244ZM182.686 99.396C182.254 99.396 181.886 99.556 181.582 99.876C181.286 100.188 181.106 100.668 181.042 101.316H184.09C184.09 100.7 183.966 100.228 183.718 99.9C183.478 99.564 183.134 99.396 182.686 99.396ZM188 98.64L188.06 99.42C188.308 99.14 188.604 98.916 188.948 98.748C189.292 98.572 189.656 98.476 190.04 98.46L190.1 99.324L189.956 99.456C189.58 99.464 189.24 99.532 188.936 99.66C188.64 99.78 188.388 99.948 188.18 100.164V105H187.028V98.64H188ZM192.143 98.64L192.203 99.408C192.451 99.16 192.743 98.94 193.079 98.748C193.415 98.556 193.791 98.46 194.207 98.46C194.583 98.46 194.903 98.504 195.167 98.592C195.431 98.68 195.643 98.82 195.803 99.012C195.971 99.196 196.091 99.44 196.163 99.744C196.243 100.048 196.283 100.416 196.283 100.848V105H195.131V100.728C195.131 99.84 194.727 99.396 193.919 99.396C193.639 99.396 193.363 99.46 193.091 99.588C192.819 99.716 192.563 99.892 192.323 100.116V105H191.171V98.64H192.143Z" fill="#A6ADB8"/>
</g>
<g filter="url(#filter1_dddd_141_111)">
<ellipse cx="138" cy="10.199" rx="10" ry="10.199" fill="white"/>
</g>
<defs>
<filter id="filter0_d_141_111" x="7" y="10" width="258" height="175" filterUnits="userSpaceOnUse" color-interpolation-filters="sRGB">
<feFlood flood-opacity="0" result="BackgroundImageFix"/>
<feColorMatrix in="SourceAlpha" type="matrix" values="0 0 0 0 0 0 0 0 0 0 0 0 0 0 0 0 0 0 127 0" result="hardAlpha"/>
<feOffset dy="4"/>
<feGaussianBlur stdDeviation="2"/>
<feComposite in2="hardAlpha" operator="out"/>
<feColorMatrix type="matrix" values="0 0 0 0 0 0 0 0 0 0 0 0 0 0 0 0 0 0 0.25 0"/>
<feBlend mode="normal" in2="BackgroundImageFix" result="effect1_dropShadow_141_111"/>
<feBlend mode="normal" in="SourceGraphic" in2="effect1_dropShadow_141_111" result="shape"/>
</filter>
<filter id="filter1_dddd_141_111" x="124" y="0" width="28" height="28.3979" filterUnits="userSpaceOnUse" color-interpolation-filters="sRGB">
<feFlood flood-opacity="0" result="BackgroundImageFix"/>
<feColorMatrix in="SourceAlpha" type="matrix" values="0 0 0 0 0 0 0 0 0 0 0 0 0 0 0 0 0 0 127 0" result="hardAlpha"/>
<feOffset dy="4"/>
<feGaussianBlur stdDeviation="2"/>
<feComposite in2="hardAlpha" operator="out"/>
<feColorMatrix type="matrix" values="0 0 0 0 0 0 0 0 0 0 0 0 0 0 0 0 0 0 0.25 0"/>
<feBlend mode="normal" in2="BackgroundImageFix" result="effect1_dropShadow_141_111"/>
<feColorMatrix in="SourceAlpha" type="matrix" values="0 0 0 0 0 0 0 0 0 0 0 0 0 0 0 0 0 0 127 0" result="hardAlpha"/>
<feOffset dy="4"/>
<feGaussianBlur stdDeviation="2"/>
<feComposite in2="hardAlpha" operator="out"/>
<feColorMatrix type="matrix" values="0 0 0 0 0 0 0 0 0 0 0 0 0 0 0 0 0 0 0.25 0"/>
<feBlend mode="normal" in2="effect1_dropShadow_141_111" result="effect2_dropShadow_141_111"/>
<feColorMatrix in="SourceAlpha" type="matrix" values="0 0 0 0 0 0 0 0 0 0 0 0 0 0 0 0 0 0 127 0" result="hardAlpha"/>
<feOffset dy="4"/>
<feGaussianBlur stdDeviation="2"/>
<feComposite in2="hardAlpha" operator="out"/>
<feColorMatrix type="matrix" values="0 0 0 0 0 0 0 0 0 0 0 0 0 0 0 0 0 0 0.25 0"/>
<feBlend mode="normal" in2="effect2_dropShadow_141_111" result="effect3_dropShadow_141_111"/>
<feColorMatrix in="SourceAlpha" type="matrix" values="0 0 0 0 0 0 0 0 0 0 0 0 0 0 0 0 0 0 127 0" result="hardAlpha"/>
<feOffset dy="4"/>
<feGaussianBlur stdDeviation="2"/>
<feComposite in2="hardAlpha" operator="out"/>
<feColorMatrix type="matrix" values="0 0 0 0 0 0 0 0 0 0 0 0 0 0 0 0 0 0 0.25 0"/>
<feBlend mode="normal" in2="effect3_dropShadow_141_111" result="effect4_dropShadow_141_111"/>
<feBlend mode="normal" in="SourceGraphic" in2="effect4_dropShadow_141_111" result="shape"/>
</filter>
<clipPath id="clip0_141_111">
<rect width="270" height="137.319" fill="white" transform="translate(0 10.2786)"/>
</clipPath>
</defs>
</svg>
