<svg width="261" height="40" viewBox="0 0 261 40" fill="none" xmlns="http://www.w3.org/2000/svg">
<path d="M32.2266 6.18182C32.2266 5.56061 32.3781 4.99432 32.6811 4.48295C32.9841 3.97159 33.3913 3.56439 33.9027 3.26136C34.4141 2.95833 34.9804 2.80682 35.6016 2.80682C36.1394 2.80682 36.6357 2.92235 37.0902 3.15341C37.5485 3.38447 37.9273 3.70076 38.2266 4.10227C38.5258 4.5 38.7114 4.95076 38.7834 5.45455H37.4084C37.3326 5.06439 37.1224 4.74621 36.7777 4.5C36.433 4.25 36.041 4.125 35.6016 4.125C35.2228 4.125 34.8781 4.2178 34.5675 4.40341C34.2569 4.58902 34.0088 4.83712 33.8232 5.14773C33.6375 5.45833 33.5447 5.80303 33.5447 6.18182C33.5447 6.56061 33.6375 6.9053 33.8232 7.21591C34.0088 7.52652 34.2569 7.77462 34.5675 7.96023C34.8781 8.14583 35.2228 8.23864 35.6016 8.23864C36.041 8.23864 36.4122 8.11553 36.7152 7.86932C37.022 7.61932 37.2152 7.29924 37.2947 6.90909H38.6697C38.5978 7.41288 38.4216 7.86553 38.1413 8.26705C37.861 8.66477 37.5012 8.97917 37.0618 9.21023C36.6262 9.44129 36.1394 9.55682 35.6016 9.55682C34.9804 9.55682 34.4141 9.4053 33.9027 9.10227C33.3913 8.79924 32.9841 8.39205 32.6811 7.88068C32.3781 7.36932 32.2266 6.80303 32.2266 6.18182ZM35.5447 12.1818C34.719 12.1818 33.9425 12.0265 33.2152 11.7159C32.4917 11.4053 31.8535 10.9754 31.3004 10.4261C30.7512 9.87311 30.3194 9.23485 30.005 8.51136C29.6944 7.78788 29.541 7.01136 29.5447 6.18182C29.5485 5.35227 29.7057 4.57576 30.0163 3.85227C30.3307 3.12879 30.7625 2.49242 31.3118 1.94318C31.861 1.39015 32.4974 0.958333 33.2209 0.647727C33.9444 0.337121 34.719 0.181818 35.5447 0.181818C36.3743 0.181818 37.1508 0.337121 37.8743 0.647727C38.6016 0.958333 39.2379 1.39015 39.7834 1.94318C40.3326 2.49242 40.7625 3.12879 41.0732 3.85227C41.3838 4.57576 41.541 5.35227 41.5447 6.18182C41.5485 7.01136 41.3951 7.78788 41.0845 8.51136C40.7739 9.23485 40.344 9.87311 39.7947 10.4261C39.2455 10.9754 38.6072 11.4053 37.88 11.7159C37.1527 12.0265 36.3743 12.1818 35.5447 12.1818ZM35.5447 10.8636C36.1925 10.8636 36.8004 10.7424 37.3686 10.5C37.9368 10.2576 38.4349 9.92235 38.8629 9.49432C39.291 9.06629 39.6262 8.57008 39.8686 8.00568C40.111 7.4375 40.2304 6.83144 40.2266 6.1875C40.2228 5.53977 40.0997 4.93182 39.8572 4.36364C39.6148 3.79545 39.2796 3.29735 38.8516 2.86932C38.4235 2.44129 37.9273 2.10606 37.3629 1.86364C36.7985 1.62121 36.1925 1.5 35.5447 1.5C34.9008 1.5 34.2966 1.62121 33.7322 1.86364C33.1679 2.10606 32.6716 2.44318 32.2436 2.875C31.8156 3.30303 31.4785 3.80114 31.2322 4.36932C30.9898 4.93371 30.8667 5.53977 30.8629 6.1875C30.8591 6.82765 30.9785 7.43182 31.2209 8C31.4633 8.56439 31.7985 9.06061 32.2266 9.48864C32.6584 9.91667 33.1565 10.2538 33.7209 10.5C34.2891 10.7424 34.897 10.8636 35.5447 10.8636ZM48.5717 12V10.9773L52.4126 6.77273C52.8634 6.2803 53.2346 5.85227 53.5263 5.48864C53.8179 5.12121 54.0339 4.77652 54.174 4.45455C54.3179 4.12879 54.3899 3.78788 54.3899 3.43182C54.3899 3.02273 54.2914 2.66856 54.0945 2.36932C53.9013 2.07008 53.6361 1.83901 53.299 1.67614C52.9619 1.51326 52.5831 1.43182 52.1626 1.43182C51.7157 1.43182 51.3255 1.52462 50.9922 1.71023C50.6626 1.89205 50.407 2.14773 50.2251 2.47727C50.0471 2.80682 49.9581 3.19318 49.9581 3.63636H48.6172C48.6172 2.95455 48.7744 2.35606 49.0888 1.84091C49.4032 1.32576 49.8312 0.924242 50.3729 0.636363C50.9183 0.348484 51.5301 0.204545 52.2081 0.204545C52.8899 0.204545 53.4941 0.348484 54.0206 0.636363C54.5471 0.924242 54.96 1.3125 55.2592 1.80114C55.5585 2.28977 55.7081 2.83333 55.7081 3.43182C55.7081 3.85985 55.6304 4.27841 55.4751 4.6875C55.3236 5.0928 55.0585 5.54545 54.6797 6.04545C54.3047 6.54167 53.7839 7.14773 53.1172 7.86364L50.5036 10.6591V10.75H55.9126V12H48.5717ZM62.0547 12.1591C61.1986 12.1591 60.4695 11.9261 59.8672 11.4602C59.2649 10.9905 58.8047 10.3106 58.4865 9.42045C58.1683 8.52652 58.0092 7.44697 58.0092 6.18182C58.0092 4.92424 58.1683 3.85038 58.4865 2.96023C58.8085 2.06629 59.2706 1.38447 59.8729 0.914772C60.4789 0.441287 61.2062 0.204545 62.0547 0.204545C62.9032 0.204545 63.6286 0.441287 64.2308 0.914772C64.8369 1.38447 65.299 2.06629 65.6172 2.96023C65.9392 3.85038 66.1001 4.92424 66.1001 6.18182C66.1001 7.44697 65.9411 8.52652 65.6229 9.42045C65.3047 10.3106 64.8445 10.9905 64.2422 11.4602C63.6399 11.9261 62.9107 12.1591 62.0547 12.1591ZM62.0547 10.9091C62.9032 10.9091 63.5623 10.5 64.032 9.68182C64.5017 8.86364 64.7365 7.69697 64.7365 6.18182C64.7365 5.17424 64.6286 4.31629 64.4126 3.60795C64.2005 2.89962 63.8937 2.35985 63.4922 1.98864C63.0945 1.61742 62.6153 1.43182 62.0547 1.43182C61.2138 1.43182 60.5566 1.84659 60.0831 2.67614C59.6096 3.50189 59.3729 4.67045 59.3729 6.18182C59.3729 7.18939 59.4789 8.04545 59.6911 8.75C59.9032 9.45455 60.2081 9.99053 60.6058 10.358C61.0073 10.7254 61.4903 10.9091 62.0547 10.9091ZM68.2592 12V10.9773L72.1001 6.77273C72.5509 6.2803 72.9221 5.85227 73.2138 5.48864C73.5054 5.12121 73.7214 4.77652 73.8615 4.45455C74.0054 4.12879 74.0774 3.78788 74.0774 3.43182C74.0774 3.02273 73.9789 2.66856 73.782 2.36932C73.5888 2.07008 73.3236 1.83901 72.9865 1.67614C72.6494 1.51326 72.2706 1.43182 71.8501 1.43182C71.4032 1.43182 71.013 1.52462 70.6797 1.71023C70.3501 1.89205 70.0945 2.14773 69.9126 2.47727C69.7346 2.80682 69.6456 3.19318 69.6456 3.63636H68.3047C68.3047 2.95455 68.4619 2.35606 68.7763 1.84091C69.0907 1.32576 69.5187 0.924242 70.0604 0.636363C70.6058 0.348484 71.2176 0.204545 71.8956 0.204545C72.5774 0.204545 73.1816 0.348484 73.7081 0.636363C74.2346 0.924242 74.6475 1.3125 74.9467 1.80114C75.246 2.28977 75.3956 2.83333 75.3956 3.43182C75.3956 3.85985 75.3179 4.27841 75.1626 4.6875C75.0111 5.0928 74.746 5.54545 74.3672 6.04545C73.9922 6.54167 73.4714 7.14773 72.8047 7.86364L70.1911 10.6591V10.75H75.6001V12H68.2592ZM77.424 9.61364V8.45455L82.5376 0.363636H83.3786V2.15909H82.8104L78.9467 8.27273V8.36364H85.8331V9.61364H77.424ZM82.9013 12V9.26136V8.72159V0.363636H84.2422V12H82.9013ZM93.1442 12H91.6669L95.9396 0.363636H97.3942L101.667 12H100.19L96.7124 2.20455H96.6214L93.1442 12ZM93.6896 7.45455H99.6442V8.70455H93.6896V7.45455ZM104.638 0.363636V12H103.298V0.363636H104.638ZM108.435 0.363636V12H107.094V0.363636H108.435ZM115.391 12V3.27273H116.687V4.59091H116.778C116.937 4.15909 117.225 3.80871 117.641 3.53977C118.058 3.27083 118.528 3.13636 119.05 3.13636C119.149 3.13636 119.272 3.13826 119.42 3.14205C119.567 3.14583 119.679 3.15152 119.755 3.15909V4.52273C119.71 4.51136 119.605 4.49432 119.442 4.47159C119.283 4.44508 119.115 4.43182 118.937 4.43182C118.513 4.43182 118.134 4.52083 117.8 4.69886C117.471 4.87311 117.21 5.11553 117.016 5.42614C116.827 5.73295 116.732 6.08333 116.732 6.47727V12H115.391ZM121.344 12V3.27273H122.685V12H121.344ZM122.026 1.81818C121.765 1.81818 121.54 1.72917 121.35 1.55114C121.165 1.37311 121.072 1.15909 121.072 0.909091C121.072 0.659091 121.165 0.445076 121.35 0.267045C121.54 0.089015 121.765 0 122.026 0C122.288 0 122.511 0.089015 122.697 0.267045C122.886 0.445076 122.981 0.659091 122.981 0.909091C122.981 1.15909 122.886 1.37311 122.697 1.55114C122.511 1.72917 122.288 1.81818 122.026 1.81818ZM128.664 15.4545C128.016 15.4545 127.46 15.3712 126.994 15.2045C126.528 15.0417 126.139 14.8258 125.829 14.5568C125.522 14.2917 125.278 14.0076 125.096 13.7045L126.164 12.9545C126.285 13.1136 126.439 13.2955 126.624 13.5C126.81 13.7083 127.064 13.8883 127.386 14.0398C127.711 14.1951 128.138 14.2727 128.664 14.2727C129.369 14.2727 129.95 14.1023 130.408 13.7614C130.867 13.4205 131.096 12.8864 131.096 12.1591V10.3864H130.982C130.884 10.5455 130.744 10.7424 130.562 10.9773C130.384 11.2083 130.126 11.4148 129.789 11.5966C129.456 11.7746 129.005 11.8636 128.437 11.8636C127.732 11.8636 127.1 11.697 126.539 11.3636C125.982 11.0303 125.541 10.5455 125.215 9.90909C124.893 9.27273 124.732 8.5 124.732 7.59091C124.732 6.69697 124.889 5.91856 125.204 5.25568C125.518 4.58901 125.956 4.07386 126.516 3.71023C127.077 3.3428 127.725 3.15909 128.46 3.15909C129.028 3.15909 129.478 3.25379 129.812 3.44318C130.149 3.62879 130.406 3.84091 130.585 4.07955C130.766 4.31439 130.906 4.50758 131.005 4.65909H131.141V3.27273H132.437V12.25C132.437 13 132.266 13.6098 131.925 14.0795C131.588 14.553 131.134 14.8996 130.562 15.1193C129.994 15.3428 129.361 15.4545 128.664 15.4545ZM128.619 10.6591C129.156 10.6591 129.611 10.536 129.982 10.2898C130.353 10.0436 130.636 9.68939 130.829 9.22727C131.022 8.76515 131.119 8.21212 131.119 7.56818C131.119 6.93939 131.024 6.38447 130.835 5.90341C130.645 5.42235 130.365 5.04545 129.994 4.77273C129.622 4.5 129.164 4.36364 128.619 4.36364C128.05 4.36364 127.577 4.50758 127.198 4.79545C126.823 5.08333 126.541 5.4697 126.352 5.95455C126.166 6.43939 126.073 6.97727 126.073 7.56818C126.073 8.17424 126.168 8.71023 126.357 9.17614C126.55 9.63826 126.835 10.0019 127.21 10.267C127.588 10.5284 128.058 10.6591 128.619 10.6591ZM136.232 6.75V12H134.891V0.363636H136.232V4.63636H136.346C136.55 4.18561 136.857 3.82765 137.266 3.5625C137.679 3.29356 138.228 3.15909 138.914 3.15909C139.509 3.15909 140.03 3.27841 140.477 3.51705C140.924 3.75189 141.27 4.11364 141.516 4.60227C141.766 5.08712 141.891 5.70455 141.891 6.45455V12H140.55V6.54545C140.55 5.85227 140.371 5.31629 140.011 4.9375C139.655 4.55492 139.16 4.36364 138.528 4.36364C138.088 4.36364 137.694 4.45644 137.346 4.64205C137.001 4.82765 136.728 5.09848 136.528 5.45455C136.331 5.81061 136.232 6.24242 136.232 6.75ZM148.14 3.27273V4.40909H143.617V3.27273H148.14ZM144.935 1.18182H146.276V9.5C146.276 9.87879 146.331 10.1629 146.441 10.3523C146.555 10.5379 146.699 10.6629 146.873 10.7273C147.051 10.7879 147.238 10.8182 147.435 10.8182C147.583 10.8182 147.704 10.8106 147.799 10.7955C147.894 10.7765 147.969 10.7614 148.026 10.75L148.299 11.9545C148.208 11.9886 148.081 12.0227 147.918 12.0568C147.755 12.0947 147.549 12.1136 147.299 12.1136C146.92 12.1136 146.549 12.0322 146.185 11.8693C145.826 11.7064 145.526 11.4583 145.288 11.125C145.053 10.7917 144.935 10.3712 144.935 9.86364V1.18182ZM156.183 5.22727L154.978 5.56818C154.902 5.36742 154.79 5.17235 154.643 4.98295C154.499 4.78977 154.302 4.63068 154.052 4.50568C153.802 4.38068 153.482 4.31818 153.092 4.31818C152.558 4.31818 152.112 4.44129 151.756 4.6875C151.404 4.92992 151.228 5.23864 151.228 5.61364C151.228 5.94697 151.349 6.21023 151.592 6.40341C151.834 6.59659 152.213 6.75758 152.728 6.88636L154.023 7.20455C154.804 7.39394 155.385 7.68371 155.768 8.07386C156.15 8.46023 156.342 8.95833 156.342 9.56818C156.342 10.0682 156.198 10.5152 155.91 10.9091C155.626 11.303 155.228 11.6136 154.717 11.8409C154.205 12.0682 153.611 12.1818 152.933 12.1818C152.042 12.1818 151.306 11.9886 150.722 11.6023C150.139 11.2159 149.77 10.6515 149.614 9.90909L150.887 9.59091C151.008 10.0606 151.237 10.4129 151.575 10.6477C151.915 10.8826 152.361 11 152.91 11C153.535 11 154.031 10.8674 154.398 10.6023C154.77 10.3333 154.955 10.0114 154.955 9.63636C154.955 9.33333 154.849 9.07955 154.637 8.875C154.425 8.66667 154.099 8.51136 153.66 8.40909L152.205 8.06818C151.406 7.87879 150.819 7.58523 150.444 7.1875C150.073 6.78598 149.887 6.28409 149.887 5.68182C149.887 5.18939 150.025 4.75379 150.302 4.375C150.582 3.99621 150.963 3.69886 151.444 3.48295C151.929 3.26705 152.478 3.15909 153.092 3.15909C153.955 3.15909 154.633 3.34848 155.126 3.72727C155.622 4.10606 155.974 4.60606 156.183 5.22727ZM162.86 12V3.27273H164.156V4.59091H164.246C164.406 4.15909 164.693 3.80871 165.11 3.53977C165.527 3.27083 165.996 3.13636 166.519 3.13636C166.618 3.13636 166.741 3.13826 166.888 3.14205C167.036 3.14583 167.148 3.15152 167.224 3.15909V4.52273C167.178 4.51136 167.074 4.49432 166.911 4.47159C166.752 4.44508 166.584 4.43182 166.406 4.43182C165.981 4.43182 165.603 4.52083 165.269 4.69886C164.94 4.87311 164.678 5.11553 164.485 5.42614C164.296 5.73295 164.201 6.08333 164.201 6.47727V12H162.86ZM172.207 12.1818C171.366 12.1818 170.64 11.9962 170.031 11.625C169.424 11.25 168.957 10.7273 168.627 10.0568C168.301 9.38258 168.138 8.59848 168.138 7.70455C168.138 6.81061 168.301 6.02273 168.627 5.34091C168.957 4.6553 169.415 4.12121 170.002 3.73864C170.593 3.35227 171.282 3.15909 172.07 3.15909C172.525 3.15909 172.974 3.23485 173.417 3.38636C173.86 3.53788 174.263 3.78409 174.627 4.125C174.991 4.46212 175.281 4.90909 175.496 5.46591C175.712 6.02273 175.82 6.70833 175.82 7.52273V8.09091H169.093V6.93182H174.457C174.457 6.43939 174.358 6 174.161 5.61364C173.968 5.22727 173.692 4.92235 173.332 4.69886C172.976 4.47538 172.555 4.36364 172.07 4.36364C171.536 4.36364 171.074 4.49621 170.684 4.76136C170.298 5.02273 170 5.36364 169.792 5.78409C169.584 6.20455 169.479 6.6553 169.479 7.13636V7.90909C169.479 8.56818 169.593 9.12689 169.82 9.58523C170.051 10.0398 170.371 10.3864 170.781 10.625C171.19 10.8598 171.665 10.9773 172.207 10.9773C172.559 10.9773 172.877 10.928 173.161 10.8295C173.449 10.7273 173.697 10.5758 173.906 10.375C174.114 10.1705 174.275 9.91667 174.388 9.61364L175.684 9.97727C175.548 10.4167 175.318 10.803 174.996 11.1364C174.674 11.4659 174.277 11.7235 173.803 11.9091C173.33 12.0909 172.798 12.1818 172.207 12.1818ZM184.042 5.22727L182.837 5.56818C182.762 5.36742 182.65 5.17235 182.502 4.98295C182.358 4.78977 182.161 4.63068 181.911 4.50568C181.661 4.38068 181.341 4.31818 180.951 4.31818C180.417 4.31818 179.972 4.44129 179.616 4.6875C179.263 4.92992 179.087 5.23864 179.087 5.61364C179.087 5.94697 179.209 6.21023 179.451 6.40341C179.693 6.59659 180.072 6.75758 180.587 6.88636L181.883 7.20455C182.663 7.39394 183.245 7.68371 183.627 8.07386C184.01 8.46023 184.201 8.95833 184.201 9.56818C184.201 10.0682 184.057 10.5152 183.769 10.9091C183.485 11.303 183.087 11.6136 182.576 11.8409C182.065 12.0682 181.47 12.1818 180.792 12.1818C179.902 12.1818 179.165 11.9886 178.582 11.6023C177.998 11.2159 177.629 10.6515 177.474 9.90909L178.746 9.59091C178.868 10.0606 179.097 10.4129 179.434 10.6477C179.775 10.8826 180.22 11 180.769 11C181.394 11 181.89 10.8674 182.258 10.6023C182.629 10.3333 182.815 10.0114 182.815 9.63636C182.815 9.33333 182.709 9.07955 182.496 8.875C182.284 8.66667 181.959 8.51136 181.519 8.40909L180.065 8.06818C179.265 7.87879 178.678 7.58523 178.303 7.1875C177.932 6.78598 177.746 6.28409 177.746 5.68182C177.746 5.18939 177.885 4.75379 178.161 4.375C178.442 3.99621 178.822 3.69886 179.303 3.48295C179.788 3.26705 180.337 3.15909 180.951 3.15909C181.815 3.15909 182.493 3.34848 182.985 3.72727C183.481 4.10606 183.834 4.60606 184.042 5.22727ZM189.879 12.1818C189.038 12.1818 188.312 11.9962 187.702 11.625C187.096 11.25 186.629 10.7273 186.299 10.0568C185.973 9.38258 185.81 8.59848 185.81 7.70455C185.81 6.81061 185.973 6.02273 186.299 5.34091C186.629 4.6553 187.087 4.12121 187.674 3.73864C188.265 3.35227 188.954 3.15909 189.742 3.15909C190.197 3.15909 190.646 3.23485 191.089 3.38636C191.532 3.53788 191.935 3.78409 192.299 4.125C192.663 4.46212 192.952 4.90909 193.168 5.46591C193.384 6.02273 193.492 6.70833 193.492 7.52273V8.09091H186.765V6.93182H192.129C192.129 6.43939 192.03 6 191.833 5.61364C191.64 5.22727 191.363 4.92235 191.004 4.69886C190.647 4.47538 190.227 4.36364 189.742 4.36364C189.208 4.36364 188.746 4.49621 188.356 4.76136C187.969 5.02273 187.672 5.36364 187.464 5.78409C187.255 6.20455 187.151 6.6553 187.151 7.13636V7.90909C187.151 8.56818 187.265 9.12689 187.492 9.58523C187.723 10.0398 188.043 10.3864 188.452 10.625C188.862 10.8598 189.337 10.9773 189.879 10.9773C190.231 10.9773 190.549 10.928 190.833 10.8295C191.121 10.7273 191.369 10.5758 191.577 10.375C191.786 10.1705 191.947 9.91667 192.06 9.61364L193.356 9.97727C193.219 10.4167 192.99 10.803 192.668 11.1364C192.346 11.4659 191.949 11.7235 191.475 11.9091C191.002 12.0909 190.469 12.1818 189.879 12.1818ZM195.532 12V3.27273H196.827V4.59091H196.918C197.077 4.15909 197.365 3.80871 197.782 3.53977C198.199 3.27083 198.668 3.13636 199.191 3.13636C199.29 3.13636 199.413 3.13826 199.56 3.14205C199.708 3.14583 199.82 3.15152 199.896 3.15909V4.52273C199.85 4.51136 199.746 4.49432 199.583 4.47159C199.424 4.44508 199.255 4.43182 199.077 4.43182C198.653 4.43182 198.274 4.52083 197.941 4.69886C197.612 4.87311 197.35 5.11553 197.157 5.42614C196.968 5.73295 196.873 6.08333 196.873 6.47727V12H195.532ZM208.887 3.27273L205.66 12H204.296L201.069 3.27273H202.523L204.933 10.2273H205.023L207.433 3.27273H208.887ZM214.004 12.1818C213.163 12.1818 212.437 11.9962 211.827 11.625C211.221 11.25 210.754 10.7273 210.424 10.0568C210.098 9.38258 209.935 8.59848 209.935 7.70455C209.935 6.81061 210.098 6.02273 210.424 5.34091C210.754 4.6553 211.212 4.12121 211.799 3.73864C212.39 3.35227 213.079 3.15909 213.867 3.15909C214.322 3.15909 214.771 3.23485 215.214 3.38636C215.657 3.53788 216.06 3.78409 216.424 4.125C216.788 4.46212 217.077 4.90909 217.293 5.46591C217.509 6.02273 217.617 6.70833 217.617 7.52273V8.09091H210.89V6.93182H216.254C216.254 6.43939 216.155 6 215.958 5.61364C215.765 5.22727 215.488 4.92235 215.129 4.69886C214.772 4.47538 214.352 4.36364 213.867 4.36364C213.333 4.36364 212.871 4.49621 212.481 4.76136C212.094 5.02273 211.797 5.36364 211.589 5.78409C211.38 6.20455 211.276 6.6553 211.276 7.13636V7.90909C211.276 8.56818 211.39 9.12689 211.617 9.58523C211.848 10.0398 212.168 10.3864 212.577 10.625C212.987 10.8598 213.462 10.9773 214.004 10.9773C214.356 10.9773 214.674 10.928 214.958 10.8295C215.246 10.7273 215.494 10.5758 215.702 10.375C215.911 10.1705 216.072 9.91667 216.185 9.61364L217.481 9.97727C217.344 10.4167 217.115 10.803 216.793 11.1364C216.471 11.4659 216.074 11.7235 215.6 11.9091C215.127 12.0909 214.594 12.1818 214.004 12.1818ZM222.952 12.1818C222.225 12.1818 221.583 11.9981 221.026 11.6307C220.469 11.2595 220.034 10.7367 219.719 10.0625C219.405 9.38447 219.248 8.58333 219.248 7.65909C219.248 6.74242 219.405 5.94697 219.719 5.27273C220.034 4.59848 220.471 4.07765 221.032 3.71023C221.593 3.3428 222.24 3.15909 222.975 3.15909C223.543 3.15909 223.992 3.25379 224.322 3.44318C224.655 3.62879 224.909 3.84091 225.083 4.07955C225.261 4.31439 225.399 4.50758 225.498 4.65909H225.612V0.363636H226.952V12H225.657V10.6591H225.498C225.399 10.8182 225.259 11.0189 225.077 11.2614C224.896 11.5 224.636 11.714 224.299 11.9034C223.962 12.089 223.513 12.1818 222.952 12.1818ZM223.134 10.9773C223.672 10.9773 224.127 10.8371 224.498 10.5568C224.869 10.2727 225.151 9.88068 225.344 9.38068C225.538 8.87689 225.634 8.29545 225.634 7.63636C225.634 6.98485 225.54 6.41477 225.35 5.92614C225.161 5.43371 224.88 5.05114 224.509 4.77841C224.138 4.50189 223.68 4.36364 223.134 4.36364C222.566 4.36364 222.093 4.50947 221.714 4.80114C221.339 5.08902 221.057 5.48106 220.867 5.97727C220.682 6.4697 220.589 7.02273 220.589 7.63636C220.589 8.25758 220.683 8.82197 220.873 9.32955C221.066 9.83333 221.35 10.2348 221.725 10.5341C222.104 10.8295 222.574 10.9773 223.134 10.9773ZM230.572 12.0909C230.291 12.0909 230.051 11.9905 229.85 11.7898C229.649 11.589 229.549 11.3485 229.549 11.0682C229.549 10.7879 229.649 10.5473 229.85 10.3466C230.051 10.1458 230.291 10.0455 230.572 10.0455C230.852 10.0455 231.093 10.1458 231.293 10.3466C231.494 10.5473 231.594 10.7879 231.594 11.0682C231.594 11.2538 231.547 11.4242 231.452 11.5795C231.362 11.7348 231.238 11.8598 231.083 11.9545C230.932 12.0455 230.761 12.0909 230.572 12.0909ZM4.32031 36H0.729403V24.3636H4.4794C5.60819 24.3636 6.5741 24.5966 7.37713 25.0625C8.18016 25.5246 8.79569 26.1894 9.22372 27.0568C9.65175 27.9205 9.86577 28.9545 9.86577 30.1591C9.86577 31.3712 9.64986 32.4148 9.21804 33.2898C8.78622 34.161 8.15743 34.8314 7.33168 35.3011C6.50592 35.767 5.50213 36 4.32031 36ZM2.13849 34.75H4.2294C5.19152 34.75 5.98887 34.5644 6.62145 34.1932C7.25402 33.822 7.72562 33.2936 8.03622 32.608C8.34683 31.9223 8.50213 31.1061 8.50213 30.1591C8.50213 29.2197 8.34872 28.411 8.0419 27.733C7.73509 27.0511 7.27675 26.5284 6.6669 26.1648C6.05706 25.7973 5.29759 25.6136 4.38849 25.6136H2.13849V34.75ZM15.7067 36.1818C14.8658 36.1818 14.1404 35.9962 13.5305 35.625C12.9245 35.25 12.4567 34.7273 12.1271 34.0568C11.8014 33.3826 11.6385 32.5985 11.6385 31.7045C11.6385 30.8106 11.8014 30.0227 12.1271 29.3409C12.4567 28.6553 12.915 28.1212 13.5021 27.7386C14.093 27.3523 14.7824 27.1591 15.5703 27.1591C16.0249 27.1591 16.4737 27.2348 16.9169 27.3864C17.3601 27.5379 17.7635 27.7841 18.1271 28.125C18.4908 28.4621 18.7805 28.9091 18.9964 29.4659C19.2124 30.0227 19.3203 30.7083 19.3203 31.5227V32.0909H12.593V30.9318H17.9567C17.9567 30.4394 17.8582 30 17.6612 29.6136C17.468 29.2273 17.1915 28.9223 16.8317 28.6989C16.4756 28.4754 16.0552 28.3636 15.5703 28.3636C15.0362 28.3636 14.5741 28.4962 14.1839 28.7614C13.7976 29.0227 13.5002 29.3636 13.2919 29.7841C13.0836 30.2045 12.9794 30.6553 12.9794 31.1364V31.9091C12.9794 32.5682 13.093 33.1269 13.3203 33.5852C13.5514 34.0398 13.8714 34.3864 14.2805 34.625C14.6896 34.8598 15.165 34.9773 15.7067 34.9773C16.0589 34.9773 16.3771 34.928 16.6612 34.8295C16.9491 34.7273 17.1972 34.5758 17.4055 34.375C17.6139 34.1705 17.7749 33.9167 17.8885 33.6136L19.1839 33.9773C19.0476 34.4167 18.8184 34.803 18.4964 35.1364C18.1745 35.4659 17.7768 35.7235 17.3033 35.9091C16.8298 36.0909 16.2976 36.1818 15.7067 36.1818ZM27.5419 29.2273L26.3374 29.5682C26.2616 29.3674 26.1499 29.1723 26.0021 28.983C25.8582 28.7898 25.6612 28.6307 25.4112 28.5057C25.1612 28.3807 24.8411 28.3182 24.451 28.3182C23.9169 28.3182 23.4718 28.4413 23.1158 28.6875C22.7635 28.9299 22.5874 29.2386 22.5874 29.6136C22.5874 29.947 22.7086 30.2102 22.951 30.4034C23.1934 30.5966 23.5722 30.7576 24.0874 30.8864L25.3828 31.2045C26.1631 31.3939 26.7446 31.6837 27.1271 32.0739C27.5097 32.4602 27.701 32.9583 27.701 33.5682C27.701 34.0682 27.5571 34.5152 27.2692 34.9091C26.9851 35.303 26.5874 35.6136 26.076 35.8409C25.5646 36.0682 24.9699 36.1818 24.2919 36.1818C23.4018 36.1818 22.665 35.9886 22.0817 35.6023C21.4983 35.2159 21.129 34.6515 20.9737 33.9091L22.2464 33.5909C22.3677 34.0606 22.5968 34.4129 22.9339 34.6477C23.2749 34.8826 23.7199 35 24.2692 35C24.8942 35 25.3904 34.8674 25.7578 34.6023C26.129 34.3333 26.3146 34.0114 26.3146 33.6364C26.3146 33.3333 26.2086 33.0795 25.9964 32.875C25.7843 32.6667 25.4586 32.5114 25.0192 32.4091L23.5646 32.0682C22.7654 31.8788 22.1783 31.5852 21.8033 31.1875C21.4321 30.786 21.2464 30.2841 21.2464 29.6818C21.2464 29.1894 21.3847 28.7538 21.6612 28.375C21.9415 27.9962 22.3222 27.6989 22.8033 27.483C23.2881 27.267 23.8374 27.1591 24.451 27.1591C25.3146 27.1591 25.9927 27.3485 26.4851 27.7273C26.9813 28.1061 27.3336 28.6061 27.5419 29.2273ZM29.7195 36V27.2727H31.0604V36H29.7195ZM30.4013 25.8182C30.1399 25.8182 29.9145 25.7292 29.7251 25.5511C29.5395 25.3731 29.4467 25.1591 29.4467 24.9091C29.4467 24.6591 29.5395 24.4451 29.7251 24.267C29.9145 24.089 30.1399 24 30.4013 24C30.6626 24 30.8861 24.089 31.0717 24.267C31.2611 24.4451 31.3558 24.6591 31.3558 24.9091C31.3558 25.1591 31.2611 25.3731 31.0717 25.5511C30.8861 25.7292 30.6626 25.8182 30.4013 25.8182ZM37.0391 39.4545C36.3913 39.4545 35.8345 39.3712 35.3686 39.2045C34.9027 39.0417 34.5144 38.8258 34.2038 38.5568C33.897 38.2917 33.6527 38.0076 33.4709 37.7045L34.5391 36.9545C34.6603 37.1136 34.8137 37.2955 34.9993 37.5C35.1849 37.7083 35.4387 37.8883 35.7607 38.0398C36.0864 38.1951 36.5125 38.2727 37.0391 38.2727C37.7436 38.2727 38.325 38.1023 38.7834 37.7614C39.2417 37.4205 39.4709 36.8864 39.4709 36.1591V34.3864H39.3572C39.2588 34.5455 39.1186 34.7424 38.9368 34.9773C38.7588 35.2083 38.5012 35.4148 38.1641 35.5966C37.8307 35.7746 37.38 35.8636 36.8118 35.8636C36.1072 35.8636 35.4747 35.697 34.9141 35.3636C34.3572 35.0303 33.916 34.5455 33.5902 33.9091C33.2682 33.2727 33.1072 32.5 33.1072 31.5909C33.1072 30.697 33.2644 29.9186 33.5788 29.2557C33.8932 28.589 34.3307 28.0739 34.8913 27.7102C35.4519 27.3428 36.0997 27.1591 36.8345 27.1591C37.4027 27.1591 37.8535 27.2538 38.1868 27.4432C38.5239 27.6288 38.7815 27.8409 38.9595 28.0795C39.1413 28.3144 39.2815 28.5076 39.38 28.6591H39.5163V27.2727H40.8118V36.25C40.8118 37 40.6413 37.6098 40.3004 38.0795C39.9633 38.553 39.5088 38.8996 38.9368 39.1193C38.3686 39.3428 37.736 39.4545 37.0391 39.4545ZM36.9936 34.6591C37.5315 34.6591 37.986 34.536 38.3572 34.2898C38.7285 34.0436 39.0107 33.6894 39.2038 33.2273C39.397 32.7652 39.4936 32.2121 39.4936 31.5682C39.4936 30.9394 39.3989 30.3845 39.2095 29.9034C39.0201 29.4223 38.7398 29.0455 38.3686 28.7727C37.9974 28.5 37.5391 28.3636 36.9936 28.3636C36.4254 28.3636 35.9519 28.5076 35.5732 28.7955C35.1982 29.0833 34.916 29.4697 34.7266 29.9545C34.541 30.4394 34.4482 30.9773 34.4482 31.5682C34.4482 32.1742 34.5429 32.7102 34.7322 33.1761C34.9254 33.6383 35.2095 34.0019 35.5845 34.267C35.9633 34.5284 36.433 34.6591 36.9936 34.6591ZM44.6072 30.75V36H43.2663V27.2727H44.5618V28.6364H44.6754C44.88 28.1932 45.1906 27.8371 45.6072 27.5682C46.0239 27.2955 46.5618 27.1591 47.2209 27.1591C47.8118 27.1591 48.3288 27.2803 48.772 27.5227C49.2152 27.7614 49.5599 28.125 49.8061 28.6136C50.0523 29.0985 50.1754 29.7121 50.1754 30.4545V36H48.8345V30.5455C48.8345 29.8598 48.6565 29.3258 48.3004 28.9432C47.9444 28.5568 47.4557 28.3636 46.8345 28.3636C46.4065 28.3636 46.0239 28.4564 45.6868 28.642C45.3535 28.8277 45.0902 29.0985 44.897 29.4545C44.7038 29.8106 44.6072 30.2424 44.6072 30.75ZM56.2848 36.1818C55.4439 36.1818 54.7185 35.9962 54.1087 35.625C53.5026 35.25 53.0348 34.7273 52.7053 34.0568C52.3795 33.3826 52.2166 32.5985 52.2166 31.7045C52.2166 30.8106 52.3795 30.0227 52.7053 29.3409C53.0348 28.6553 53.4931 28.1212 54.0803 27.7386C54.6712 27.3523 55.3606 27.1591 56.1484 27.1591C56.603 27.1591 57.0518 27.2348 57.495 27.3864C57.9382 27.5379 58.3416 27.7841 58.7053 28.125C59.0689 28.4621 59.3587 28.9091 59.5746 29.4659C59.7905 30.0227 59.8984 30.7083 59.8984 31.5227V32.0909H53.1712V30.9318H58.5348C58.5348 30.4394 58.4363 30 58.2393 29.6136C58.0462 29.2273 57.7696 28.9223 57.4098 28.6989C57.0537 28.4754 56.6333 28.3636 56.1484 28.3636C55.6143 28.3636 55.1522 28.4962 54.7621 28.7614C54.3757 29.0227 54.0784 29.3636 53.87 29.7841C53.6617 30.2045 53.5575 30.6553 53.5575 31.1364V31.9091C53.5575 32.5682 53.6712 33.1269 53.8984 33.5852C54.1295 34.0398 54.4496 34.3864 54.8587 34.625C55.2678 34.8598 55.7431 34.9773 56.2848 34.9773C56.6371 34.9773 56.9553 34.928 57.2393 34.8295C57.5272 34.7273 57.7753 34.5758 57.9837 34.375C58.192 34.1705 58.353 33.9167 58.4666 33.6136L59.7621 33.9773C59.6257 34.4167 59.3965 34.803 59.0746 35.1364C58.7526 35.4659 58.3549 35.7235 57.8814 35.9091C57.4079 36.0909 56.8757 36.1818 56.2848 36.1818ZM65.2337 36.1818C64.5064 36.1818 63.8643 35.9981 63.3075 35.6307C62.7507 35.2595 62.3151 34.7367 62.0007 34.0625C61.6863 33.3845 61.5291 32.5833 61.5291 31.6591C61.5291 30.7424 61.6863 29.947 62.0007 29.2727C62.3151 28.5985 62.7526 28.0777 63.3132 27.7102C63.8738 27.3428 64.5215 27.1591 65.2564 27.1591C65.8246 27.1591 66.2734 27.2538 66.603 27.4432C66.9363 27.6288 67.1901 27.8409 67.3643 28.0795C67.5424 28.3144 67.6806 28.5076 67.7791 28.6591H67.8928V24.3636H69.2337V36H67.9382V34.6591H67.7791C67.6806 34.8182 67.5405 35.0189 67.3587 35.2614C67.1768 35.5 66.9174 35.714 66.5803 35.9034C66.2431 36.089 65.7943 36.1818 65.2337 36.1818ZM65.4155 34.9773C65.9534 34.9773 66.4079 34.8371 66.7791 34.5568C67.1503 34.2727 67.4325 33.8807 67.6257 33.3807C67.8189 32.8769 67.9155 32.2955 67.9155 31.6364C67.9155 30.9848 67.8208 30.4148 67.6314 29.9261C67.442 29.4337 67.1617 29.0511 66.7905 28.7784C66.4193 28.5019 65.9609 28.3636 65.4155 28.3636C64.8473 28.3636 64.3738 28.5095 63.995 28.8011C63.62 29.089 63.3378 29.4811 63.1484 29.9773C62.9628 30.4697 62.87 31.0227 62.87 31.6364C62.87 32.2576 62.9647 32.822 63.1541 33.3295C63.3473 33.8333 63.6314 34.2348 64.0064 34.5341C64.3852 34.8295 64.8549 34.9773 65.4155 34.9773ZM76.5575 36V24.3636H77.8984V28.6591H78.0121C78.1106 28.5076 78.2469 28.3144 78.4212 28.0795C78.5992 27.8409 78.853 27.6288 79.1825 27.4432C79.5159 27.2538 79.9666 27.1591 80.5348 27.1591C81.2696 27.1591 81.9174 27.3428 82.478 27.7102C83.0386 28.0777 83.4761 28.5985 83.7905 29.2727C84.1049 29.947 84.2621 30.7424 84.2621 31.6591C84.2621 32.5833 84.1049 33.3845 83.7905 34.0625C83.4761 34.7367 83.0405 35.2595 82.4837 35.6307C81.9268 35.9981 81.2848 36.1818 80.5575 36.1818C79.9969 36.1818 79.5481 36.089 79.2109 35.9034C78.8738 35.714 78.6143 35.5 78.4325 35.2614C78.2507 35.0189 78.1106 34.8182 78.0121 34.6591H77.853V36H76.5575ZM77.8757 31.6364C77.8757 32.2955 77.9723 32.8769 78.1655 33.3807C78.3587 33.8807 78.6409 34.2727 79.0121 34.5568C79.3833 34.8371 79.8378 34.9773 80.3757 34.9773C80.9363 34.9773 81.4041 34.8295 81.7791 34.5341C82.1579 34.2348 82.442 33.8333 82.6314 33.3295C82.8246 32.822 82.9212 32.2576 82.9212 31.6364C82.9212 31.0227 82.8265 30.4697 82.6371 29.9773C82.4515 29.4811 82.1693 29.089 81.7905 28.8011C81.4155 28.5095 80.9439 28.3636 80.3757 28.3636C79.8303 28.3636 79.3719 28.5019 79.0007 28.7784C78.6295 29.0511 78.3492 29.4337 78.1598 29.9261C77.9704 30.4148 77.8757 30.9848 77.8757 31.6364ZM86.8643 39.2727C86.6371 39.2727 86.4344 39.2538 86.2564 39.2159C86.0784 39.1818 85.9553 39.1477 85.8871 39.1136L86.228 37.9318C86.5537 38.0152 86.8416 38.0455 87.0916 38.0227C87.3416 38 87.5632 37.8883 87.7564 37.6875C87.9534 37.4905 88.1333 37.1705 88.2962 36.7273L88.5462 36.0455L85.3189 27.2727H86.7734L89.1825 34.2273H89.2734L91.6825 27.2727H93.1371L89.4325 37.2727C89.2659 37.7235 89.0594 38.0966 88.8132 38.392C88.567 38.6913 88.281 38.9129 87.9553 39.0568C87.6333 39.2008 87.2696 39.2727 86.8643 39.2727ZM100.066 36H98.5888L102.862 24.3636H104.316L108.589 36H107.112L103.634 26.2045H103.543L100.066 36ZM100.612 31.4545H106.566V32.7045H100.612V31.4545ZM110.313 36V27.2727H111.654V36H110.313ZM110.995 25.8182C110.734 25.8182 110.508 25.7292 110.319 25.5511C110.133 25.3731 110.04 25.1591 110.04 24.9091C110.04 24.6591 110.133 24.4451 110.319 24.267C110.508 24.089 110.734 24 110.995 24C111.256 24 111.48 24.089 111.665 24.267C111.855 24.4451 111.95 24.6591 111.95 24.9091C111.95 25.1591 111.855 25.3731 111.665 25.5511C111.48 25.7292 111.256 25.8182 110.995 25.8182ZM120.292 29.2273L119.087 29.5682C119.012 29.3674 118.9 29.1723 118.752 28.983C118.608 28.7898 118.411 28.6307 118.161 28.5057C117.911 28.3807 117.591 28.3182 117.201 28.3182C116.667 28.3182 116.222 28.4413 115.866 28.6875C115.513 28.9299 115.337 29.2386 115.337 29.6136C115.337 29.947 115.459 30.2102 115.701 30.4034C115.943 30.5966 116.322 30.7576 116.837 30.8864L118.133 31.2045C118.913 31.3939 119.495 31.6837 119.877 32.0739C120.26 32.4602 120.451 32.9583 120.451 33.5682C120.451 34.0682 120.307 34.5152 120.019 34.9091C119.735 35.303 119.337 35.6136 118.826 35.8409C118.315 36.0682 117.72 36.1818 117.042 36.1818C116.152 36.1818 115.415 35.9886 114.832 35.6023C114.248 35.2159 113.879 34.6515 113.724 33.9091L114.996 33.5909C115.118 34.0606 115.347 34.4129 115.684 34.6477C116.025 34.8826 116.47 35 117.019 35C117.644 35 118.14 34.8674 118.508 34.6023C118.879 34.3333 119.065 34.0114 119.065 33.6364C119.065 33.3333 118.959 33.0795 118.746 32.875C118.534 32.6667 118.209 32.5114 117.769 32.4091L116.315 32.0682C115.515 31.8788 114.928 31.5852 114.553 31.1875C114.182 30.786 113.996 30.2841 113.996 29.6818C113.996 29.1894 114.135 28.7538 114.411 28.375C114.692 27.9962 115.072 27.6989 115.553 27.483C116.038 27.267 116.587 27.1591 117.201 27.1591C118.065 27.1591 118.743 27.3485 119.235 27.7273C119.731 28.1061 120.084 28.6061 120.292 29.2273ZM123.81 30.75V36H122.469V24.3636H123.81V28.6364H123.924C124.129 28.1856 124.435 27.8277 124.844 27.5625C125.257 27.2936 125.807 27.1591 126.492 27.1591C127.087 27.1591 127.608 27.2784 128.055 27.517C128.502 27.7519 128.848 28.1136 129.094 28.6023C129.344 29.0871 129.469 29.7045 129.469 30.4545V36H128.129V30.5455C128.129 29.8523 127.949 29.3163 127.589 28.9375C127.233 28.5549 126.738 28.3636 126.106 28.3636C125.666 28.3636 125.272 28.4564 124.924 28.642C124.579 28.8277 124.307 29.0985 124.106 29.4545C123.909 29.8106 123.81 30.2424 123.81 30.75ZM133.9 36L131.241 27.2727H132.65L134.536 33.9545H134.627L136.491 27.2727H137.923L139.763 33.9318H139.854L141.741 27.2727H143.15L140.491 36H139.173L137.263 29.2955H137.127L135.218 36H133.9ZM147.491 36.2045C146.938 36.2045 146.436 36.1004 145.985 35.892C145.534 35.6799 145.176 35.375 144.911 34.9773C144.646 34.5758 144.513 34.0909 144.513 33.5227C144.513 33.0227 144.612 32.6174 144.809 32.3068C145.006 31.9924 145.269 31.7462 145.599 31.5682C145.928 31.3902 146.292 31.2576 146.69 31.1705C147.091 31.0795 147.495 31.0076 147.9 30.9545C148.43 30.8864 148.86 30.8352 149.19 30.8011C149.523 30.7633 149.765 30.7008 149.917 30.6136C150.072 30.5265 150.15 30.375 150.15 30.1591V30.1136C150.15 29.553 149.996 29.1174 149.69 28.8068C149.387 28.4962 148.926 28.3409 148.309 28.3409C147.669 28.3409 147.167 28.4811 146.803 28.7614C146.44 29.0417 146.184 29.3409 146.036 29.6591L144.763 29.2045C144.991 28.6742 145.294 28.2614 145.673 27.9659C146.055 27.6667 146.472 27.4583 146.923 27.3409C147.377 27.2197 147.824 27.1591 148.263 27.1591C148.544 27.1591 148.866 27.1932 149.229 27.2614C149.597 27.3258 149.951 27.4602 150.292 27.6648C150.637 27.8693 150.923 28.178 151.15 28.5909C151.377 29.0038 151.491 29.5568 151.491 30.25V36H150.15V34.8182H150.082C149.991 35.0076 149.839 35.2102 149.627 35.4261C149.415 35.642 149.133 35.8258 148.781 35.9773C148.428 36.1288 147.998 36.2045 147.491 36.2045ZM147.695 35C148.226 35 148.673 34.8958 149.036 34.6875C149.404 34.4792 149.68 34.2102 149.866 33.8807C150.055 33.5511 150.15 33.2045 150.15 32.8409V31.6136C150.093 31.6818 149.968 31.7443 149.775 31.8011C149.585 31.8542 149.366 31.9015 149.116 31.9432C148.87 31.9811 148.629 32.0152 148.394 32.0455C148.163 32.072 147.976 32.0947 147.832 32.1136C147.483 32.1591 147.157 32.233 146.854 32.3352C146.555 32.4337 146.313 32.5833 146.127 32.7841C145.945 32.9811 145.854 33.25 145.854 33.5909C145.854 34.0568 146.027 34.4091 146.371 34.6477C146.72 34.8826 147.161 35 147.695 35ZM153.938 36V27.2727H155.234V28.5909H155.325C155.484 28.1591 155.772 27.8087 156.188 27.5398C156.605 27.2708 157.075 27.1364 157.597 27.1364C157.696 27.1364 157.819 27.1383 157.967 27.142C158.114 27.1458 158.226 27.1515 158.302 27.1591V28.5227C158.256 28.5114 158.152 28.4943 157.989 28.4716C157.83 28.4451 157.662 28.4318 157.484 28.4318C157.059 28.4318 156.681 28.5208 156.347 28.6989C156.018 28.8731 155.756 29.1155 155.563 29.4261C155.374 29.733 155.279 30.0833 155.279 30.4773V36H153.938ZM161.021 39.2727C160.793 39.2727 160.591 39.2538 160.413 39.2159C160.235 39.1818 160.112 39.1477 160.043 39.1136L160.384 37.9318C160.71 38.0152 160.998 38.0455 161.248 38.0227C161.498 38 161.719 37.8883 161.913 37.6875C162.11 37.4905 162.29 37.1705 162.452 36.7273L162.702 36.0455L159.475 27.2727H160.93L163.339 34.2273H163.43L165.839 27.2727H167.293L163.589 37.2727C163.422 37.7235 163.216 38.0966 162.969 38.392C162.723 38.6913 162.437 38.9129 162.112 39.0568C161.79 39.2008 161.426 39.2727 161.021 39.2727ZM171.366 36.2045C170.813 36.2045 170.311 36.1004 169.86 35.892C169.409 35.6799 169.051 35.375 168.786 34.9773C168.521 34.5758 168.388 34.0909 168.388 33.5227C168.388 33.0227 168.487 32.6174 168.684 32.3068C168.881 31.9924 169.144 31.7462 169.474 31.5682C169.803 31.3902 170.167 31.2576 170.565 31.1705C170.966 31.0795 171.37 31.0076 171.775 30.9545C172.305 30.8864 172.735 30.8352 173.065 30.8011C173.398 30.7633 173.64 30.7008 173.792 30.6136C173.947 30.5265 174.025 30.375 174.025 30.1591V30.1136C174.025 29.553 173.871 29.1174 173.565 28.8068C173.262 28.4962 172.801 28.3409 172.184 28.3409C171.544 28.3409 171.042 28.4811 170.678 28.7614C170.315 29.0417 170.059 29.3409 169.911 29.6591L168.638 29.2045C168.866 28.6742 169.169 28.2614 169.548 27.9659C169.93 27.6667 170.347 27.4583 170.798 27.3409C171.252 27.2197 171.699 27.1591 172.138 27.1591C172.419 27.1591 172.741 27.1932 173.104 27.2614C173.472 27.3258 173.826 27.4602 174.167 27.6648C174.512 27.8693 174.798 28.178 175.025 28.5909C175.252 29.0038 175.366 29.5568 175.366 30.25V36H174.025V34.8182H173.957C173.866 35.0076 173.714 35.2102 173.502 35.4261C173.29 35.642 173.008 35.8258 172.656 35.9773C172.303 36.1288 171.873 36.2045 171.366 36.2045ZM171.57 35C172.101 35 172.548 34.8958 172.911 34.6875C173.279 34.4792 173.555 34.2102 173.741 33.8807C173.93 33.5511 174.025 33.2045 174.025 32.8409V31.6136C173.968 31.6818 173.843 31.7443 173.65 31.8011C173.46 31.8542 173.241 31.9015 172.991 31.9432C172.745 31.9811 172.504 32.0152 172.269 32.0455C172.038 32.072 171.851 32.0947 171.707 32.1136C171.358 32.1591 171.032 32.233 170.729 32.3352C170.43 32.4337 170.188 32.5833 170.002 32.7841C169.82 32.9811 169.729 33.25 169.729 33.5909C169.729 34.0568 169.902 34.4091 170.246 34.6477C170.595 34.8826 171.036 35 171.57 35ZM188.859 27.2727C188.79 26.697 188.514 26.25 188.029 25.9318C187.544 25.6136 186.95 25.4545 186.245 25.4545C185.73 25.4545 185.279 25.5379 184.893 25.7045C184.51 25.8712 184.211 26.1004 183.995 26.392C183.783 26.6837 183.677 27.0152 183.677 27.3864C183.677 27.697 183.751 27.964 183.898 28.1875C184.05 28.4072 184.243 28.5909 184.478 28.7386C184.713 28.8826 184.959 29.0019 185.217 29.0966C185.474 29.1875 185.711 29.2614 185.927 29.3182L187.109 29.6364C187.412 29.7159 187.749 29.8258 188.12 29.9659C188.495 30.1061 188.853 30.2973 189.194 30.5398C189.539 30.7784 189.823 31.0852 190.046 31.4602C190.27 31.8352 190.381 32.2955 190.381 32.8409C190.381 33.4697 190.217 34.0379 189.887 34.5455C189.561 35.053 189.084 35.4564 188.455 35.7557C187.83 36.0549 187.071 36.2045 186.177 36.2045C185.344 36.2045 184.622 36.0701 184.012 35.8011C183.406 35.5322 182.929 35.1572 182.58 34.6761C182.236 34.1951 182.04 33.6364 181.995 33H183.45C183.487 33.4394 183.635 33.803 183.893 34.0909C184.154 34.375 184.484 34.5871 184.881 34.7273C185.283 34.8636 185.715 34.9318 186.177 34.9318C186.715 34.9318 187.198 34.8447 187.626 34.6705C188.054 34.4924 188.393 34.2462 188.643 33.9318C188.893 33.6136 189.018 33.2424 189.018 32.8182C189.018 32.4318 188.91 32.1174 188.694 31.875C188.478 31.6326 188.194 31.4356 187.842 31.2841C187.489 31.1326 187.109 31 186.7 30.8864L185.268 30.4773C184.359 30.2159 183.639 29.8428 183.109 29.358C182.578 28.8731 182.313 28.2386 182.313 27.4545C182.313 26.803 182.489 26.2348 182.842 25.75C183.198 25.2614 183.675 24.8826 184.273 24.6136C184.876 24.3409 185.548 24.2045 186.29 24.2045C187.04 24.2045 187.707 24.339 188.29 24.608C188.874 24.8731 189.336 25.2367 189.677 25.6989C190.022 26.161 190.203 26.6856 190.222 27.2727H188.859ZM198.016 32.4318V27.2727H199.357V36H198.016V34.5227H197.925C197.721 34.9659 197.403 35.3428 196.971 35.6534C196.539 35.9602 195.994 36.1136 195.335 36.1136C194.789 36.1136 194.304 35.9943 193.88 35.7557C193.456 35.5133 193.122 35.1496 192.88 34.6648C192.638 34.1761 192.516 33.5606 192.516 32.8182V27.2727H193.857V32.7273C193.857 33.3636 194.035 33.8712 194.391 34.25C194.751 34.6288 195.21 34.8182 195.766 34.8182C196.1 34.8182 196.439 34.733 196.783 34.5625C197.132 34.392 197.424 34.1307 197.658 33.7784C197.897 33.4261 198.016 32.9773 198.016 32.4318ZM205.109 36.1818C204.381 36.1818 203.739 35.9981 203.183 35.6307C202.626 35.2595 202.19 34.7367 201.876 34.0625C201.561 33.3845 201.404 32.5833 201.404 31.6591C201.404 30.7424 201.561 29.947 201.876 29.2727C202.19 28.5985 202.628 28.0777 203.188 27.7102C203.749 27.3428 204.397 27.1591 205.131 27.1591C205.7 27.1591 206.148 27.2538 206.478 27.4432C206.811 27.6288 207.065 27.8409 207.239 28.0795C207.417 28.3144 207.556 28.5076 207.654 28.6591H207.768V24.3636H209.109V36H207.813V34.6591H207.654C207.556 34.8182 207.415 35.0189 207.234 35.2614C207.052 35.5 206.792 35.714 206.455 35.9034C206.118 36.089 205.669 36.1818 205.109 36.1818ZM205.29 34.9773C205.828 34.9773 206.283 34.8371 206.654 34.5568C207.025 34.2727 207.308 33.8807 207.501 33.3807C207.694 32.8769 207.79 32.2955 207.79 31.6364C207.79 30.9848 207.696 30.4148 207.506 29.9261C207.317 29.4337 207.037 29.0511 206.665 28.7784C206.294 28.5019 205.836 28.3636 205.29 28.3636C204.722 28.3636 204.249 28.5095 203.87 28.8011C203.495 29.089 203.213 29.4811 203.023 29.9773C202.838 30.4697 202.745 31.0227 202.745 31.6364C202.745 32.2576 202.84 32.822 203.029 33.3295C203.222 33.8333 203.506 34.2348 203.881 34.5341C204.26 34.8295 204.73 34.9773 205.29 34.9773ZM214.319 36.2045C213.766 36.2045 213.264 36.1004 212.813 35.892C212.362 35.6799 212.004 35.375 211.739 34.9773C211.474 34.5758 211.342 34.0909 211.342 33.5227C211.342 33.0227 211.44 32.6174 211.637 32.3068C211.834 31.9924 212.097 31.7462 212.427 31.5682C212.756 31.3902 213.12 31.2576 213.518 31.1705C213.919 31.0795 214.323 31.0076 214.728 30.9545C215.258 30.8864 215.688 30.8352 216.018 30.8011C216.351 30.7633 216.594 30.7008 216.745 30.6136C216.9 30.5265 216.978 30.375 216.978 30.1591V30.1136C216.978 29.553 216.825 29.1174 216.518 28.8068C216.215 28.4962 215.754 28.3409 215.137 28.3409C214.497 28.3409 213.995 28.4811 213.631 28.7614C213.268 29.0417 213.012 29.3409 212.864 29.6591L211.592 29.2045C211.819 28.6742 212.122 28.2614 212.501 27.9659C212.883 27.6667 213.3 27.4583 213.751 27.3409C214.205 27.2197 214.652 27.1591 215.092 27.1591C215.372 27.1591 215.694 27.1932 216.058 27.2614C216.425 27.3258 216.779 27.4602 217.12 27.6648C217.465 27.8693 217.751 28.178 217.978 28.5909C218.205 29.0038 218.319 29.5568 218.319 30.25V36H216.978V34.8182H216.91C216.819 35.0076 216.667 35.2102 216.455 35.4261C216.243 35.642 215.961 35.8258 215.609 35.9773C215.256 36.1288 214.826 36.2045 214.319 36.2045ZM214.523 35C215.054 35 215.501 34.8958 215.864 34.6875C216.232 34.4792 216.508 34.2102 216.694 33.8807C216.883 33.5511 216.978 33.2045 216.978 32.8409V31.6136C216.921 31.6818 216.796 31.7443 216.603 31.8011C216.414 31.8542 216.194 31.9015 215.944 31.9432C215.698 31.9811 215.457 32.0152 215.222 32.0455C214.991 32.072 214.804 32.0947 214.66 32.1136C214.311 32.1591 213.986 32.233 213.683 32.3352C213.383 32.4337 213.141 32.5833 212.955 32.7841C212.773 32.9811 212.683 33.25 212.683 33.5909C212.683 34.0568 212.855 34.4091 213.2 34.6477C213.548 34.8826 213.989 35 214.523 35ZM220.766 36V27.2727H222.062V28.5909H222.153C222.312 28.1591 222.6 27.8087 223.016 27.5398C223.433 27.2708 223.903 27.1364 224.425 27.1364C224.524 27.1364 224.647 27.1383 224.795 27.142C224.942 27.1458 225.054 27.1515 225.13 27.1591V28.5227C225.085 28.5114 224.98 28.4943 224.817 28.4716C224.658 28.4451 224.49 28.4318 224.312 28.4318C223.888 28.4318 223.509 28.5208 223.175 28.6989C222.846 28.8731 222.585 29.1155 222.391 29.4261C222.202 29.733 222.107 30.0833 222.107 30.4773V36H220.766ZM232.901 29.2273L231.697 29.5682C231.621 29.3674 231.509 29.1723 231.362 28.983C231.218 28.7898 231.021 28.6307 230.771 28.5057C230.521 28.3807 230.201 28.3182 229.81 28.3182C229.276 28.3182 228.831 28.4413 228.475 28.6875C228.123 28.9299 227.947 29.2386 227.947 29.6136C227.947 29.947 228.068 30.2102 228.31 30.4034C228.553 30.5966 228.932 30.7576 229.447 30.8864L230.742 31.2045C231.522 31.3939 232.104 31.6837 232.487 32.0739C232.869 32.4602 233.06 32.9583 233.06 33.5682C233.06 34.0682 232.916 34.5152 232.629 34.9091C232.344 35.303 231.947 35.6136 231.435 35.8409C230.924 36.0682 230.329 36.1818 229.651 36.1818C228.761 36.1818 228.024 35.9886 227.441 35.6023C226.858 35.2159 226.488 34.6515 226.333 33.9091L227.606 33.5909C227.727 34.0606 227.956 34.4129 228.293 34.6477C228.634 34.8826 229.079 35 229.629 35C230.254 35 230.75 34.8674 231.117 34.6023C231.488 34.3333 231.674 34.0114 231.674 33.6364C231.674 33.3333 231.568 33.0795 231.356 32.875C231.144 32.6667 230.818 32.5114 230.379 32.4091L228.924 32.0682C228.125 31.8788 227.538 31.5852 227.163 31.1875C226.791 30.786 226.606 30.2841 226.606 29.6818C226.606 29.1894 226.744 28.7538 227.021 28.375C227.301 27.9962 227.682 27.6989 228.163 27.483C228.647 27.267 229.197 27.1591 229.81 27.1591C230.674 27.1591 231.352 27.3485 231.844 27.7273C232.341 28.1061 232.693 28.6061 232.901 29.2273ZM236.42 30.75V36H235.079V24.3636H236.42V28.6364H236.533C236.738 28.1856 237.045 27.8277 237.454 27.5625C237.867 27.2936 238.416 27.1591 239.102 27.1591C239.696 27.1591 240.217 27.2784 240.664 27.517C241.111 27.7519 241.458 28.1136 241.704 28.6023C241.954 29.0871 242.079 29.7045 242.079 30.4545V36H240.738V30.5455C240.738 29.8523 240.558 29.3163 240.198 28.9375C239.842 28.5549 239.348 28.3636 238.715 28.3636C238.276 28.3636 237.882 28.4564 237.533 28.642C237.189 28.8277 236.916 29.0985 236.715 29.4545C236.518 29.8106 236.42 30.2424 236.42 30.75ZM247.1 36.2045C246.547 36.2045 246.045 36.1004 245.594 35.892C245.144 35.6799 244.786 35.375 244.521 34.9773C244.255 34.5758 244.123 34.0909 244.123 33.5227C244.123 33.0227 244.221 32.6174 244.418 32.3068C244.615 31.9924 244.879 31.7462 245.208 31.5682C245.538 31.3902 245.901 31.2576 246.299 31.1705C246.701 31.0795 247.104 31.0076 247.509 30.9545C248.04 30.8864 248.469 30.8352 248.799 30.8011C249.132 30.7633 249.375 30.7008 249.526 30.6136C249.682 30.5265 249.759 30.375 249.759 30.1591V30.1136C249.759 29.553 249.606 29.1174 249.299 28.8068C248.996 28.4962 248.536 28.3409 247.918 28.3409C247.278 28.3409 246.776 28.4811 246.413 28.7614C246.049 29.0417 245.793 29.3409 245.646 29.6591L244.373 29.2045C244.6 28.6742 244.903 28.2614 245.282 27.9659C245.665 27.6667 246.081 27.4583 246.532 27.3409C246.987 27.2197 247.433 27.1591 247.873 27.1591C248.153 27.1591 248.475 27.1932 248.839 27.2614C249.206 27.3258 249.56 27.4602 249.901 27.6648C250.246 27.8693 250.532 28.178 250.759 28.5909C250.987 29.0038 251.1 29.5568 251.1 30.25V36H249.759V34.8182H249.691C249.6 35.0076 249.449 35.2102 249.237 35.4261C249.024 35.642 248.742 35.8258 248.39 35.9773C248.038 36.1288 247.608 36.2045 247.1 36.2045ZM247.305 35C247.835 35 248.282 34.8958 248.646 34.6875C249.013 34.4792 249.29 34.2102 249.475 33.8807C249.665 33.5511 249.759 33.2045 249.759 32.8409V31.6136C249.702 31.6818 249.577 31.7443 249.384 31.8011C249.195 31.8542 248.975 31.9015 248.725 31.9432C248.479 31.9811 248.238 32.0152 248.004 32.0455C247.772 32.072 247.585 32.0947 247.441 32.1136C247.093 32.1591 246.767 32.233 246.464 32.3352C246.165 32.4337 245.922 32.5833 245.737 32.7841C245.555 32.9811 245.464 33.25 245.464 33.5909C245.464 34.0568 245.636 34.4091 245.981 34.6477C246.329 34.8826 246.771 35 247.305 35ZM254.888 30.75V36H253.548V27.2727H254.843V28.6364H254.957C255.161 28.1932 255.472 27.8371 255.888 27.5682C256.305 27.2955 256.843 27.1591 257.502 27.1591C258.093 27.1591 258.61 27.2803 259.053 27.5227C259.496 27.7614 259.841 28.125 260.087 28.6136C260.334 29.0985 260.457 29.7121 260.457 30.4545V36H259.116V30.5455C259.116 29.8598 258.938 29.3258 258.582 28.9432C258.226 28.5568 257.737 28.3636 257.116 28.3636C256.688 28.3636 256.305 28.4564 255.968 28.642C255.635 28.8277 255.371 29.0985 255.178 29.4545C254.985 29.8106 254.888 30.2424 254.888 30.75Z" fill="#737373"/>
</svg>
